Aleo-Black.ufo
<glyph name="exclam" format="2">
	<advance width="302"/>
	<unicode hex="0021"/>
	<note>
		exclam
	</note>
	<outline>
		<contour>
			<point x="80" y="729" type="line"/>
			<point x="80" y="443" type="line" smooth="yes"/>
			<point x="80" y="382"/>
			<point x="88" y="322"/>
			<point x="100" y="259" type="curve"/>
			<point x="205" y="259" type="line"/>
			<point x="217" y="322"/>
			<point x="225" y="382"/>
			<point x="225" y="443" type="curve" smooth="yes"/>
			<point x="225" y="729" type="line"/>
			<point x="80" y="729" type="line"/>
		</contour>
		<contour>
			<point x="63" y="79" type="curve"/>
			<point x="63" y="79" type="line"/>
			<point x="63" y="30"/>
			<point x="102" y="-7"/>
			<point x="151" y="-7" type="curve" smooth="yes"/>
			<point x="202" y="-7"/>
			<point x="239" y="30"/>
			<point x="239" y="79" type="curve" smooth="yes"/>
			<point x="239" y="127"/>
			<point x="201" y="164"/>
			<point x="151" y="164" type="curve" smooth="yes"/>
			<point x="102" y="164"/>
			<point x="63" y="127"/>
		</contour>
	</outline>
</glyph>
<glyph name="quotedbl" format="2">
	<advance width="443"/>
	<unicode hex="0022"/>
	<note>
		quotedbl
	</note>
	<outline>
		<contour>
			<point x="54" y="729" type="line"/>
			<point x="54" y="586" type="line"/>
			<point x="68" y="507" type="line" smooth="yes"/>
			<point x="75" y="471"/>
			<point x="92" y="451"/>
			<point x="121" y="451" type="curve" smooth="yes"/>
			<point x="157" y="451"/>
			<point x="170" y="471"/>
			<point x="175" y="507" type="curve" smooth="yes"/>
			<point x="189" y="586" type="line"/>
			<point x="189" y="729" type="line"/>
			<point x="54" y="729" type="line"/>
		</contour>
		<contour>
			<point x="254" y="729" type="line"/>
			<point x="254" y="586" type="line"/>
			<point x="268" y="507" type="line" smooth="yes"/>
			<point x="275" y="471"/>
			<point x="292" y="451"/>
			<point x="321" y="451" type="curve" smooth="yes"/>
			<point x="357" y="451"/>
			<point x="370" y="471"/>
			<point x="375" y="507" type="curve" smooth="yes"/>
			<point x="389" y="586" type="line"/>
			<point x="389" y="729" type="line"/>
			<point x="254" y="729" type="line"/>
		</contour>
	</outline>
</glyph>
<glyph name="numbersign" format="2">
	<advance width="640"/>
	<unicode hex="0023"/>
	<note>
		numbersign
	</note>
	<outline>
		<contour>
			<point x="85" y="0" type="line"/>
			<point x="154" y="0" type="line" smooth="yes"/>
			<point x="188" y="0"/>
			<point x="217" y="18"/>
			<point x="223" y="54" type="curve" smooth="yes"/>
			<point x="248" y="198" type="line"/>
			<point x="330" y="198" type="line"/>
			<point x="305" y="51" type="line" smooth="yes"/>
			<point x="301" y="28"/>
			<point x="325" y="0"/>
			<point x="350" y="0" type="curve" smooth="yes"/>
			<point x="422" y="0" type="line"/>
			<point x="457" y="198" type="line"/>
			<point x="556" y="198" type="line"/>
			<point x="564" y="246" type="line" smooth="yes"/>
			<point x="570" y="283"/>
			<point x="561" y="306"/>
			<point x="526" y="306" type="curve" smooth="yes"/>
			<point x="472" y="306" type="line"/>
			<point x="493" y="424" type="line"/>
			<point x="524" y="424" type="line" smooth="yes"/>
			<point x="568" y="424"/>
			<point x="586" y="438"/>
			<point x="592" y="469" type="curve" smooth="yes"/>
			<point x="604" y="532" type="line"/>
			<point x="507" y="532" type="line"/>
			<point x="533" y="682" type="line" smooth="yes"/>
			<point x="538" y="711"/>
			<point x="514" y="729"/>
			<point x="484" y="729" type="curve" smooth="yes"/>
			<point x="415" y="729" type="line"/>
			<point x="380" y="532" type="line"/>
			<point x="297" y="532" type="line"/>
			<point x="332" y="729" type="line"/>
			<point x="261" y="729" type="line" smooth="yes"/>
			<point x="229" y="729"/>
			<point x="201" y="710"/>
			<point x="196" y="679" type="curve" smooth="yes"/>
			<point x="170" y="532" type="line"/>
			<point x="136" y="532" type="line" smooth="yes"/>
			<point x="92" y="532"/>
			<point x="74" y="518"/>
			<point x="68" y="487" type="curve" smooth="yes"/>
			<point x="56" y="424" type="line"/>
			<point x="156" y="424" type="line"/>
			<point x="135" y="306" type="line"/>
			<point x="46" y="306" type="line"/>
			<point x="38" y="258" type="line" smooth="yes"/>
			<point x="32" y="221"/>
			<point x="41" y="198"/>
			<point x="76" y="198" type="curve" smooth="yes"/>
			<point x="120" y="198" type="line"/>
		</contour>
		<contour>
			<point x="262" y="306" type="line"/>
			<point x="283" y="424" type="line"/>
			<point x="366" y="424" type="line"/>
			<point x="345" y="306" type="line"/>
		</contour>
	</outline>
</glyph>
<glyph name="dollar" format="2">
	<advance width="574"/>
	<unicode hex="0024"/>
	<note>
		dollar
	</note>
	<outline>
		<contour>
			<point x="183" y="-106" type="line"/>
			<point x="240" y="-106" type="line" smooth="yes"/>
			<point x="264" y="-106"/>
			<point x="279" y="-88"/>
			<point x="281" y="-69" type="curve" smooth="yes"/>
			<point x="369" y="827" type="line"/>
			<point x="312" y="827" type="line" smooth="yes"/>
			<point x="289" y="827"/>
			<point x="273" y="809"/>
			<point x="271" y="791" type="curve" smooth="yes"/>
		</contour>
		<component base="S"/>
	</outline>
</glyph>
<glyph name="ampersand" format="2">
	<advance width="746"/>
	<unicode hex="0026"/>
	<note>
		ampersand
	</note>
	<outline>
		<contour>
			<point x="251" y="-8" type="curve" smooth="yes"/>
			<point x="336" y="-8"/>
			<point x="411" y="17"/>
			<point x="475" y="61" type="curve"/>
			<point x="506" y="28" type="line" smooth="yes"/>
			<point x="526" y="7"/>
			<point x="543" y="0"/>
			<point x="573" y="0" type="curve" smooth="yes"/>
			<point x="726" y="0" type="line"/>
			<point x="573" y="161" type="line"/>
			<point x="621" y="232"/>
			<point x="648" y="316"/>
			<point x="648" y="413" type="curve"/>
			<point x="550" y="413" type="line" smooth="yes"/>
			<point x="533" y="413"/>
			<point x="520" y="402"/>
			<point x="519" y="383" type="curve" smooth="yes"/>
			<point x="515" y="336"/>
			<point x="505" y="293"/>
			<point x="486" y="253" type="curve"/>
			<point x="306" y="443" type="line" smooth="yes"/>
			<point x="272" y="479"/>
			<point x="258" y="509"/>
			<point x="258" y="546" type="curve" smooth="yes"/>
			<point x="258" y="587"/>
			<point x="284" y="623"/>
			<point x="328" y="623" type="curve" smooth="yes"/>
			<point x="361" y="623"/>
			<point x="380" y="605"/>
			<point x="395" y="570" type="curve" smooth="yes"/>
			<point x="402" y="555"/>
			<point x="413" y="545"/>
			<point x="426" y="548" type="curve" smooth="yes"/>
			<point x="534" y="569" type="line"/>
			<point x="525" y="662"/>
			<point x="449" y="737"/>
			<point x="328" y="737" type="curve"/>
			<point x="199" y="737"/>
			<point x="114" y="654"/>
			<point x="114" y="545" type="curve" smooth="yes"/>
			<point x="114" y="501"/>
			<point x="127" y="454"/>
			<point x="159" y="405" type="curve"/>
			<point x="78" y="366"/>
			<point x="19" y="292"/>
			<point x="19" y="206" type="curve" smooth="yes"/>
			<point x="19" y="78"/>
			<point x="132" y="-8"/>
		</contour>
		<contour>
			<point x="279" y="112" type="curve" smooth="yes"/>
			<point x="218" y="112"/>
			<point x="177" y="155"/>
			<point x="177" y="218" type="curve"/>
			<point x="177" y="218" type="line"/>
			<point x="177" y="257"/>
			<point x="191" y="292"/>
			<point x="228" y="323" type="curve"/>
			<point x="395" y="145" type="line"/>
			<point x="362" y="124"/>
			<point x="324" y="112"/>
		</contour>
	</outline>
</glyph>
<glyph name="quotesingle" format="2">
	<advance width="243"/>
	<unicode hex="0027"/>
	<note>
		quotesingle
	</note>
	<outline>
		<contour>
			<point x="121" y="451" type="curve" smooth="yes"/>
			<point x="157" y="451"/>
			<point x="170" y="471"/>
			<point x="175" y="507" type="curve" smooth="yes"/>
			<point x="189" y="586" type="line"/>
			<point x="189" y="729" type="line"/>
			<point x="54" y="729" type="line"/>
			<point x="54" y="586" type="line"/>
			<point x="68" y="507" type="line" smooth="yes"/>
			<point x="75" y="471"/>
			<point x="92" y="451"/>
		</contour>
	</outline>
</glyph>
<glyph name="parenleft" format="2">
	<advance width="269"/>
	<unicode hex="0028"/>
	<note>
		parenleft
	</note>
	<outline>
		<contour>
			<point x="162" y="-167" type="curve"/>
			<point x="231" y="-127" type="line" smooth="yes"/>
			<point x="243" y="-119"/>
			<point x="253" y="-110"/>
			<point x="253" y="-94" type="curve" smooth="yes"/>
			<point x="253" y="-86"/>
			<point x="251" y="-77"/>
			<point x="246" y="-68" type="curve" smooth="yes"/>
			<point x="192" y="45"/>
			<point x="159" y="183"/>
			<point x="159" y="313" type="curve" smooth="yes"/>
			<point x="159" y="443"/>
			<point x="189" y="584"/>
			<point x="245" y="695" type="curve" smooth="yes"/>
			<point x="250" y="706"/>
			<point x="253" y="714"/>
			<point x="253" y="721" type="curve" smooth="yes"/>
			<point x="253" y="737"/>
			<point x="243" y="746"/>
			<point x="231" y="753" type="curve" smooth="yes"/>
			<point x="162" y="793" type="line"/>
			<point x="114" y="718"/>
			<point x="80" y="641"/>
			<point x="58" y="561" type="curve" smooth="yes"/>
			<point x="36" y="481"/>
			<point x="25" y="398"/>
			<point x="25" y="313" type="curve" smooth="yes"/>
			<point x="25" y="228"/>
			<point x="36" y="145"/>
			<point x="58" y="66" type="curve" smooth="yes"/>
			<point x="80" y="-14"/>
			<point x="114" y="-92"/>
		</contour>
	</outline>
</glyph>
<glyph name="parenright" format="2">
	<advance width="268"/>
	<unicode hex="0029"/>
	<note>
		parenright
	</note>
	<outline>
		<contour>
			<point x="106" y="-167" type="line"/>
			<point x="154" y="-92"/>
			<point x="189" y="-14"/>
			<point x="211" y="66" type="curve" smooth="yes"/>
			<point x="233" y="145"/>
			<point x="243" y="228"/>
			<point x="243" y="313" type="curve" smooth="yes"/>
			<point x="243" y="398"/>
			<point x="233" y="481"/>
			<point x="211" y="561" type="curve" smooth="yes"/>
			<point x="189" y="641"/>
			<point x="154" y="718"/>
			<point x="106" y="793" type="curve"/>
			<point x="37" y="753" type="line" smooth="yes"/>
			<point x="25" y="746"/>
			<point x="15" y="737"/>
			<point x="15" y="721" type="curve" smooth="yes"/>
			<point x="15" y="714"/>
			<point x="18" y="706"/>
			<point x="23" y="695" type="curve" smooth="yes"/>
			<point x="79" y="584"/>
			<point x="109" y="443"/>
			<point x="109" y="313" type="curve" smooth="yes"/>
			<point x="109" y="183"/>
			<point x="76" y="45"/>
			<point x="22" y="-68" type="curve" smooth="yes"/>
			<point x="17" y="-77"/>
			<point x="15" y="-86"/>
			<point x="15" y="-94" type="curve" smooth="yes"/>
			<point x="15" y="-110"/>
			<point x="25" y="-119"/>
			<point x="37" y="-127" type="curve" smooth="yes"/>
		</contour>
	</outline>
</glyph>
<glyph name="asterisk" format="2">
	<advance width="427"/>
	<unicode hex="002A"/>
	<note>
		asterisk
	</note>
	<outline>
		<contour>
			<point x="177" y="408" type="line"/>
			<point x="250" y="408" type="line"/>
			<point x="250" y="408" type="line"/>
			<point x="250" y="495" type="line" smooth="yes"/>
			<point x="250" y="509"/>
			<point x="248" y="522"/>
			<point x="244" y="534" type="curve"/>
			<point x="253" y="525"/>
			<point x="264" y="517"/>
			<point x="276" y="510" type="curve" smooth="yes"/>
			<point x="349" y="466" type="line"/>
			<point x="385" y="526" type="line"/>
			<point x="312" y="569" type="line" smooth="yes"/>
			<point x="300" y="577"/>
			<point x="286" y="582"/>
			<point x="273" y="585" type="curve"/>
			<point x="286" y="588"/>
			<point x="299" y="593"/>
			<point x="312" y="601" type="curve" smooth="yes"/>
			<point x="385" y="643" type="line"/>
			<point x="349" y="703" type="line"/>
			<point x="276" y="660" type="line" smooth="yes"/>
			<point x="264" y="653"/>
			<point x="253" y="645"/>
			<point x="245" y="636" type="curve"/>
			<point x="249" y="648"/>
			<point x="250" y="661"/>
			<point x="250" y="676" type="curve" smooth="yes"/>
			<point x="250" y="762" type="line"/>
			<point x="177" y="762" type="line"/>
			<point x="177" y="675" type="line" smooth="yes"/>
			<point x="177" y="660"/>
			<point x="179" y="647"/>
			<point x="183" y="636" type="curve"/>
			<point x="175" y="645"/>
			<point x="163" y="653"/>
			<point x="151" y="660" type="curve" smooth="yes"/>
			<point x="78" y="704" type="line"/>
			<point x="42" y="644" type="line"/>
			<point x="115" y="601" type="line" smooth="yes"/>
			<point x="128" y="593"/>
			<point x="141" y="588"/>
			<point x="154" y="585" type="curve"/>
			<point x="141" y="582"/>
			<point x="128" y="577"/>
			<point x="115" y="569" type="curve" smooth="yes"/>
			<point x="42" y="527" type="line"/>
			<point x="78" y="467" type="line"/>
			<point x="151" y="510" type="line" smooth="yes"/>
			<point x="163" y="517"/>
			<point x="174" y="524"/>
			<point x="183" y="533" type="curve"/>
			<point x="179" y="522"/>
			<point x="177" y="507"/>
			<point x="177" y="494" type="curve" smooth="yes"/>
		</contour>
	</outline>
</glyph>
<glyph name="plus" format="2">
	<advance width="583"/>
	<unicode hex="002B"/>
	<note>
		plus
	</note>
	<outline>
		<contour>
			<point x="228" y="590" type="line"/>
			<point x="228" y="392" type="line"/>
			<point x="44" y="392" type="line"/>
			<point x="44" y="281" type="line"/>
			<point x="228" y="281" type="line"/>
			<point x="228" y="82" type="line"/>
			<point x="354" y="82" type="line"/>
			<point x="354" y="281" type="line"/>
			<point x="539" y="281" type="line"/>
			<point x="539" y="392" type="line"/>
			<point x="354" y="392" type="line"/>
			<point x="354" y="590" type="line"/>
			<point x="228" y="590" type="line"/>
		</contour>
	</outline>
</glyph>
<glyph name="comma" format="2">
	<advance width="222"/>
	<unicode hex="002C"/>
	<note>
		comma
	</note>
	<outline>
		<contour>
			<point x="72" y="-148" type="line"/>
			<point x="149" y="-91"/>
			<point x="197" y="-3"/>
			<point x="197" y="69" type="curve" smooth="yes"/>
			<point x="197" y="122"/>
			<point x="168" y="164"/>
			<point x="109" y="164" type="curve" smooth="yes"/>
			<point x="60" y="164"/>
			<point x="25" y="131"/>
			<point x="25" y="88" type="curve" smooth="yes"/>
			<point x="25" y="43"/>
			<point x="56" y="7"/>
			<point x="100" y="3" type="curve" smooth="yes"/>
			<point x="100" y="3"/>
			<point x="101" y="3"/>
			<point x="101" y="3" type="curve"/>
			<point x="94" y="-31"/>
			<point x="62" y="-65"/>
			<point x="46" y="-81" type="curve" smooth="yes"/>
			<point x="39" y="-86"/>
			<point x="34" y="-95"/>
			<point x="34" y="-102" type="curve" smooth="yes"/>
			<point x="34" y="-111"/>
			<point x="38" y="-116"/>
			<point x="45" y="-124" type="curve"/>
		</contour>
	</outline>
</glyph>
<glyph name="slash" format="2">
	<advance width="480"/>
	<unicode hex="002F"/>
	<note>
		slash
	</note>
	<outline>
		<contour>
			<point x="26" y="-50" type="line"/>
			<point x="92" y="-50" type="line" smooth="yes"/>
			<point x="125" y="-50"/>
			<point x="160" y="-30"/>
			<point x="173" y="6" type="curve" smooth="yes"/>
			<point x="454" y="749" type="line"/>
			<point x="388" y="749" type="line" smooth="yes"/>
			<point x="352" y="749"/>
			<point x="323" y="731"/>
			<point x="310" y="696" type="curve" smooth="yes"/>
		</contour>
	</outline>
</glyph>
<glyph name="zero" format="2">
	<advance width="572"/>
	<unicode hex="0030"/>
	<note>
		zero
	</note>
	<outline>
		<contour>
			<point x="555" y="365" type="curve"/>
			<point x="555" y="365" type="line"/>
			<point x="555" y="492"/>
			<point x="526" y="585"/>
			<point x="478" y="646" type="curve" smooth="yes"/>
			<point x="430" y="707"/>
			<point x="361" y="737"/>
			<point x="284" y="737" type="curve" smooth="yes"/>
			<point x="207" y="737"/>
			<point x="140" y="707"/>
			<point x="92" y="646" type="curve" smooth="yes"/>
			<point x="44" y="585"/>
			<point x="15" y="492"/>
			<point x="15" y="365" type="curve" smooth="yes"/>
			<point x="15" y="237"/>
			<point x="44" y="144"/>
			<point x="92" y="83" type="curve" smooth="yes"/>
			<point x="140" y="22"/>
			<point x="207" y="-8"/>
			<point x="284" y="-8" type="curve" smooth="yes"/>
			<point x="361" y="-8"/>
			<point x="430" y="22"/>
			<point x="478" y="83" type="curve" smooth="yes"/>
			<point x="526" y="144"/>
			<point x="555" y="237"/>
		</contour>
		<contour>
			<point x="395" y="365" type="curve"/>
			<point x="395" y="365" type="line"/>
			<point x="395" y="264"/>
			<point x="381" y="202"/>
			<point x="361" y="165" type="curve" smooth="yes"/>
			<point x="340" y="128"/>
			<point x="312" y="117"/>
			<point x="284" y="117" type="curve" smooth="yes"/>
			<point x="257" y="117"/>
			<point x="229" y="128"/>
			<point x="209" y="165" type="curve" smooth="yes"/>
			<point x="189" y="202"/>
			<point x="175" y="264"/>
			<point x="175" y="365" type="curve" smooth="yes"/>
			<point x="175" y="465"/>
			<point x="189" y="528"/>
			<point x="209" y="565" type="curve" smooth="yes"/>
			<point x="229" y="601"/>
			<point x="257" y="612"/>
			<point x="284" y="612" type="curve" smooth="yes"/>
			<point x="312" y="612"/>
			<point x="340" y="601"/>
			<point x="361" y="565" type="curve" smooth="yes"/>
			<point x="381" y="528"/>
			<point x="395" y="465"/>
		</contour>
	</outline>
</glyph>
<glyph name="one" format="2">
	<advance width="571"/>
	<unicode hex="0031"/>
	<note>
		one
	</note>
	<outline>
		<contour>
			<point x="110" y="0" type="line"/>
			<point x="525" y="0" type="line"/>
			<point x="525" y="63" type="line" smooth="yes"/>
			<point x="525" y="84"/>
			<point x="514" y="98"/>
			<point x="493" y="101" type="curve" smooth="yes"/>
			<point x="405" y="114" type="line"/>
			<point x="405" y="729" type="line"/>
			<point x="277" y="729" type="line"/>
			<point x="50" y="539" type="line"/>
			<point x="99" y="474" type="line" smooth="yes"/>
			<point x="106" y="465"/>
			<point x="121" y="456"/>
			<point x="138" y="456" type="curve" smooth="yes"/>
			<point x="147" y="456"/>
			<point x="158" y="459"/>
			<point x="169" y="468" type="curve" smooth="yes"/>
			<point x="252" y="536" type="line"/>
			<point x="251" y="517"/>
			<point x="250" y="498"/>
			<point x="250" y="480" type="curve" smooth="yes"/>
			<point x="250" y="114" type="line"/>
			<point x="143" y="100" type="line" smooth="yes"/>
			<point x="122" y="97"/>
			<point x="110" y="84"/>
			<point x="110" y="63" type="curve" smooth="yes"/>
		</contour>
	</outline>
</glyph>
<glyph name="two" format="2">
	<advance width="601"/>
	<unicode hex="0032"/>
	<note>
		two
	</note>
	<outline>
		<contour>
			<point x="42" y="0" type="line"/>
			<point x="554" y="0" type="line"/>
			<point x="554" y="140" type="line"/>
			<point x="364" y="140" type="line" smooth="yes"/>
			<point x="333" y="140"/>
			<point x="296" y="134"/>
			<point x="260" y="123" type="curve"/>
			<point x="402" y="269" type="line" smooth="yes"/>
			<point x="479" y="348"/>
			<point x="544" y="420"/>
			<point x="544" y="525" type="curve" smooth="yes"/>
			<point x="544" y="652"/>
			<point x="451" y="737"/>
			<point x="310" y="737" type="curve" smooth="yes"/>
			<point x="175" y="737"/>
			<point x="73" y="662"/>
			<point x="52" y="521" type="curve"/>
			<point x="121" y="508"/>
			<point x="143" y="504"/>
			<point x="157" y="504" type="curve" smooth="yes"/>
			<point x="185" y="504"/>
			<point x="199" y="516"/>
			<point x="210" y="547" type="curve" smooth="yes"/>
			<point x="224" y="583"/>
			<point x="258" y="610"/>
			<point x="301" y="610" type="curve" smooth="yes"/>
			<point x="358" y="610"/>
			<point x="385" y="579"/>
			<point x="385" y="520" type="curve" smooth="yes"/>
			<point x="385" y="448"/>
			<point x="345" y="390"/>
			<point x="279" y="323" type="curve" smooth="yes"/>
			<point x="69" y="111" type="line"/>
			<point x="49" y="94"/>
			<point x="42" y="70"/>
			<point x="42" y="50" type="curve" smooth="yes"/>
		</contour>
		<component base="SerifUpLeftLower" xOffset="554" yOffset="140"/>
	</outline>
</glyph>
<glyph name="three" format="2">
	<advance width="575"/>
	<unicode hex="0033"/>
	<note>
		three
	</note>
	<outline>
		<contour>
			<point x="284" y="-8" type="curve" smooth="yes"/>
			<point x="425" y="-8"/>
			<point x="540" y="73"/>
			<point x="540" y="222" type="curve" smooth="yes"/>
			<point x="540" y="303"/>
			<point x="500" y="358"/>
			<point x="419" y="386" type="curve"/>
			<point x="492" y="411"/>
			<point x="527" y="459"/>
			<point x="527" y="548" type="curve" smooth="yes"/>
			<point x="527" y="655"/>
			<point x="436" y="737"/>
			<point x="301" y="737" type="curve" smooth="yes"/>
			<point x="166" y="737"/>
			<point x="64" y="662"/>
			<point x="43" y="521" type="curve"/>
			<point x="114" y="508"/>
			<point x="134" y="504"/>
			<point x="148" y="504" type="curve" smooth="yes"/>
			<point x="176" y="504"/>
			<point x="190" y="516"/>
			<point x="201" y="547" type="curve" smooth="yes"/>
			<point x="215" y="583"/>
			<point x="249" y="610"/>
			<point x="292" y="610" type="curve" smooth="yes"/>
			<point x="349" y="610"/>
			<point x="376" y="578"/>
			<point x="376" y="521" type="curve" smooth="yes"/>
			<point x="376" y="454"/>
			<point x="342" y="426"/>
			<point x="234" y="426" type="curve"/>
			<point x="234" y="319" type="line"/>
			<point x="362" y="319"/>
			<point x="385" y="294"/>
			<point x="385" y="217" type="curve" smooth="yes"/>
			<point x="385" y="164"/>
			<point x="347" y="119"/>
			<point x="282" y="119" type="curve" smooth="yes"/>
			<point x="237" y="119"/>
			<point x="206" y="142"/>
			<point x="175" y="198" type="curve" smooth="yes"/>
			<point x="167" y="214"/>
			<point x="148" y="222"/>
			<point x="127" y="222" type="curve" smooth="yes"/>
			<point x="105" y="222"/>
			<point x="94" y="216"/>
			<point x="23" y="187" type="curve"/>
			<point x="70" y="53"/>
			<point x="145" y="-8"/>
		</contour>
	</outline>
</glyph>
<glyph name="four" format="2">
	<advance width="582"/>
	<unicode hex="0034"/>
	<note>
		four
	</note>
	<outline>
		<contour>
			<point x="358" y="0" type="line"/>
			<point x="493" y="0" type="line"/>
			<point x="493" y="168" type="line"/>
			<point x="538" y="168" type="line" smooth="yes"/>
			<point x="558" y="168"/>
			<point x="568" y="181"/>
			<point x="568" y="196" type="curve" smooth="yes"/>
			<point x="568" y="283" type="line"/>
			<point x="493" y="283" type="line"/>
			<point x="493" y="729" type="line"/>
			<point x="493" y="729" type="line"/>
			<point x="345" y="729" type="line"/>
			<point x="8" y="276" type="line"/>
			<point x="24" y="199" type="line" smooth="yes"/>
			<point x="28" y="182"/>
			<point x="46" y="168"/>
			<point x="65" y="168" type="curve" smooth="yes"/>
			<point x="358" y="168" type="line"/>
		</contour>
		<contour>
			<point x="171" y="283" type="line"/>
			<point x="363" y="553" type="line"/>
			<point x="360" y="524"/>
			<point x="358" y="497"/>
			<point x="358" y="473" type="curve" smooth="yes"/>
			<point x="358" y="283" type="line"/>
		</contour>
	</outline>
</glyph>
<glyph name="five" format="2">
	<advance width="581"/>
	<unicode hex="0035"/>
	<note>
		five
	</note>
	<outline>
		<contour>
			<point x="513" y="729" type="line"/>
			<point x="140" y="729" type="line"/>
			<point x="78" y="364" type="line"/>
			<point x="174" y="338" type="line"/>
			<point x="205" y="351"/>
			<point x="237" y="357"/>
			<point x="270" y="357" type="curve" smooth="yes"/>
			<point x="343" y="357"/>
			<point x="385" y="319"/>
			<point x="385" y="248" type="curve" smooth="yes"/>
			<point x="385" y="173"/>
			<point x="351" y="118"/>
			<point x="270" y="118" type="curve" smooth="yes"/>
			<point x="215" y="118"/>
			<point x="160" y="170"/>
			<point x="124" y="170" type="curve" smooth="yes"/>
			<point x="109" y="170"/>
			<point x="96" y="162"/>
			<point x="85" y="149" type="curve" smooth="yes"/>
			<point x="37" y="85" type="line"/>
			<point x="92" y="33"/>
			<point x="171" y="-8"/>
			<point x="261" y="-8" type="curve" smooth="yes"/>
			<point x="423" y="-8"/>
			<point x="540" y="100"/>
			<point x="540" y="256" type="curve" smooth="yes"/>
			<point x="540" y="385"/>
			<point x="453" y="479"/>
			<point x="304" y="479" type="curve" smooth="yes"/>
			<point x="280" y="479"/>
			<point x="255" y="477"/>
			<point x="228" y="472" type="curve"/>
			<point x="248" y="593" type="line"/>
			<point x="422" y="593" type="line" smooth="yes"/>
			<point x="482" y="593"/>
			<point x="513" y="617"/>
			<point x="513" y="665" type="curve" smooth="yes"/>
			<point x="513" y="729" type="line"/>
		</contour>
	</outline>
</glyph>
<glyph name="six" format="2">
	<advance width="560"/>
	<unicode hex="0036"/>
	<note>
		six
	</note>
	<outline>
		<contour>
			<point x="279" y="-8" type="curve" smooth="yes"/>
			<point x="434" y="-8"/>
			<point x="544" y="102"/>
			<point x="544" y="243" type="curve" smooth="yes"/>
			<point x="544" y="384"/>
			<point x="445" y="462"/>
			<point x="329" y="462" type="curve" smooth="yes"/>
			<point x="300" y="462"/>
			<point x="275" y="457"/>
			<point x="251" y="448" type="curve"/>
			<point x="254" y="451"/>
			<point x="268" y="469"/>
			<point x="270" y="471" type="curve" smooth="yes"/>
			<point x="486" y="729" type="line"/>
			<point x="348" y="729" type="line" smooth="yes"/>
			<point x="311" y="729"/>
			<point x="280" y="713"/>
			<point x="265" y="693" type="curve" smooth="yes"/>
			<point x="101" y="472" type="line" smooth="yes"/>
			<point x="46" y="397"/>
			<point x="18" y="326"/>
			<point x="18" y="253" type="curve" smooth="yes"/>
			<point x="18" y="99"/>
			<point x="119" y="-8"/>
		</contour>
		<contour>
			<point x="276" y="115" type="curve" smooth="yes"/>
			<point x="203" y="115"/>
			<point x="167" y="159"/>
			<point x="167" y="232" type="curve" smooth="yes"/>
			<point x="167" y="301"/>
			<point x="211" y="350"/>
			<point x="274" y="350" type="curve" smooth="yes"/>
			<point x="345" y="350"/>
			<point x="389" y="305"/>
			<point x="389" y="232" type="curve" smooth="yes"/>
			<point x="389" y="166"/>
			<point x="341" y="115"/>
		</contour>
	</outline>
</glyph>
<glyph name="seven" format="2">
	<advance width="563"/>
	<unicode hex="0037"/>
	<note>
		seven
	</note>
	<outline>
		<contour>
			<point x="78" y="0" type="line"/>
			<point x="191" y="0" type="line" smooth="yes"/>
			<point x="234" y="0"/>
			<point x="259" y="23"/>
			<point x="272" y="51" type="curve" smooth="yes"/>
			<point x="527" y="590" type="line" smooth="yes"/>
			<point x="534" y="606"/>
			<point x="544" y="627"/>
			<point x="544" y="664" type="curve" smooth="yes"/>
			<point x="544" y="729" type="line"/>
			<point x="32" y="729" type="line"/>
			<point x="32" y="627" type="line" smooth="yes"/>
			<point x="32" y="608"/>
			<point x="50" y="593"/>
			<point x="67" y="593" type="curve" smooth="yes"/>
			<point x="388" y="593" type="line"/>
			<point x="368" y="572"/>
			<point x="352" y="550"/>
			<point x="338" y="522" type="curve" smooth="yes"/>
		</contour>
		<contour>
			<point x="32" y="565" type="line"/>
			<point x="85" y="565" type="line"/>
			<point x="85" y="635" type="line"/>
			<point x="32" y="635" type="line"/>
		</contour>
		<component base="SerifUpLeftCaps" xScale="-1" yScale="-1" xOffset="32" yOffset="593"/>
	</outline>
</glyph>
<glyph name="eight" format="2">
	<advance width="555"/>
	<unicode hex="0038"/>
	<note>
		eight
	</note>
	<outline>
		<contour>
			<point x="277" y="-8" type="curve"/>
			<point x="429" y="-8"/>
			<point x="537" y="75"/>
			<point x="537" y="209" type="curve" smooth="yes"/>
			<point x="537" y="291"/>
			<point x="499" y="349"/>
			<point x="415" y="380" type="curve"/>
			<point x="480" y="409"/>
			<point x="513" y="463"/>
			<point x="513" y="538" type="curve" smooth="yes"/>
			<point x="513" y="653"/>
			<point x="410" y="737"/>
			<point x="277" y="737" type="curve" smooth="yes"/>
			<point x="144" y="737"/>
			<point x="41" y="653"/>
			<point x="41" y="538" type="curve" smooth="yes"/>
			<point x="41" y="463"/>
			<point x="73" y="409"/>
			<point x="140" y="380" type="curve"/>
			<point x="55" y="349"/>
			<point x="17" y="291"/>
			<point x="17" y="209" type="curve" smooth="yes"/>
			<point x="17" y="75"/>
			<point x="127" y="-8"/>
		</contour>
		<contour>
			<point x="277" y="109" type="curve"/>
			<point x="211" y="109"/>
			<point x="177" y="151"/>
			<point x="177" y="212" type="curve" smooth="yes"/>
			<point x="177" y="278"/>
			<point x="205" y="317"/>
			<point x="277" y="317" type="curve" smooth="yes"/>
			<point x="350" y="317"/>
			<point x="377" y="278"/>
			<point x="377" y="212" type="curve" smooth="yes"/>
			<point x="377" y="152"/>
			<point x="345" y="109"/>
		</contour>
		<contour>
			<point x="277" y="435" type="curve"/>
			<point x="212" y="435"/>
			<point x="192" y="480"/>
			<point x="192" y="535" type="curve" smooth="yes"/>
			<point x="192" y="584"/>
			<point x="219" y="624"/>
			<point x="277" y="624" type="curve" smooth="yes"/>
			<point x="336" y="624"/>
			<point x="362" y="585"/>
			<point x="362" y="535" type="curve" smooth="yes"/>
			<point x="362" y="480"/>
			<point x="342" y="435"/>
		</contour>
	</outline>
</glyph>
<glyph name="nine" format="2">
	<advance width="541"/>
	<unicode hex="0039"/>
	<note>
		nine
	</note>
	<outline>
		<contour>
			<point x="63" y="0" type="line"/>
			<point x="206" y="0" type="line" smooth="yes"/>
			<point x="242" y="0"/>
			<point x="273" y="15"/>
			<point x="286" y="35" type="curve" smooth="yes"/>
			<point x="443" y="258" type="line" smooth="yes"/>
			<point x="492" y="326"/>
			<point x="522" y="401"/>
			<point x="522" y="492" type="curve" smooth="yes"/>
			<point x="522" y="638"/>
			<point x="426" y="737"/>
			<point x="271" y="737" type="curve" smooth="yes"/>
			<point x="122" y="737"/>
			<point x="15" y="629"/>
			<point x="15" y="495" type="curve" smooth="yes"/>
			<point x="15" y="362"/>
			<point x="112" y="284"/>
			<point x="215" y="284" type="curve" smooth="yes"/>
			<point x="254" y="284"/>
			<point x="289" y="292"/>
			<point x="320" y="308" type="curve"/>
			<point x="316" y="303"/>
			<point x="312" y="298"/>
			<point x="308" y="293" type="curve" smooth="yes"/>
		</contour>
		<contour>
			<point x="271" y="397" type="curve" smooth="yes"/>
			<point x="204" y="397"/>
			<point x="170" y="433"/>
			<point x="170" y="506" type="curve" smooth="yes"/>
			<point x="170" y="569"/>
			<point x="208" y="614"/>
			<point x="269" y="614" type="curve" smooth="yes"/>
			<point x="333" y="614"/>
			<point x="374" y="575"/>
			<point x="374" y="506" type="curve" smooth="yes"/>
			<point x="374" y="441"/>
			<point x="338" y="397"/>
		</contour>
	</outline>
</glyph>
<glyph name="colon" format="2">
	<advance width="226"/>
	<unicode hex="003A"/>
	<note>
		colon
	</note>
	<outline>
		<contour>
			<point x="25" y="79" type="curve"/>
			<point x="25" y="79" type="line"/>
			<point x="25" y="30"/>
			<point x="64" y="-7"/>
			<point x="113" y="-7" type="curve" smooth="yes"/>
			<point x="164" y="-7"/>
			<point x="201" y="30"/>
			<point x="201" y="79" type="curve" smooth="yes"/>
			<point x="201" y="127"/>
			<point x="163" y="164"/>
			<point x="113" y="164" type="curve" smooth="yes"/>
			<point x="64" y="164"/>
			<point x="25" y="127"/>
		</contour>
		<contour>
			<point x="25" y="420" type="curve"/>
			<point x="25" y="420" type="line"/>
			<point x="25" y="372"/>
			<point x="64" y="335"/>
			<point x="113" y="335" type="curve" smooth="yes"/>
			<point x="163" y="335"/>
			<point x="201" y="372"/>
			<point x="201" y="420" type="curve" smooth="yes"/>
			<point x="201" y="467"/>
			<point x="163" y="506"/>
			<point x="113" y="506" type="curve" smooth="yes"/>
			<point x="64" y="506"/>
			<point x="25" y="467"/>
		</contour>
	</outline>
</glyph>
<glyph name="semicolon" format="2">
	<advance width="231"/>
	<unicode hex="003B"/>
	<note>
		semicolon
	</note>
	<outline>
		<contour>
			<point x="118" y="335" type="curve" smooth="yes"/>
			<point x="168" y="335"/>
			<point x="206" y="372"/>
			<point x="206" y="420" type="curve" smooth="yes"/>
			<point x="206" y="467"/>
			<point x="168" y="506"/>
			<point x="118" y="506" type="curve" smooth="yes"/>
			<point x="69" y="506"/>
			<point x="30" y="467"/>
			<point x="30" y="420" type="curve" smooth="yes"/>
			<point x="30" y="372"/>
			<point x="69" y="335"/>
		</contour>
		<component base="comma"/>
	</outline>
</glyph>
<glyph name="less" format="2">
	<advance width="502"/>
	<unicode hex="003C"/>
	<note>
		less
	</note>
	<outline>
		<contour>
			<point x="31" y="307" type="line"/>
			<point x="436" y="96" type="line"/>
			<point x="436" y="203" type="line" smooth="yes"/>
			<point x="436" y="219"/>
			<point x="428" y="232"/>
			<point x="411" y="241" type="curve" smooth="yes"/>
			<point x="269" y="318" type="line" smooth="yes"/>
			<point x="252" y="327"/>
			<point x="232" y="332"/>
			<point x="211" y="337" type="curve"/>
			<point x="232" y="342"/>
			<point x="252" y="349"/>
			<point x="269" y="358" type="curve" smooth="yes"/>
			<point x="411" y="434" type="line" smooth="yes"/>
			<point x="428" y="443"/>
			<point x="436" y="457"/>
			<point x="436" y="472" type="curve" smooth="yes"/>
			<point x="436" y="580" type="line"/>
			<point x="31" y="368" type="line"/>
			<point x="31" y="307" type="line"/>
		</contour>
	</outline>
</glyph>
<glyph name="equal" format="2">
	<advance width="565"/>
	<unicode hex="003D"/>
	<note>
		equal
	</note>
	<outline>
		<contour>
			<point x="55" y="189" type="line"/>
			<point x="510" y="189" type="line"/>
			<point x="510" y="300" type="line"/>
			<point x="55" y="300" type="line"/>
			<point x="55" y="189" type="line"/>
		</contour>
		<contour>
			<point x="55" y="372" type="line"/>
			<point x="510" y="372" type="line"/>
			<point x="510" y="483" type="line"/>
			<point x="55" y="483" type="line"/>
			<point x="55" y="372" type="line"/>
		</contour>
	</outline>
</glyph>
<glyph name="question" format="2">
	<advance width="472"/>
	<unicode hex="003F"/>
	<note>
		question
	</note>
	<outline>
		<contour>
			<point x="154" y="259" type="line"/>
			<point x="260" y="259" type="line"/>
			<point x="274" y="329" type="line" smooth="yes"/>
			<point x="280" y="358"/>
			<point x="324" y="386"/>
			<point x="357" y="411" type="curve" smooth="yes"/>
			<point x="398" y="441"/>
			<point x="429" y="491"/>
			<point x="429" y="560" type="curve" smooth="yes"/>
			<point x="429" y="670"/>
			<point x="347" y="737"/>
			<point x="225" y="737" type="curve" smooth="yes"/>
			<point x="142" y="737"/>
			<point x="73" y="705"/>
			<point x="22" y="662" type="curve"/>
			<point x="63" y="599" type="line" smooth="yes"/>
			<point x="70" y="587"/>
			<point x="81" y="581"/>
			<point x="95" y="581" type="curve" smooth="yes"/>
			<point x="115" y="581"/>
			<point x="171" y="616"/>
			<point x="211" y="616" type="curve" smooth="yes"/>
			<point x="258" y="616"/>
			<point x="285" y="591"/>
			<point x="285" y="551" type="curve" smooth="yes"/>
			<point x="285" y="503"/>
			<point x="250" y="473"/>
			<point x="214" y="447" type="curve" smooth="yes"/>
			<point x="178" y="422"/>
			<point x="142" y="394"/>
			<point x="142" y="352" type="curve" smooth="yes"/>
			<point x="142" y="351"/>
			<point x="143" y="342"/>
			<point x="143" y="340" type="curve" smooth="yes"/>
		</contour>
		<component base="period" xOffset="84"/>
	</outline>
</glyph>
<glyph name="at" format="2">
	<advance width="807"/>
	<unicode hex="0040"/>
	<note>
		at
	</note>
	<outline>
		<contour>
			<point x="447" y="-121" type="curve" smooth="yes"/>
			<point x="560" y="-121"/>
			<point x="659" y="-92"/>
			<point x="730" y="-44" type="curve"/>
			<point x="709" y="10" type="line" smooth="yes"/>
			<point x="704" y="23"/>
			<point x="696" y="29"/>
			<point x="685" y="29" type="curve" smooth="yes"/>
			<point x="678" y="29"/>
			<point x="671" y="27"/>
			<point x="664" y="23" type="curve" smooth="yes"/>
			<point x="618" y="-5"/>
			<point x="539" y="-25"/>
			<point x="447" y="-25" type="curve" smooth="yes"/>
			<point x="356" y="-25"/>
			<point x="275" y="3"/>
			<point x="219" y="57" type="curve" smooth="yes"/>
			<point x="162" y="111"/>
			<point x="127" y="191"/>
			<point x="127" y="298" type="curve" smooth="yes"/>
			<point x="127" y="385"/>
			<point x="160" y="464"/>
			<point x="215" y="519" type="curve" smooth="yes"/>
			<point x="267" y="572"/>
			<point x="338" y="604"/>
			<point x="421" y="604" type="curve" smooth="yes"/>
			<point x="519" y="604"/>
			<point x="596" y="570"/>
			<point x="640" y="505" type="curve" smooth="yes"/>
			<point x="667" y="465"/>
			<point x="682" y="413"/>
			<point x="682" y="351" type="curve" smooth="yes"/>
			<point x="682" y="265"/>
			<point x="649" y="183"/>
			<point x="596" y="183" type="curve" smooth="yes"/>
			<point x="571" y="183"/>
			<point x="555" y="194"/>
			<point x="555" y="227" type="curve" smooth="yes"/>
			<point x="555" y="239"/>
			<point x="557" y="255"/>
			<point x="562" y="274" type="curve" smooth="yes"/>
			<point x="611" y="464" type="line"/>
			<point x="576" y="479"/>
			<point x="530" y="489"/>
			<point x="480" y="489" type="curve" smooth="yes"/>
			<point x="327" y="489"/>
			<point x="209" y="387"/>
			<point x="209" y="242" type="curve" smooth="yes"/>
			<point x="209" y="154"/>
			<point x="255" y="92"/>
			<point x="340" y="92" type="curve" smooth="yes"/>
			<point x="391" y="92"/>
			<point x="433" y="109"/>
			<point x="473" y="153" type="curve"/>
			<point x="488" y="110"/>
			<point x="531" y="91"/>
			<point x="573" y="91" type="curve" smooth="yes"/>
			<point x="703" y="91"/>
			<point x="792" y="211"/>
			<point x="792" y="351" type="curve" smooth="yes"/>
			<point x="792" y="422"/>
			<point x="772" y="484"/>
			<point x="739" y="536" type="curve" smooth="yes"/>
			<point x="672" y="640"/>
			<point x="548" y="700"/>
			<point x="421" y="700" type="curve" smooth="yes"/>
			<point x="344" y="700"/>
			<point x="273" y="679"/>
			<point x="213" y="643" type="curve" smooth="yes"/>
			<point x="93" y="569"/>
			<point x="15" y="437"/>
			<point x="15" y="298" type="curve" smooth="yes"/>
			<point x="15" y="170"/>
			<point x="61" y="65"/>
			<point x="138" y="-8" type="curve" smooth="yes"/>
			<point x="214" y="-81"/>
			<point x="322" y="-121"/>
		</contour>
		<contour>
			<point x="371" y="187" type="curve"/>
			<point x="344" y="187"/>
			<point x="328" y="206"/>
			<point x="328" y="246" type="curve" smooth="yes"/>
			<point x="328" y="325"/>
			<point x="386" y="396"/>
			<point x="454" y="396" type="curve" smooth="yes"/>
			<point x="462" y="396"/>
			<point x="470" y="395"/>
			<point x="478" y="394" type="curve"/>
			<point x="443" y="258" type="line" smooth="yes"/>
			<point x="431" y="210"/>
			<point x="405" y="187"/>
		</contour>
	</outline>
</glyph>
<glyph name="A" format="2">
	<advance width="813"/>
	<unicode hex="0041"/>
	<anchor x="645" y="2" name="ogonek"/>
	<anchor x="407" y="0" name="bottom"/>
	<anchor x="407" y="729" name="top"/>
	<note>
		A
	</note>
	<outline>
		<contour>
			<point x="38" y="0" type="line"/>
			<point x="170" y="0" type="line" smooth="yes"/>
			<point x="198" y="0"/>
			<point x="218" y="18"/>
			<point x="225" y="37" type="curve"/>
			<point x="374" y="477" type="line" smooth="yes"/>
			<point x="385" y="510"/>
			<point x="396" y="537"/>
			<point x="407" y="579" type="curve"/>
			<point x="417" y="538"/>
			<point x="429" y="507"/>
			<point x="439" y="478" type="curve" smooth="yes"/>
			<point x="588" y="37" type="line" smooth="yes"/>
			<point x="595" y="16"/>
			<point x="614" y="0"/>
			<point x="644" y="0" type="curve" smooth="yes"/>
			<point x="775" y="0" type="line"/>
			<point x="493" y="729" type="line"/>
			<point x="320" y="729" type="line"/>
		</contour>
		<contour>
			<point x="138" y="0" type="line"/>
			<point x="260" y="0" type="line"/>
			<point x="260" y="71" type="line"/>
			<point x="138" y="71" type="line"/>
		</contour>
		<contour>
			<point x="228" y="190" type="line"/>
			<point x="574" y="190" type="line"/>
			<point x="564" y="305" type="line"/>
			<point x="238" y="305" type="line"/>
		</contour>
		<contour>
			<point x="533" y="0" type="line"/>
			<point x="665" y="0" type="line"/>
			<point x="665" y="71" type="line"/>
			<point x="533" y="71" type="line"/>
		</contour>
		<component base="SerifBottomLeft" xOffset="85"/>
		<component base="SerifBottomRight" xOffset="242"/>
		<component base="SerifBottomLeft" xOffset="571"/>
		<component base="SerifBottomRight" xOffset="728"/>
	</outline>
</glyph>
<glyph name="B" format="2">
	<advance width="685"/>
	<unicode hex="0042"/>
	<anchor x="343" y="749" name="top"/>
	<anchor x="343" y="0" name="bottom"/>
	<note>
		B
	</note>
	<outline>
		<contour>
			<point x="97" y="0" type="line"/>
			<point x="388" y="0" type="line" smooth="yes"/>
			<point x="554" y="0"/>
			<point x="661" y="87"/>
			<point x="661" y="220" type="curve" smooth="yes"/>
			<point x="661" y="301"/>
			<point x="616" y="354"/>
			<point x="520" y="377" type="curve"/>
			<point x="603" y="407"/>
			<point x="644" y="462"/>
			<point x="644" y="532" type="curve" smooth="yes"/>
			<point x="644" y="678"/>
			<point x="533" y="729"/>
			<point x="365" y="729" type="curve" smooth="yes"/>
			<point x="97" y="729" type="line"/>
		</contour>
		<contour>
			<point x="266" y="128" type="line"/>
			<point x="266" y="309" type="line"/>
			<point x="384" y="309" type="line" smooth="yes"/>
			<point x="463" y="309"/>
			<point x="494" y="281"/>
			<point x="494" y="223" type="curve" smooth="yes"/>
			<point x="494" y="169"/>
			<point x="466" y="128"/>
			<point x="385" y="128" type="curve" smooth="yes"/>
		</contour>
		<contour>
			<point x="266" y="422" type="line"/>
			<point x="266" y="602" type="line"/>
			<point x="365" y="602" type="line" smooth="yes"/>
			<point x="440" y="602"/>
			<point x="475" y="581"/>
			<point x="475" y="512" type="curve" smooth="yes"/>
			<point x="475" y="441"/>
			<point x="431" y="422"/>
			<point x="354" y="422" type="curve" smooth="yes"/>
		</contour>
		<component base="SerifBottomLeft" xOffset="97"/>
		<component base="SerifSpurLeft" xOffset="127" yOffset="729"/>
	</outline>
</glyph>
<glyph name="C" format="2">
	<advance width="668"/>
	<unicode hex="0043"/>
	<anchor x="369" y="729" name="top"/>
	<anchor x="379" y="0" name="bottom"/>
	<note>
		C
	</note>
	<outline>
		<contour>
			<point x="374" y="-8" type="curve" smooth="yes"/>
			<point x="487" y="-8"/>
			<point x="578" y="31"/>
			<point x="637" y="108" type="curve"/>
			<point x="570" y="179" type="line" smooth="yes"/>
			<point x="563" y="186"/>
			<point x="555" y="189"/>
			<point x="547" y="189" type="curve" smooth="yes"/>
			<point x="536" y="189"/>
			<point x="526" y="183"/>
			<point x="519" y="177" type="curve" smooth="yes"/>
			<point x="482" y="145"/>
			<point x="438" y="131"/>
			<point x="390" y="131" type="curve" smooth="yes"/>
			<point x="263" y="131"/>
			<point x="188" y="227"/>
			<point x="188" y="365" type="curve" smooth="yes"/>
			<point x="188" y="504"/>
			<point x="265" y="597"/>
			<point x="406" y="597" type="curve" smooth="yes"/>
			<point x="455" y="597"/>
			<point x="525" y="586"/>
			<point x="564" y="561" type="curve"/>
			<point x="630" y="578" type="line"/>
			<point x="630" y="679" type="line"/>
			<point x="577" y="707"/>
			<point x="496" y="738"/>
			<point x="398" y="738" type="curve" smooth="yes"/>
			<point x="289" y="738"/>
			<point x="189" y="699"/>
			<point x="121" y="632" type="curve" smooth="yes"/>
			<point x="54" y="567"/>
			<point x="15" y="473"/>
			<point x="15" y="362" type="curve" smooth="yes"/>
			<point x="15" y="254"/>
			<point x="52" y="159"/>
			<point x="114" y="94" type="curve" smooth="yes"/>
			<point x="173" y="32"/>
			<point x="260" y="-8"/>
		</contour>
		<component base="SerifUpRightCaps" xScale="-1" yScale="-1" xOffset="630" yOffset="578"/>
	</outline>
</glyph>
<glyph name="D" format="2">
	<advance width="773"/>
	<unicode hex="0044"/>
	<anchor x="184" y="364" name="center"/>
	<anchor x="353" y="0" name="bottom"/>
	<anchor x="367" y="729" name="top"/>
	<note>
		D
	</note>
	<outline>
		<contour>
			<point x="97" y="0" type="line"/>
			<point x="380" y="0" type="line" smooth="yes"/>
			<point x="493" y="0"/>
			<point x="589" y="39"/>
			<point x="655" y="104" type="curve" smooth="yes"/>
			<point x="721" y="168"/>
			<point x="758" y="260"/>
			<point x="758" y="365" type="curve" smooth="yes"/>
			<point x="758" y="469"/>
			<point x="721" y="561"/>
			<point x="655" y="626" type="curve" smooth="yes"/>
			<point x="589" y="690"/>
			<point x="493" y="729"/>
			<point x="380" y="729" type="curve" smooth="yes"/>
			<point x="97" y="729" type="line"/>
		</contour>
		<contour>
			<point x="267" y="130" type="line"/>
			<point x="267" y="599" type="line"/>
			<point x="380" y="599" type="line" smooth="yes"/>
			<point x="511" y="599"/>
			<point x="585" y="506"/>
			<point x="585" y="365" type="curve" smooth="yes"/>
			<point x="585" y="223"/>
			<point x="511" y="130"/>
			<point x="380" y="130" type="curve" smooth="yes"/>
		</contour>
		<component base="SerifBottomLeft" xOffset="97"/>
		<component base="SerifSpurLeft" xOffset="127" yOffset="729"/>
	</outline>
</glyph>
<glyph name="E" format="2">
	<advance width="599"/>
	<unicode hex="0045"/>
	<anchor x="436" y="3" name="ogonek"/>
	<anchor x="303" y="0" name="bottom"/>
	<anchor x="303" y="729" name="top"/>
	<note>
		E
	</note>
	<outline>
		<contour>
			<point x="97" y="0" type="line"/>
			<point x="566" y="0" type="line"/>
			<point x="566" y="130" type="line"/>
			<point x="267" y="130" type="line"/>
			<point x="267" y="304" type="line"/>
			<point x="491" y="304" type="line"/>
			<point x="491" y="429" type="line"/>
			<point x="267" y="429" type="line"/>
			<point x="267" y="599" type="line"/>
			<point x="566" y="599" type="line"/>
			<point x="566" y="729" type="line"/>
			<point x="97" y="729" type="line"/>
		</contour>
		<component base="SerifUpLeftCaps" xOffset="566" yOffset="130"/>
		<component base="SerifUpRightCaps" xScale="-1" yScale="-1" xOffset="566" yOffset="599"/>
		<component base="SerifSpurLeft" xOffset="128" yOffset="729"/>
		<component base="SerifBottomLeft" xOffset="97"/>
	</outline>
</glyph>
<glyph name="F" format="2">
	<advance width="597"/>
	<unicode hex="0046"/>
	<note>
		F
	</note>
	<outline>
		<contour>
			<point x="97" y="0" type="line"/>
			<point x="267" y="0" type="line"/>
			<point x="267" y="284" type="line"/>
			<point x="516" y="284" type="line"/>
			<point x="516" y="414" type="line"/>
			<point x="267" y="414" type="line"/>
			<point x="267" y="599" type="line"/>
			<point x="566" y="599" type="line"/>
			<point x="566" y="729" type="line"/>
			<point x="97" y="729" type="line"/>
		</contour>
		<component base="SerifUpRightCaps" xScale="-1" yScale="-1" xOffset="566" yOffset="599"/>
		<component base="SerifSpurLeft" xOffset="127" yOffset="729"/>
		<component base="SerifBottomLeft" xOffset="97"/>
		<component base="SerifBottomRight" xOffset="267"/>
	</outline>
</glyph>
<glyph name="G" format="2">
	<advance width="732"/>
	<unicode hex="0047"/>
	<anchor x="380" y="729" name="top"/>
	<anchor x="393" y="0" name="bottom"/>
	<note>
		G
	</note>
	<outline>
		<contour>
			<point x="387" y="-8" type="curve" smooth="yes"/>
			<point x="502" y="-8"/>
			<point x="587" y="14"/>
			<point x="666" y="70" type="curve"/>
			<point x="666" y="378" type="line"/>
			<point x="407" y="378" type="line"/>
			<point x="407" y="285" type="line" smooth="yes"/>
			<point x="407" y="268"/>
			<point x="420" y="255"/>
			<point x="441" y="255" type="curve" smooth="yes"/>
			<point x="513" y="255" type="line"/>
			<point x="513" y="144" type="line"/>
			<point x="481" y="131"/>
			<point x="447" y="122"/>
			<point x="400" y="122" type="curve" smooth="yes"/>
			<point x="273" y="122"/>
			<point x="188" y="218"/>
			<point x="188" y="365" type="curve" smooth="yes"/>
			<point x="188" y="502"/>
			<point x="266" y="597"/>
			<point x="394" y="597" type="curve" smooth="yes"/>
			<point x="460" y="597"/>
			<point x="534" y="589"/>
			<point x="587" y="561" type="curve"/>
			<point x="662" y="578" type="line"/>
			<point x="662" y="679" type="line"/>
			<point x="579" y="716"/>
			<point x="514" y="737"/>
			<point x="400" y="737" type="curve" smooth="yes"/>
			<point x="283" y="737"/>
			<point x="187" y="699"/>
			<point x="120" y="633" type="curve" smooth="yes"/>
			<point x="52" y="567"/>
			<point x="15" y="473"/>
			<point x="15" y="365" type="curve" smooth="yes"/>
			<point x="15" y="258"/>
			<point x="56" y="165"/>
			<point x="122" y="99" type="curve" smooth="yes"/>
			<point x="188" y="33"/>
			<point x="280" y="-8"/>
		</contour>
		<component base="SerifUpRightCaps" xScale="-1" yScale="-1" xOffset="662" yOffset="578"/>
	</outline>
</glyph>
<glyph name="H" format="2">
	<advance width="830"/>
	<unicode hex="0048"/>
	<anchor x="415" y="368" name="center"/>
	<anchor x="415" y="729" name="top"/>
	<anchor x="30" y="729" name="topleft"/>
	<anchor x="415" y="0" name="bottom"/>
	<note>
		H
	</note>
	<outline>
		<contour>
			<point x="97" y="0" type="line"/>
			<point x="267" y="0" type="line"/>
			<point x="267" y="308" type="line"/>
			<point x="563" y="308" type="line"/>
			<point x="563" y="0" type="line"/>
			<point x="733" y="0" type="line"/>
			<point x="733" y="729" type="line"/>
			<point x="563" y="729" type="line"/>
			<point x="563" y="424" type="line"/>
			<point x="267" y="424" type="line"/>
			<point x="267" y="729" type="line"/>
			<point x="97" y="729" type="line"/>
		</contour>
		<component base="SerifBottomLeft" xOffset="97"/>
		<component base="SerifBottomRight" xOffset="267"/>
		<component base="SerifSpurLeft" xOffset="127" yOffset="729"/>
		<component base="SerifSpurRight" xOffset="267" yOffset="729"/>
		<component base="SerifBottomLeft" xOffset="563"/>
		<component base="SerifBottomRight" xOffset="733"/>
		<component base="SerifSpurLeft" xOffset="593" yOffset="729"/>
		<component base="SerifSpurRight" xOffset="733" yOffset="729"/>
	</outline>
</glyph>
<glyph name="I" format="2">
	<advance width="364"/>
	<unicode hex="0049"/>
	<anchor x="174" y="2" name="ogonek"/>
	<anchor x="182" y="0" name="bottom"/>
	<anchor x="182" y="729" name="top"/>
	<note>
		I
	</note>
	<outline>
		<contour>
			<point x="97" y="0" type="line"/>
			<point x="267" y="0" type="line"/>
			<point x="267" y="729" type="line"/>
			<point x="97" y="729" type="line"/>
		</contour>
		<component base="SerifBottomLeft" xOffset="97"/>
		<component base="SerifBottomRight" xOffset="267"/>
		<component base="SerifSpurLeft" xOffset="127" yOffset="729"/>
		<component base="SerifSpurRight" xOffset="267" yOffset="729"/>
	</outline>
</glyph>
<glyph name="J" format="2">
	<advance width="460"/>
	<unicode hex="004A"/>
	<anchor x="279" y="729" name="top"/>
	<note>
		J
	</note>
	<outline>
		<contour>
			<point x="111" y="-8" type="curve" smooth="yes"/>
			<point x="283" y="-8"/>
			<point x="364" y="101"/>
			<point x="364" y="264" type="curve" smooth="yes"/>
			<point x="364" y="729" type="line"/>
			<point x="194" y="729" type="line"/>
			<point x="194" y="261" type="line" smooth="yes"/>
			<point x="194" y="164"/>
			<point x="167" y="127"/>
			<point x="90" y="127" type="curve" smooth="yes"/>
			<point x="88" y="127"/>
			<point x="83" y="127"/>
			<point x="68" y="130" type="curve" smooth="yes"/>
			<point x="52" y="133"/>
			<point x="52" y="133"/>
			<point x="46" y="133" type="curve" smooth="yes"/>
			<point x="25" y="133"/>
			<point x="12" y="123"/>
			<point x="10" y="104" type="curve" smooth="yes"/>
			<point x="1" y="5" type="line"/>
			<point x="41" y="-4"/>
			<point x="75" y="-8"/>
		</contour>
		<component base="SerifSpurLeft" xOffset="224" yOffset="729"/>
		<component base="SerifSpurRight" xOffset="364" yOffset="729"/>
	</outline>
</glyph>
<glyph name="K" format="2">
	<advance width="759"/>
	<unicode hex="004B"/>
	<anchor x="379" y="729" name="top"/>
	<anchor x="379" y="0" name="bottom"/>
	<note>
		K
	</note>
	<outline>
		<contour>
			<point x="97" y="0" type="line"/>
			<point x="267" y="0" type="line"/>
			<point x="267" y="310" type="line"/>
			<point x="308" y="310" type="line" smooth="yes"/>
			<point x="340" y="310"/>
			<point x="356" y="304"/>
			<point x="368" y="285" type="curve" smooth="yes"/>
			<point x="533" y="31" type="line" smooth="yes"/>
			<point x="548" y="9"/>
			<point x="563" y="0"/>
			<point x="599" y="0" type="curve" smooth="yes"/>
			<point x="750" y="0" type="line"/>
			<point x="530" y="338" type="line" smooth="yes"/>
			<point x="512" y="366"/>
			<point x="492" y="381"/>
			<point x="467" y="390" type="curve"/>
			<point x="484" y="399"/>
			<point x="501" y="413"/>
			<point x="516" y="434" type="curve" smooth="yes"/>
			<point x="732" y="729" type="line"/>
			<point x="585" y="729" type="line" smooth="yes"/>
			<point x="552" y="729"/>
			<point x="530" y="722"/>
			<point x="512" y="695" type="curve" smooth="yes"/>
			<point x="348" y="457" type="line" smooth="yes"/>
			<point x="337" y="442"/>
			<point x="319" y="434"/>
			<point x="294" y="434" type="curve" smooth="yes"/>
			<point x="267" y="434" type="line"/>
			<point x="267" y="729" type="line"/>
			<point x="97" y="729" type="line"/>
		</contour>
		<contour>
			<point x="615" y="604" type="line"/>
			<point x="654" y="612" type="line"/>
			<point x="677" y="729" type="line"/>
			<point x="506" y="729" type="line"/>
			<point x="506" y="688" type="line"/>
		</contour>
		<contour>
			<point x="654" y="0" type="line"/>
			<point x="673" y="117" type="line"/>
			<point x="598" y="131" type="line"/>
		</contour>
		<component base="SerifBottomLeft" xOffset="97"/>
		<component base="SerifBottomRight" xOffset="267"/>
		<component base="SerifSpurLeft" xOffset="127" yOffset="729"/>
		<component base="SerifSpurRight" xOffset="267" yOffset="729"/>
		<component base="SerifBottomRight" xOffset="674"/>
		<component base="SerifSpurRight" xOffset="655" yOffset="729"/>
		<component base="SerifSpurLeft" xOffset="530" yOffset="729"/>
	</outline>
</glyph>
<glyph name="L" format="2">
	<advance width="557"/>
	<unicode hex="004C"/>
	<anchor x="180" y="357" name="center"/>
	<anchor x="303" y="0" name="bottom"/>
	<anchor x="189" y="729" name="top"/>
	<note>
		L
	</note>
	<outline>
		<contour>
			<point x="97" y="0" type="line"/>
			<point x="547" y="0" type="line"/>
			<point x="547" y="135" type="line"/>
			<point x="267" y="135" type="line"/>
			<point x="267" y="729" type="line"/>
			<point x="97" y="729" type="line"/>
		</contour>
		<component base="SerifUpLeftCaps" xOffset="547" yOffset="135"/>
		<component base="SerifBottomLeft" xOffset="97"/>
		<component base="SerifSpurLeft" xOffset="127" yOffset="729"/>
		<component base="SerifSpurRight" xOffset="267" yOffset="729"/>
	</outline>
</glyph>
<glyph name="M" format="2">
	<advance width="1013"/>
	<unicode hex="004D"/>
	<anchor x="507" y="749" name="top"/>
	<anchor x="507" y="0" name="bottom"/>
	<note>
		M
	</note>
	<outline>
		<contour>
			<point x="97" y="0" type="line"/>
			<point x="246" y="0" type="line"/>
			<point x="246" y="419" type="line" smooth="yes"/>
			<point x="246" y="439"/>
			<point x="245" y="462"/>
			<point x="242" y="486" type="curve"/>
			<point x="436" y="111" type="line" smooth="yes"/>
			<point x="448" y="88"/>
			<point x="469" y="75"/>
			<point x="495" y="75" type="curve" smooth="yes"/>
			<point x="518" y="75" type="line" smooth="yes"/>
			<point x="544" y="75"/>
			<point x="565" y="87"/>
			<point x="577" y="111" type="curve" smooth="yes"/>
			<point x="770" y="485" type="line"/>
			<point x="768" y="462"/>
			<point x="767" y="440"/>
			<point x="767" y="419" type="curve" smooth="yes"/>
			<point x="767" y="0" type="line"/>
			<point x="916" y="0" type="line"/>
			<point x="916" y="729" type="line"/>
			<point x="787" y="729" type="line" smooth="yes"/>
			<point x="758" y="729"/>
			<point x="744" y="728"/>
			<point x="731" y="703" type="curve" smooth="yes"/>
			<point x="544" y="335" type="line" smooth="yes"/>
			<point x="530" y="308"/>
			<point x="516" y="275"/>
			<point x="507" y="252" type="curve"/>
			<point x="495" y="280"/>
			<point x="483" y="308"/>
			<point x="470" y="333" type="curve"/>
			<point x="282" y="703" type="line" smooth="yes"/>
			<point x="269" y="728"/>
			<point x="257" y="729"/>
			<point x="226" y="729" type="curve" smooth="yes"/>
			<point x="97" y="729" type="line"/>
		</contour>
		<component base="SerifBottomLeft" xOffset="97"/>
		<component base="SerifBottomRight" xOffset="247"/>
		<component base="SerifSpurLeft" xOffset="127" yOffset="729"/>
		<component base="SerifBottomLeft" xOffset="766"/>
		<component base="SerifBottomRight" xOffset="916"/>
		<component base="SerifSpurRight" xOffset="916" yOffset="729"/>
	</outline>
</glyph>
<glyph name="N" format="2">
	<advance width="839"/>
	<unicode hex="004E"/>
	<anchor x="410" y="729" name="top"/>
	<anchor x="410" y="0" name="bottom"/>
	<note>
		N
	</note>
	<outline>
		<contour>
			<point x="97" y="0" type="line"/>
			<point x="246" y="0" type="line"/>
			<point x="246" y="391" type="line" smooth="yes"/>
			<point x="246" y="425"/>
			<point x="246" y="434"/>
			<point x="243" y="462" type="curve"/>
			<point x="586" y="28" type="line" smooth="yes"/>
			<point x="603" y="6"/>
			<point x="620" y="0"/>
			<point x="645" y="0" type="curve" smooth="yes"/>
			<point x="733" y="0" type="line"/>
			<point x="733" y="729" type="line"/>
			<point x="584" y="729" type="line"/>
			<point x="584" y="343" type="line" smooth="yes"/>
			<point x="584" y="320"/>
			<point x="585" y="293"/>
			<point x="588" y="265" type="curve"/>
			<point x="242" y="703" type="line"/>
			<point x="224" y="724"/>
			<point x="214" y="729"/>
			<point x="186" y="729" type="curve"/>
			<point x="97" y="729" type="line"/>
		</contour>
		<component base="SerifBottomLeft" xOffset="97"/>
		<component base="SerifBottomRight" xOffset="247"/>
		<component base="SerifSpurLeft" xOffset="127" yOffset="729"/>
		<component base="SerifSpurLeft" xOffset="613" yOffset="729"/>
		<component base="SerifSpurRight" xOffset="734" yOffset="729"/>
	</outline>
</glyph>
<glyph name="O" format="2">
	<advance width="787"/>
	<unicode hex="004F"/>
	<anchor x="393" y="375" name="center"/>
	<anchor x="397" y="3" name="ogonek"/>
	<anchor x="393" y="749" name="top"/>
	<anchor x="773" y="749" name="topright"/>
	<anchor x="13" y="749" name="topleft"/>
	<anchor x="393" y="0" name="bottom"/>
	<note>
		O
	</note>
	<outline>
		<contour>
			<point x="394" y="-8" type="curve" smooth="yes"/>
			<point x="507" y="-8"/>
			<point x="603" y="32"/>
			<point x="669" y="100" type="curve" smooth="yes"/>
			<point x="735" y="167"/>
			<point x="772" y="260"/>
			<point x="772" y="365" type="curve" smooth="yes"/>
			<point x="772" y="469"/>
			<point x="735" y="562"/>
			<point x="669" y="629" type="curve" smooth="yes"/>
			<point x="603" y="696"/>
			<point x="507" y="737"/>
			<point x="394" y="737" type="curve" smooth="yes"/>
			<point x="281" y="737"/>
			<point x="186" y="697"/>
			<point x="120" y="630" type="curve" smooth="yes"/>
			<point x="54" y="563"/>
			<point x="15" y="470"/>
			<point x="15" y="365" type="curve" smooth="yes"/>
			<point x="15" y="260"/>
			<point x="54" y="167"/>
			<point x="120" y="100" type="curve" smooth="yes"/>
			<point x="186" y="32"/>
			<point x="281" y="-8"/>
		</contour>
		<contour>
			<point x="394" y="132" type="curve" smooth="yes"/>
			<point x="263" y="132"/>
			<point x="188" y="223"/>
			<point x="188" y="365" type="curve" smooth="yes"/>
			<point x="188" y="506"/>
			<point x="263" y="597"/>
			<point x="394" y="597" type="curve" smooth="yes"/>
			<point x="525" y="597"/>
			<point x="599" y="507"/>
			<point x="599" y="365" type="curve" smooth="yes"/>
			<point x="599" y="222"/>
			<point x="525" y="132"/>
		</contour>
	</outline>
</glyph>
<glyph name="P" format="2">
	<advance width="666"/>
	<unicode hex="0050"/>
	<note>
		P
	</note>
	<outline>
		<contour>
			<point x="97" y="0" type="line"/>
			<point x="266" y="0" type="line"/>
			<point x="266" y="244" type="line"/>
			<point x="354" y="244" type="line" smooth="yes"/>
			<point x="530" y="244"/>
			<point x="647" y="323"/>
			<point x="647" y="491" type="curve" smooth="yes"/>
			<point x="647" y="649"/>
			<point x="529" y="729"/>
			<point x="354" y="729" type="curve" smooth="yes"/>
			<point x="97" y="729" type="line"/>
		</contour>
		<contour>
			<point x="266" y="371" type="line"/>
			<point x="266" y="602" type="line"/>
			<point x="354" y="602" type="line" smooth="yes"/>
			<point x="435" y="602"/>
			<point x="478" y="561"/>
			<point x="478" y="491" type="curve" smooth="yes"/>
			<point x="478" y="415"/>
			<point x="442" y="371"/>
			<point x="354" y="371" type="curve" smooth="yes"/>
		</contour>
		<component base="SerifBottomLeft" xOffset="97"/>
		<component base="SerifSpurLeft" xOffset="127" yOffset="729"/>
		<component base="SerifBottomRight" xOffset="266"/>
	</outline>
</glyph>
<glyph name="Q" format="2">
	<advance width="791"/>
	<unicode hex="0051"/>
	<note>
		Q
	</note>
	<outline>
		<contour>
			<point x="674" y="-137" type="curve" smooth="yes"/>
			<point x="813" y="-137" type="line"/>
			<point x="629" y="65" type="line"/>
			<point x="721" y="133"/>
			<point x="772" y="243"/>
			<point x="772" y="365" type="curve" smooth="yes"/>
			<point x="772" y="469"/>
			<point x="735" y="562"/>
			<point x="669" y="629" type="curve" smooth="yes"/>
			<point x="603" y="696"/>
			<point x="507" y="737"/>
			<point x="394" y="737" type="curve" smooth="yes"/>
			<point x="281" y="737"/>
			<point x="186" y="697"/>
			<point x="120" y="630" type="curve" smooth="yes"/>
			<point x="54" y="563"/>
			<point x="15" y="470"/>
			<point x="15" y="365" type="curve" smooth="yes"/>
			<point x="15" y="260"/>
			<point x="54" y="167"/>
			<point x="120" y="100" type="curve" smooth="yes"/>
			<point x="186" y="32"/>
			<point x="281" y="-8"/>
			<point x="394" y="-8" type="curve" smooth="yes"/>
			<point x="426" y="-8"/>
			<point x="457" y="-5"/>
			<point x="486" y="2" type="curve"/>
			<point x="576" y="-100" type="line" smooth="yes"/>
			<point x="601" y="-129"/>
			<point x="634" y="-137"/>
		</contour>
		<contour>
			<point x="394" y="132" type="curve" smooth="yes"/>
			<point x="263" y="132"/>
			<point x="188" y="223"/>
			<point x="188" y="365" type="curve" smooth="yes"/>
			<point x="188" y="506"/>
			<point x="263" y="597"/>
			<point x="394" y="597" type="curve" smooth="yes"/>
			<point x="525" y="597"/>
			<point x="599" y="507"/>
			<point x="599" y="365" type="curve" smooth="yes"/>
			<point x="599" y="222"/>
			<point x="525" y="132"/>
		</contour>
	</outline>
</glyph>
<glyph name="R" format="2">
	<advance width="701"/>
	<unicode hex="0052"/>
	<anchor x="346" y="729" name="top"/>
	<anchor x="346" y="0" name="bottom"/>
	<note>
		R
	</note>
	<outline>
		<contour>
			<point x="97" y="0" type="line"/>
			<point x="266" y="0" type="line"/>
			<point x="266" y="270" type="line"/>
			<point x="309" y="270" type="line" smooth="yes"/>
			<point x="336" y="270"/>
			<point x="347" y="263"/>
			<point x="358" y="244" type="curve" smooth="yes"/>
			<point x="479" y="32" type="line" smooth="yes"/>
			<point x="491" y="11"/>
			<point x="512" y="0"/>
			<point x="540" y="0" type="curve" smooth="yes"/>
			<point x="693" y="0" type="line"/>
			<point x="538" y="254" type="line" smooth="yes"/>
			<point x="523" y="278"/>
			<point x="504" y="294"/>
			<point x="481" y="305" type="curve"/>
			<point x="574" y="342"/>
			<point x="627" y="417"/>
			<point x="627" y="513" type="curve" smooth="yes"/>
			<point x="627" y="664"/>
			<point x="508" y="729"/>
			<point x="334" y="729" type="curve" smooth="yes"/>
			<point x="97" y="729" type="line"/>
		</contour>
		<contour>
			<point x="266" y="386" type="line"/>
			<point x="266" y="602" type="line"/>
			<point x="334" y="602" type="line" smooth="yes"/>
			<point x="422" y="602"/>
			<point x="462" y="564"/>
			<point x="462" y="500" type="curve" smooth="yes"/>
			<point x="462" y="432"/>
			<point x="420" y="386"/>
			<point x="334" y="386" type="curve" smooth="yes"/>
		</contour>
		<contour>
			<point x="596" y="0" type="line"/>
			<point x="615" y="117" type="line"/>
			<point x="540" y="131" type="line"/>
		</contour>
		<component base="SerifBottomLeft" xOffset="97"/>
		<component base="SerifSpurLeft" xOffset="127" yOffset="729"/>
		<component base="SerifBottomRight" xOffset="266"/>
		<component base="SerifBottomRight" xOffset="616"/>
	</outline>
</glyph>
<glyph name="S" format="2">
	<advance width="574"/>
	<unicode hex="0053"/>
	<anchor x="287" y="729" name="top"/>
	<anchor x="287" y="0" name="bottom"/>
	<note>
		S
	</note>
	<outline>
		<contour>
			<point x="273" y="-8" type="curve" smooth="yes"/>
			<point x="433" y="-8"/>
			<point x="534" y="93"/>
			<point x="534" y="234" type="curve" smooth="yes"/>
			<point x="534" y="350"/>
			<point x="462" y="397"/>
			<point x="372" y="429" type="curve" smooth="yes"/>
			<point x="297" y="454"/>
			<point x="209" y="470"/>
			<point x="209" y="529" type="curve" smooth="yes"/>
			<point x="209" y="574"/>
			<point x="240" y="604"/>
			<point x="303" y="604" type="curve" smooth="yes"/>
			<point x="363" y="604"/>
			<point x="404" y="591"/>
			<point x="445" y="574" type="curve"/>
			<point x="514" y="584" type="line"/>
			<point x="514" y="668" type="line"/>
			<point x="461" y="712"/>
			<point x="378" y="737"/>
			<point x="301" y="737" type="curve" smooth="yes"/>
			<point x="151" y="737"/>
			<point x="51" y="639"/>
			<point x="51" y="520" type="curve" smooth="yes"/>
			<point x="51" y="394"/>
			<point x="121" y="345"/>
			<point x="214" y="315" type="curve" smooth="yes"/>
			<point x="290" y="290"/>
			<point x="375" y="279"/>
			<point x="375" y="211" type="curve" smooth="yes"/>
			<point x="375" y="152"/>
			<point x="339" y="126"/>
			<point x="278" y="126" type="curve" smooth="yes"/>
			<point x="220" y="126"/>
			<point x="157" y="131"/>
			<point x="99" y="163" type="curve"/>
			<point x="44" y="137" type="line"/>
			<point x="44" y="30" type="line"/>
			<point x="122" y="2"/>
			<point x="185" y="-8"/>
		</contour>
		<component base="SerifUpRightCaps" xScale="-1" yScale="-1" xOffset="514" yOffset="584"/>
		<component base="SerifUpRightCaps" xOffset="44" yOffset="137"/>
	</outline>
</glyph>
<glyph name="T" format="2">
	<advance width="603"/>
	<unicode hex="0054"/>
	<anchor x="302" y="365" name="center"/>
	<anchor x="302" y="0" name="bottom"/>
	<anchor x="302" y="729" name="top"/>
	<note>
		T
	</note>
	<outline>
		<contour>
			<point x="217" y="0" type="line"/>
			<point x="386" y="0" type="line"/>
			<point x="386" y="595" type="line"/>
			<point x="591" y="595" type="line"/>
			<point x="591" y="729" type="line"/>
			<point x="12" y="729" type="line"/>
			<point x="12" y="595" type="line"/>
			<point x="217" y="595" type="line"/>
		</contour>
		<component base="SerifBottomLeft" xOffset="217"/>
		<component base="SerifBottomRight" xOffset="386"/>
		<component base="SerifUpRightCaps" xScale="-1" yScale="-1" xOffset="591" yOffset="595"/>
		<component base="SerifUpLeftCaps" xScale="-1" yScale="-1" xOffset="12" yOffset="595"/>
	</outline>
</glyph>
<glyph name="U" format="2">
	<advance width="818"/>
	<unicode hex="0055"/>
	<anchor x="409" y="0" name="ogonek"/>
	<anchor x="409" y="729" name="top"/>
	<anchor x="752" y="729" name="topright"/>
	<anchor x="409" y="0" name="bottom"/>
	<note>
		U
	</note>
	<outline>
		<contour>
			<point x="409" y="-8" type="curve" smooth="yes"/>
			<point x="597" y="-8"/>
			<point x="722" y="111"/>
			<point x="722" y="297" type="curve" smooth="yes"/>
			<point x="722" y="729" type="line"/>
			<point x="553" y="729" type="line"/>
			<point x="553" y="297" type="line" smooth="yes"/>
			<point x="553" y="196"/>
			<point x="502" y="134"/>
			<point x="409" y="134" type="curve" smooth="yes"/>
			<point x="318" y="134"/>
			<point x="265" y="197"/>
			<point x="265" y="298" type="curve" smooth="yes"/>
			<point x="265" y="729" type="line"/>
			<point x="96" y="729" type="line"/>
			<point x="96" y="297" type="line" smooth="yes"/>
			<point x="96" y="114"/>
			<point x="218" y="-8"/>
		</contour>
		<component base="SerifSpurLeft" xOffset="126" yOffset="729"/>
		<component base="SerifSpurRight" xOffset="265" yOffset="729"/>
		<component base="SerifSpurLeft" xOffset="583" yOffset="729"/>
		<component base="SerifSpurRight" xOffset="722" yOffset="729"/>
	</outline>
</glyph>
<glyph name="V" format="2">
	<advance width="815"/>
	<unicode hex="0056"/>
	<anchor x="408" y="729" name="top"/>
	<anchor x="408" y="0" name="bottom"/>
	<note>
		V
	</note>
	<outline>
		<contour>
			<point x="331" y="0" type="line"/>
			<point x="484" y="0" type="line"/>
			<point x="776" y="729" type="line"/>
			<point x="639" y="729" type="line" smooth="yes"/>
			<point x="611" y="729"/>
			<point x="591" y="711"/>
			<point x="584" y="692" type="curve" smooth="yes"/>
			<point x="444" y="302" type="line" smooth="yes"/>
			<point x="432" y="269"/>
			<point x="419" y="228"/>
			<point x="410" y="184" type="curve"/>
			<point x="398" y="228"/>
			<point x="384" y="268"/>
			<point x="372" y="302" type="curve" smooth="yes"/>
			<point x="231" y="692" type="line" smooth="yes"/>
			<point x="223" y="715"/>
			<point x="204" y="729"/>
			<point x="175" y="729" type="curve" smooth="yes"/>
			<point x="39" y="729" type="line"/>
		</contour>
		<contour>
			<point x="168" y="691" type="line"/>
			<point x="242" y="691" type="line"/>
			<point x="242" y="729" type="line"/>
			<point x="168" y="729" type="line"/>
		</contour>
		<contour>
			<point x="591" y="691" type="line"/>
			<point x="665" y="691" type="line"/>
			<point x="665" y="729" type="line"/>
			<point x="591" y="729" type="line"/>
		</contour>
		<component base="SerifSpurLeft" xOffset="115" yOffset="729"/>
		<component base="SerifSpurRight" xOffset="232" yOffset="729"/>
		<component base="SerifSpurLeft" xOffset="613" yOffset="729"/>
		<component base="SerifSpurRight" xOffset="730" yOffset="729"/>
	</outline>
</glyph>
<glyph name="W" format="2">
	<advance width="1139"/>
	<unicode hex="0057"/>
	<anchor x="570" y="729" name="top"/>
	<anchor x="570" y="0" name="bottom"/>
	<note>
		W
	</note>
	<outline>
		<contour>
			<point x="264" y="0" type="line"/>
			<point x="417" y="0" type="line"/>
			<point x="556" y="452" type="line" smooth="yes"/>
			<point x="557" y="455"/>
			<point x="565" y="481"/>
			<point x="571" y="501" type="curve"/>
			<point x="572" y="497"/>
			<point x="577" y="478"/>
			<point x="585" y="452" type="curve" smooth="yes"/>
			<point x="722" y="0" type="line"/>
			<point x="875" y="0" type="line"/>
			<point x="1100" y="729" type="line"/>
			<point x="967" y="729" type="line" smooth="yes"/>
			<point x="939" y="729"/>
			<point x="917" y="712"/>
			<point x="912" y="692" type="curve" smooth="yes"/>
			<point x="812" y="312" type="line" smooth="yes"/>
			<point x="806" y="289"/>
			<point x="800" y="262"/>
			<point x="795" y="233" type="curve"/>
			<point x="790" y="262"/>
			<point x="780" y="289"/>
			<point x="773" y="312" type="curve" smooth="yes"/>
			<point x="656" y="692" type="line" smooth="yes"/>
			<point x="649" y="715"/>
			<point x="629" y="729"/>
			<point x="600" y="729" type="curve" smooth="yes"/>
			<point x="550" y="729" type="line" smooth="yes"/>
			<point x="522" y="729"/>
			<point x="501" y="711"/>
			<point x="495" y="692" type="curve" smooth="yes"/>
			<point x="377" y="312" type="line" smooth="yes"/>
			<point x="367" y="280"/>
			<point x="358" y="242"/>
			<point x="355" y="229" type="curve"/>
			<point x="351" y="260"/>
			<point x="343" y="288"/>
			<point x="337" y="312" type="curve" smooth="yes"/>
			<point x="237" y="692" type="line" smooth="yes"/>
			<point x="231" y="715"/>
			<point x="210" y="729"/>
			<point x="181" y="729" type="curve" smooth="yes"/>
			<point x="39" y="729" type="line"/>
		</contour>
		<contour>
			<point x="168" y="691" type="line"/>
			<point x="242" y="691" type="line"/>
			<point x="242" y="729" type="line"/>
			<point x="168" y="729" type="line"/>
		</contour>
		<contour>
			<point x="906" y="691" type="line"/>
			<point x="980" y="691" type="line"/>
			<point x="980" y="729" type="line"/>
			<point x="906" y="729" type="line"/>
		</contour>
		<component base="SerifSpurLeft" xOffset="115" yOffset="729"/>
		<component base="SerifSpurRight" xOffset="232" yOffset="729"/>
		<component base="SerifSpurLeft" xOffset="937" yOffset="729"/>
		<component base="SerifSpurRight" xOffset="1054" yOffset="729"/>
	</outline>
</glyph>
<glyph name="X" format="2">
	<advance width="718"/>
	<unicode hex="0058"/>
	<anchor x="359" y="729" name="top"/>
	<anchor x="359" y="0" name="bottom"/>
	<note>
		X
	</note>
	<outline>
		<contour>
			<point x="8" y="0" type="line"/>
			<point x="166" y="0" type="line" smooth="yes"/>
			<point x="186" y="0"/>
			<point x="199" y="14"/>
			<point x="207" y="27" type="curve" smooth="yes"/>
			<point x="343" y="263" type="line" smooth="yes"/>
			<point x="346" y="268"/>
			<point x="349" y="275"/>
			<point x="352" y="282" type="curve"/>
			<point x="498" y="27" type="line" smooth="yes"/>
			<point x="506" y="13"/>
			<point x="520" y="0"/>
			<point x="541" y="0" type="curve" smooth="yes"/>
			<point x="710" y="0" type="line"/>
			<point x="477" y="382" type="line"/>
			<point x="705" y="729" type="line"/>
			<point x="543" y="729" type="line" smooth="yes"/>
			<point x="529" y="729"/>
			<point x="517" y="722"/>
			<point x="509" y="708" type="curve" smooth="yes"/>
			<point x="382" y="490" type="line" smooth="yes"/>
			<point x="380" y="486"/>
			<point x="374" y="475"/>
			<point x="369" y="465" type="curve"/>
			<point x="224" y="710" type="line" smooth="yes"/>
			<point x="216" y="723"/>
			<point x="209" y="729"/>
			<point x="186" y="729" type="curve" smooth="yes"/>
			<point x="17" y="729" type="line"/>
			<point x="243" y="375" type="line"/>
		</contour>
		<contour>
			<point x="162" y="0" type="line"/>
			<point x="236" y="0" type="line"/>
			<point x="236" y="78" type="line"/>
			<point x="162" y="78" type="line"/>
		</contour>
		<contour>
			<point x="478" y="0" type="line"/>
			<point x="552" y="0" type="line"/>
			<point x="552" y="78" type="line"/>
			<point x="478" y="78" type="line"/>
		</contour>
		<contour>
			<point x="177" y="691" type="line"/>
			<point x="251" y="691" type="line"/>
			<point x="251" y="729" type="line"/>
			<point x="177" y="729" type="line"/>
		</contour>
		<contour>
			<point x="478" y="666" type="line"/>
			<point x="552" y="666" type="line"/>
			<point x="552" y="729" type="line"/>
			<point x="478" y="729" type="line"/>
		</contour>
		<component base="SerifSpurLeft" xOffset="124" yOffset="729"/>
		<component base="SerifSpurRight" xOffset="241" yOffset="729"/>
		<component base="SerifSpurLeft" xOffset="511" yOffset="729"/>
		<component base="SerifSpurRight" xOffset="628" yOffset="729"/>
		<component base="SerifSpurRight" xScale="-1" yScale="-1" xOffset="85"/>
		<component base="SerifSpurLeft" xScale="-1" yScale="-1" xOffset="202"/>
		<component base="SerifSpurLeft" xScale="-1" yScale="-1" xOffset="603"/>
		<component base="SerifSpurRight" xScale="-1" yScale="-1" xOffset="486"/>
	</outline>
</glyph>
<glyph name="Y" format="2">
	<advance width="713"/>
	<unicode hex="0059"/>
	<anchor x="357" y="729" name="top"/>
	<anchor x="357" y="0" name="bottom"/>
	<anchor x="78" y="729" name="topleft"/>
	<note>
		Y
	</note>
	<outline>
		<contour>
			<point x="272" y="0" type="line"/>
			<point x="441" y="0" type="line"/>
			<point x="441" y="277" type="line"/>
			<point x="705" y="729" type="line"/>
			<point x="555" y="729" type="line" smooth="yes"/>
			<point x="531" y="729"/>
			<point x="509" y="710"/>
			<point x="500" y="692" type="curve" smooth="yes"/>
			<point x="398" y="480" type="line" smooth="yes"/>
			<point x="379" y="441"/>
			<point x="365" y="412"/>
			<point x="358" y="391" type="curve"/>
			<point x="347" y="419"/>
			<point x="332" y="446"/>
			<point x="316" y="480" type="curve" smooth="yes"/>
			<point x="213" y="692" type="line" smooth="yes"/>
			<point x="203" y="713"/>
			<point x="186" y="729"/>
			<point x="157" y="729" type="curve" smooth="yes"/>
			<point x="8" y="729" type="line"/>
			<point x="272" y="277" type="line"/>
		</contour>
		<contour>
			<point x="155" y="666" type="line"/>
			<point x="229" y="666" type="line"/>
			<point x="229" y="729" type="line"/>
			<point x="155" y="729" type="line"/>
		</contour>
		<contour>
			<point x="485" y="666" type="line"/>
			<point x="559" y="666" type="line"/>
			<point x="559" y="729" type="line"/>
			<point x="485" y="729" type="line"/>
		</contour>
		<component base="SerifSpurLeft" xOffset="115" yOffset="729"/>
		<component base="SerifSpurRight" xOffset="218" yOffset="729"/>
		<component base="SerifSpurLeft" xOffset="525" yOffset="729"/>
		<component base="SerifSpurRight" xOffset="628" yOffset="729"/>
		<component base="SerifBottomLeft" xOffset="272"/>
		<component base="SerifBottomRight" xOffset="441"/>
	</outline>
</glyph>
<glyph name="Z" format="2">
	<advance width="635"/>
	<unicode hex="005A"/>
	<anchor x="316" y="365" name="center"/>
	<anchor x="316" y="0" name="bottom"/>
	<anchor x="316" y="729" name="top"/>
	<note>
		Z
	</note>
	<outline>
		<contour>
			<point x="31" y="0" type="line"/>
			<point x="593" y="0" type="line"/>
			<point x="593" y="130" type="line"/>
			<point x="246" y="130" type="line"/>
			<point x="588" y="619" type="line" smooth="yes"/>
			<point x="598" y="634"/>
			<point x="604" y="651"/>
			<point x="604" y="668" type="curve" smooth="yes"/>
			<point x="604" y="729" type="line"/>
			<point x="59" y="729" type="line"/>
			<point x="59" y="599" type="line"/>
			<point x="389" y="599" type="line"/>
			<point x="46" y="109" type="line" smooth="yes"/>
			<point x="37" y="96"/>
			<point x="31" y="81"/>
			<point x="31" y="65" type="curve" smooth="yes"/>
		</contour>
		<component base="SerifUpLeftCaps" xOffset="593" yOffset="130"/>
		<component base="SerifUpLeftCaps" xScale="-1" yScale="-1" xOffset="59" yOffset="599"/>
	</outline>
</glyph>
<glyph name="bracketleft" format="2">
	<advance width="350"/>
	<unicode hex="005B"/>
	<note>
		bracketleft
	</note>
	<outline>
		<contour>
			<point x="303" y="-162" type="line"/>
			<point x="303" y="-103" type="line" smooth="yes"/>
			<point x="303" y="-83"/>
			<point x="287" y="-66"/>
			<point x="263" y="-66" type="curve" smooth="yes"/>
			<point x="208" y="-66" type="line"/>
			<point x="208" y="682" type="line"/>
			<point x="263" y="682" type="line" smooth="yes"/>
			<point x="287" y="682"/>
			<point x="303" y="699"/>
			<point x="303" y="720" type="curve" smooth="yes"/>
			<point x="303" y="779" type="line"/>
			<point x="79" y="779" type="line"/>
			<point x="79" y="-162" type="line"/>
			<point x="303" y="-162" type="line"/>
		</contour>
	</outline>
</glyph>
<glyph name="backslash" format="2">
	<advance width="477"/>
	<unicode hex="005C"/>
	<note>
		backslash
	</note>
	<outline>
		<contour>
			<point x="306" y="6" type="line"/>
			<point x="319" y="-30"/>
			<point x="355" y="-50"/>
			<point x="387" y="-50" type="curve" smooth="yes"/>
			<point x="453" y="-50" type="line"/>
			<point x="169" y="696" type="line" smooth="yes"/>
			<point x="156" y="731"/>
			<point x="127" y="749"/>
			<point x="91" y="749" type="curve" smooth="yes"/>
			<point x="25" y="749" type="line"/>
			<point x="306" y="6" type="line"/>
		</contour>
	</outline>
</glyph>
<glyph name="bracketright" format="2">
	<advance width="350"/>
	<unicode hex="005D"/>
	<note>
		bracketright
	</note>
	<outline>
		<contour>
			<point x="47" y="-162" type="line"/>
			<point x="271" y="-162" type="line"/>
			<point x="271" y="779" type="line"/>
			<point x="47" y="779" type="line"/>
			<point x="47" y="720" type="line"/>
			<point x="47" y="699"/>
			<point x="64" y="682"/>
			<point x="87" y="682" type="curve" smooth="yes"/>
			<point x="142" y="682" type="line"/>
			<point x="142" y="-66" type="line"/>
			<point x="87" y="-66" type="line" smooth="yes"/>
			<point x="64" y="-66"/>
			<point x="47" y="-83"/>
			<point x="47" y="-103" type="curve" smooth="yes"/>
		</contour>
	</outline>
</glyph>
<glyph name="asciicircum" format="2">
	<advance width="559"/>
	<unicode hex="005E"/>
	<note>
		asciicircum
	</note>
	<outline>
		<contour>
			<point x="36" y="384" type="line"/>
			<point x="156" y="384" type="line" smooth="yes"/>
			<point x="176" y="384"/>
			<point x="188" y="395"/>
			<point x="195" y="408" type="curve" smooth="yes"/>
			<point x="255" y="527" type="line" smooth="yes"/>
			<point x="267" y="548"/>
			<point x="275" y="567"/>
			<point x="282" y="586" type="curve"/>
			<point x="286" y="576"/>
			<point x="295" y="557"/>
			<point x="310" y="527" type="curve" smooth="yes"/>
			<point x="372" y="408" type="line" smooth="yes"/>
			<point x="380" y="395"/>
			<point x="392" y="384"/>
			<point x="409" y="384" type="curve" smooth="yes"/>
			<point x="523" y="384" type="line"/>
			<point x="330" y="729" type="line"/>
			<point x="229" y="729" type="line"/>
		</contour>
	</outline>
</glyph>
<glyph name="grave" format="2">
	<advance width="328"/>
	<unicode hex="0060"/>
	<note>
		grave
	</note>
	<outline>
		<contour>
			<point x="30" y="737" type="line"/>
			<point x="160" y="605" type="line" smooth="yes"/>
			<point x="176" y="590"/>
			<point x="187" y="584"/>
			<point x="210" y="584" type="curve" smooth="yes"/>
			<point x="298" y="584" type="line"/>
			<point x="230" y="707" type="line" smooth="yes"/>
			<point x="219" y="726"/>
			<point x="207" y="737"/>
			<point x="175" y="737" type="curve" smooth="yes"/>
			<point x="30" y="737" type="line"/>
		</contour>
	</outline>
</glyph>
<glyph name="a" format="2">
	<advance width="572"/>
	<unicode hex="0061"/>
	<anchor x="461" y="2" name="ogonek"/>
	<anchor x="256" y="0" name="bottom"/>
	<anchor x="266" y="519" name="top"/>
	<note>
		a
	</note>
	<outline>
		<contour>
			<point x="177" y="-8" type="curve" smooth="yes"/>
			<point x="245" y="-8"/>
			<point x="292" y="16"/>
			<point x="341" y="60" type="curve"/>
			<point x="352" y="31" type="line" smooth="yes"/>
			<point x="362" y="5"/>
			<point x="375" y="0"/>
			<point x="404" y="0" type="curve" smooth="yes"/>
			<point x="475" y="0" type="line"/>
			<point x="475" y="324" type="line" smooth="yes"/>
			<point x="475" y="444"/>
			<point x="396" y="529"/>
			<point x="272" y="529" type="curve" smooth="yes"/>
			<point x="185" y="529"/>
			<point x="108" y="502"/>
			<point x="45" y="447" type="curve"/>
			<point x="73" y="398" type="line" smooth="yes"/>
			<point x="82" y="383"/>
			<point x="97" y="371"/>
			<point x="118" y="371" type="curve" smooth="yes"/>
			<point x="166" y="371"/>
			<point x="187" y="410"/>
			<point x="252" y="410" type="curve" smooth="yes"/>
			<point x="299" y="410"/>
			<point x="324" y="385"/>
			<point x="324" y="324" type="curve" smooth="yes"/>
			<point x="324" y="302" type="line"/>
			<point x="205" y="299"/>
			<point x="130" y="276"/>
			<point x="84" y="245" type="curve" smooth="yes"/>
			<point x="38" y="213"/>
			<point x="21" y="172"/>
			<point x="21" y="135" type="curve" smooth="yes"/>
			<point x="21" y="43"/>
			<point x="82" y="-8"/>
		</contour>
		<contour>
			<point x="226" y="95" type="curve"/>
			<point x="189" y="95"/>
			<point x="169" y="107"/>
			<point x="169" y="143" type="curve" smooth="yes"/>
			<point x="169" y="187"/>
			<point x="223" y="207"/>
			<point x="324" y="211" type="curve"/>
			<point x="324" y="139" type="line"/>
			<point x="293" y="108"/>
			<point x="266" y="95"/>
		</contour>
		<component base="SerifBottomRight" xOffset="475"/>
	</outline>
</glyph>
<glyph name="b" format="2">
	<advance width="594"/>
	<unicode hex="0062"/>
	<anchor x="297" y="805" name="top"/>
	<anchor x="297" y="0" name="bottom"/>
	<note>
		b
	</note>
	<outline>
		<contour>
			<point x="299" y="-8" type="curve" smooth="yes"/>
			<point x="500" y="-8"/>
			<point x="575" y="112"/>
			<point x="575" y="264" type="curve" smooth="yes"/>
			<point x="575" y="419"/>
			<point x="504" y="527"/>
			<point x="387" y="527" type="curve" smooth="yes"/>
			<point x="322" y="527"/>
			<point x="274" y="501"/>
			<point x="235" y="464" type="curve"/>
			<point x="235" y="749" type="line"/>
			<point x="80" y="749" type="line"/>
			<point x="80" y="20" type="line"/>
			<point x="146" y="-4"/>
			<point x="239" y="-8"/>
		</contour>
		<contour>
			<point x="316" y="106" type="curve" smooth="yes"/>
			<point x="287" y="106"/>
			<point x="272" y="106"/>
			<point x="235" y="115" type="curve"/>
			<point x="235" y="361" type="line"/>
			<point x="263" y="394"/>
			<point x="287" y="410"/>
			<point x="333" y="410" type="curve" smooth="yes"/>
			<point x="390" y="410"/>
			<point x="415" y="360"/>
			<point x="415" y="264" type="curve" smooth="yes"/>
			<point x="415" y="161"/>
			<point x="381" y="106"/>
		</contour>
		<component base="SerifSpurLeft" xOffset="110" yOffset="749"/>
	</outline>
</glyph>
<glyph name="c" format="2">
	<advance width="485"/>
	<unicode hex="0063"/>
	<anchor x="261" y="519" name="top"/>
	<anchor x="258" y="0" name="bottom"/>
	<note>
		c
	</note>
	<outline>
		<contour>
			<point x="257" y="-8" type="curve" smooth="yes"/>
			<point x="330" y="-8"/>
			<point x="408" y="9"/>
			<point x="472" y="81" type="curve"/>
			<point x="427" y="137" type="line" smooth="yes"/>
			<point x="420" y="145"/>
			<point x="412" y="150"/>
			<point x="399" y="150" type="curve" smooth="yes"/>
			<point x="367" y="150"/>
			<point x="338" y="106"/>
			<point x="286" y="106" type="curve" smooth="yes"/>
			<point x="219" y="106"/>
			<point x="178" y="161"/>
			<point x="178" y="261" type="curve" smooth="yes"/>
			<point x="178" y="352"/>
			<point x="210" y="413"/>
			<point x="288" y="413" type="curve" smooth="yes"/>
			<point x="328" y="413"/>
			<point x="349" y="406"/>
			<point x="376" y="385" type="curve"/>
			<point x="449" y="402" type="line"/>
			<point x="449" y="489" type="line"/>
			<point x="392" y="515"/>
			<point x="336" y="527"/>
			<point x="278" y="527" type="curve" smooth="yes"/>
			<point x="113" y="527"/>
			<point x="19" y="415"/>
			<point x="19" y="261" type="curve" smooth="yes"/>
			<point x="19" y="98"/>
			<point x="123" y="-8"/>
		</contour>
		<component base="SerifUpRightLower" xScale="-1" yScale="-1" xOffset="449" yOffset="402"/>
	</outline>
</glyph>
<glyph name="d" format="2">
	<advance width="611"/>
	<unicode hex="0064"/>
	<anchor x="441" y="260" name="center"/>
	<anchor x="282" y="749" name="top"/>
	<anchor x="440" y="561" name="topright"/>
	<anchor x="287" y="0" name="bottom"/>
	<note>
		d
	</note>
	<outline>
		<contour>
			<point x="207" y="-8" type="curve" smooth="yes"/>
			<point x="274" y="-8"/>
			<point x="328" y="21"/>
			<point x="368" y="66" type="curve"/>
			<point x="380" y="26" type="line" smooth="yes"/>
			<point x="385" y="9"/>
			<point x="399" y="0"/>
			<point x="418" y="0" type="curve" smooth="yes"/>
			<point x="514" y="0" type="line"/>
			<point x="514" y="749" type="line"/>
			<point x="359" y="749" type="line"/>
			<point x="359" y="486" type="line"/>
			<point x="330" y="511"/>
			<point x="294" y="529"/>
			<point x="241" y="529" type="curve" smooth="yes"/>
			<point x="106" y="529"/>
			<point x="19" y="409"/>
			<point x="19" y="258" type="curve" smooth="yes"/>
			<point x="19" y="102"/>
			<point x="92" y="-8"/>
		</contour>
		<contour>
			<point x="261" y="111" type="curve"/>
			<point x="205" y="111"/>
			<point x="179" y="162"/>
			<point x="179" y="258" type="curve" smooth="yes"/>
			<point x="179" y="359"/>
			<point x="214" y="415"/>
			<point x="278" y="415" type="curve" smooth="yes"/>
			<point x="309" y="415"/>
			<point x="335" y="405"/>
			<point x="359" y="380" type="curve"/>
			<point x="359" y="160" type="line"/>
			<point x="333" y="129"/>
			<point x="305" y="111"/>
		</contour>
		<component base="SerifSpurLeft" xOffset="389" yOffset="749"/>
		<component base="SerifBottomRight" xOffset="514"/>
	</outline>
</glyph>
<glyph name="e" format="2">
	<advance width="527"/>
	<unicode hex="0065"/>
	<anchor x="278" y="0" name="ogonek"/>
	<anchor x="264" y="0" name="bottom"/>
	<anchor x="275" y="519" name="top"/>
	<note>
		e
	</note>
	<outline>
		<contour>
			<point x="282" y="-8" type="curve" smooth="yes"/>
			<point x="360" y="-8"/>
			<point x="443" y="11"/>
			<point x="505" y="81" type="curve"/>
			<point x="460" y="137" type="line" smooth="yes"/>
			<point x="452" y="146"/>
			<point x="445" y="150"/>
			<point x="432" y="150" type="curve" smooth="yes"/>
			<point x="397" y="150"/>
			<point x="343" y="108"/>
			<point x="296" y="108" type="curve" smooth="yes"/>
			<point x="232" y="108"/>
			<point x="189" y="142"/>
			<point x="176" y="221" type="curve" smooth="yes"/>
			<point x="175" y="225"/>
			<point x="174" y="228"/>
			<point x="174" y="232" type="curve"/>
			<point x="473" y="232" type="line" smooth="yes"/>
			<point x="503" y="232"/>
			<point x="508" y="247"/>
			<point x="508" y="289" type="curve" smooth="yes"/>
			<point x="508" y="436"/>
			<point x="415" y="527"/>
			<point x="275" y="527" type="curve" smooth="yes"/>
			<point x="122" y="527"/>
			<point x="19" y="414"/>
			<point x="19" y="271" type="curve" smooth="yes"/>
			<point x="19" y="106"/>
			<point x="122" y="-8"/>
		</contour>
		<contour>
			<point x="176" y="322" type="line"/>
			<point x="187" y="385"/>
			<point x="219" y="420"/>
			<point x="278" y="420" type="curve" smooth="yes"/>
			<point x="342" y="420"/>
			<point x="369" y="375"/>
			<point x="369" y="322" type="curve"/>
		</contour>
	</outline>
</glyph>
<glyph name="f" format="2">
	<advance width="397"/>
	<unicode hex="0066"/>
	<anchor x="201" y="749" name="top"/>
	<anchor x="181" y="0" name="bottom"/>
	<note>
		f
	</note>
	<outline>
		<contour>
			<point x="103" y="0" type="line"/>
			<point x="258" y="0" type="line"/>
			<point x="258" y="412" type="line"/>
			<point x="375" y="412" type="line"/>
			<point x="375" y="518" type="line"/>
			<point x="253" y="518" type="line"/>
			<point x="253" y="542" type="line" smooth="yes"/>
			<point x="253" y="608"/>
			<point x="281" y="630"/>
			<point x="338" y="630" type="curve" smooth="yes"/>
			<point x="338" y="630"/>
			<point x="339" y="630"/>
			<point x="345" y="630" type="curve" smooth="yes"/>
			<point x="357" y="630"/>
			<point x="376" y="638"/>
			<point x="377" y="658" type="curve" smooth="yes"/>
			<point x="380" y="733" type="line"/>
			<point x="357" y="740"/>
			<point x="336" y="743"/>
			<point x="311" y="743" type="curve" smooth="yes"/>
			<point x="184" y="743"/>
			<point x="103" y="667"/>
			<point x="103" y="547" type="curve" smooth="yes"/>
			<point x="103" y="518" type="line"/>
			<point x="30" y="518" type="line"/>
			<point x="30" y="457" type="line" smooth="yes"/>
			<point x="30" y="434"/>
			<point x="46" y="424"/>
			<point x="69" y="419" type="curve" smooth="yes"/>
			<point x="103" y="412" type="line"/>
		</contour>
		<component base="SerifBottomLeft" xOffset="103"/>
		<component base="SerifBottomRight" xOffset="258"/>
	</outline>
</glyph>
<glyph name="g" format="2">
	<advance width="522"/>
	<unicode hex="0067"/>
	<anchor x="244" y="519" name="top"/>
	<anchor x="245" y="-176" name="bottom"/>
	<note>
		g
	</note>
	<outline>
		<contour>
			<point x="240" y="528" type="curve"/>
			<point x="121" y="528"/>
			<point x="26" y="464"/>
			<point x="26" y="359" type="curve" smooth="yes"/>
			<point x="26" y="296"/>
			<point x="60" y="248"/>
			<point x="113" y="220" type="curve"/>
			<point x="69" y="198"/>
			<point x="44" y="163"/>
			<point x="44" y="128" type="curve" smooth="yes"/>
			<point x="44" y="92"/>
			<point x="59" y="69"/>
			<point x="83" y="53" type="curve"/>
			<point x="34" y="36"/>
			<point x="4" y="4"/>
			<point x="4" y="-43" type="curve" smooth="yes"/>
			<point x="4" y="-124"/>
			<point x="98" y="-179"/>
			<point x="240" y="-179" type="curve" smooth="yes"/>
			<point x="391" y="-179"/>
			<point x="498" y="-97"/>
			<point x="498" y="7" type="curve" smooth="yes"/>
			<point x="498" y="105"/>
			<point x="426" y="129"/>
			<point x="338" y="138" type="curve" smooth="yes"/>
			<point x="273" y="145"/>
			<point x="177" y="136"/>
			<point x="177" y="171" type="curve" smooth="yes"/>
			<point x="177" y="180"/>
			<point x="183" y="187"/>
			<point x="194" y="194" type="curve"/>
			<point x="209" y="192"/>
			<point x="224" y="191"/>
			<point x="240" y="191" type="curve" smooth="yes"/>
			<point x="357" y="191"/>
			<point x="450" y="255"/>
			<point x="450" y="359" type="curve" smooth="yes"/>
			<point x="450" y="375"/>
			<point x="448" y="391"/>
			<point x="443" y="406" type="curve"/>
			<point x="481" y="414" type="line" smooth="yes"/>
			<point x="505" y="419"/>
			<point x="513" y="429"/>
			<point x="513" y="446" type="curve" smooth="yes"/>
			<point x="513" y="503" type="line"/>
			<point x="357" y="503" type="line"/>
			<point x="324" y="519"/>
			<point x="284" y="528"/>
		</contour>
		<contour>
			<point x="355" y="-19" type="curve"/>
			<point x="355" y="-56"/>
			<point x="318" y="-72"/>
			<point x="243" y="-72" type="curve" smooth="yes"/>
			<point x="174" y="-72"/>
			<point x="138" y="-58"/>
			<point x="138" y="-23" type="curve" smooth="yes"/>
			<point x="138" y="-2"/>
			<point x="152" y="15"/>
			<point x="171" y="28" type="curve"/>
			<point x="201" y="24"/>
			<point x="274" y="23"/>
			<point x="296" y="20" type="curve" smooth="yes"/>
			<point x="328" y="16"/>
			<point x="355" y="6"/>
		</contour>
		<contour>
			<point x="240" y="287" type="curve"/>
			<point x="193" y="287"/>
			<point x="167" y="314"/>
			<point x="167" y="356" type="curve" smooth="yes"/>
			<point x="167" y="397"/>
			<point x="189" y="423"/>
			<point x="240" y="423" type="curve" smooth="yes"/>
			<point x="292" y="423"/>
			<point x="313" y="397"/>
			<point x="313" y="356" type="curve" smooth="yes"/>
			<point x="313" y="315"/>
			<point x="292" y="287"/>
		</contour>
	</outline>
</glyph>
<glyph name="h" format="2">
	<advance width="670"/>
	<unicode hex="0068"/>
	<anchor x="195" y="576" name="center"/>
	<anchor x="333" y="0" name="bottom"/>
	<anchor x="333" y="749" name="top"/>
	<note>
		h
	</note>
	<outline>
		<contour>
			<point x="103" y="0" type="line"/>
			<point x="258" y="0" type="line"/>
			<point x="258" y="370" type="line"/>
			<point x="286" y="394"/>
			<point x="316" y="410"/>
			<point x="349" y="410" type="curve" smooth="yes"/>
			<point x="394" y="410"/>
			<point x="418" y="381"/>
			<point x="418" y="330" type="curve" smooth="yes"/>
			<point x="418" y="0" type="line"/>
			<point x="573" y="0" type="line"/>
			<point x="573" y="330" type="line" smooth="yes"/>
			<point x="573" y="443"/>
			<point x="510" y="527"/>
			<point x="397" y="527" type="curve" smooth="yes"/>
			<point x="337" y="527"/>
			<point x="295" y="505"/>
			<point x="258" y="473" type="curve"/>
			<point x="258" y="749" type="line"/>
			<point x="103" y="749" type="line"/>
		</contour>
		<component base="SerifBottomRight" xOffset="573"/>
		<component base="SerifBottomLeft" xOffset="103"/>
		<component base="SerifSpurLeft" xOffset="133" yOffset="749"/>
		<component base="SerifBottomRight" xOffset="258"/>
	</outline>
</glyph>
<glyph name="k" format="2">
	<advance width="635"/>
	<unicode hex="006B"/>
	<anchor x="318" y="749" name="top"/>
	<anchor x="318" y="0" name="bottom"/>
	<note>
		k
	</note>
	<outline>
		<contour>
			<point x="103" y="0" type="line"/>
			<point x="258" y="0" type="line"/>
			<point x="258" y="230" type="line"/>
			<point x="288" y="230" type="line" smooth="yes"/>
			<point x="308" y="230"/>
			<point x="316" y="226"/>
			<point x="325" y="210" type="curve" smooth="yes"/>
			<point x="423" y="26" type="line" smooth="yes"/>
			<point x="433" y="7"/>
			<point x="451" y="0"/>
			<point x="474" y="0" type="curve" smooth="yes"/>
			<point x="614" y="0" type="line"/>
			<point x="468" y="248" type="line" smooth="yes"/>
			<point x="457" y="267"/>
			<point x="444" y="282"/>
			<point x="429" y="293" type="curve"/>
			<point x="446" y="304"/>
			<point x="462" y="317"/>
			<point x="474" y="334" type="curve" smooth="yes"/>
			<point x="608" y="519" type="line"/>
			<point x="466" y="519" type="line" smooth="yes"/>
			<point x="442" y="519"/>
			<point x="428" y="512"/>
			<point x="416" y="494" type="curve" smooth="yes"/>
			<point x="318" y="348" type="line" smooth="yes"/>
			<point x="308" y="334"/>
			<point x="301" y="329"/>
			<point x="281" y="329" type="curve" smooth="yes"/>
			<point x="258" y="329" type="line"/>
			<point x="258" y="749" type="line"/>
			<point x="103" y="749" type="line"/>
		</contour>
		<contour>
			<point x="491" y="394" type="line"/>
			<point x="530" y="402" type="line"/>
			<point x="553" y="519" type="line"/>
			<point x="382" y="519" type="line"/>
			<point x="382" y="478" type="line"/>
		</contour>
		<contour>
			<point x="520" y="0" type="line"/>
			<point x="539" y="117" type="line"/>
			<point x="464" y="131" type="line"/>
		</contour>
		<component base="SerifBottomLeft" xOffset="103"/>
		<component base="SerifBottomRight" xOffset="258"/>
		<component base="SerifSpurLeft" xOffset="133" yOffset="749"/>
		<component base="SerifSpurRight" xOffset="531" yOffset="519"/>
		<component base="SerifSpurLeft" xOffset="428" yOffset="519"/>
		<component base="SerifBottomRight" xOffset="540"/>
	</outline>
</glyph>
<glyph name="l" format="2">
	<advance width="355"/>
	<unicode hex="006C"/>
	<anchor x="181" y="403" name="center"/>
	<anchor x="181" y="749" name="top"/>
	<anchor x="303" y="749" name="topright"/>
	<anchor x="181" y="0" name="bottom"/>
	<note>
		l
	</note>
	<outline>
		<contour>
			<point x="103" y="0" type="line"/>
			<point x="258" y="0" type="line"/>
			<point x="258" y="749" type="line"/>
			<point x="103" y="749" type="line"/>
		</contour>
		<component base="SerifBottomLeft" xOffset="103"/>
		<component base="SerifBottomRight" xOffset="258"/>
		<component base="SerifSpurLeft" xOffset="133" yOffset="749"/>
	</outline>
</glyph>
<glyph name="m" format="2">
	<advance width="951"/>
	<unicode hex="006D"/>
	<anchor x="476" y="519" name="top"/>
	<anchor x="476" y="0" name="bottom"/>
	<note>
		m
	</note>
	<outline>
		<contour>
			<point x="103" y="0" type="line"/>
			<point x="258" y="0" type="line"/>
			<point x="258" y="375" type="line"/>
			<point x="281" y="396"/>
			<point x="305" y="410"/>
			<point x="333" y="410" type="curve" smooth="yes"/>
			<point x="378" y="410"/>
			<point x="402" y="389"/>
			<point x="402" y="330" type="curve" smooth="yes"/>
			<point x="402" y="0" type="line"/>
			<point x="557" y="0" type="line"/>
			<point x="557" y="330" type="line" smooth="yes"/>
			<point x="557" y="382"/>
			<point x="589" y="410"/>
			<point x="630" y="410" type="curve" smooth="yes"/>
			<point x="676" y="410"/>
			<point x="699" y="383"/>
			<point x="699" y="330" type="curve" smooth="yes"/>
			<point x="699" y="0" type="line"/>
			<point x="854" y="0" type="line"/>
			<point x="854" y="330" type="line" smooth="yes"/>
			<point x="854" y="453"/>
			<point x="790" y="527"/>
			<point x="670" y="527" type="curve" smooth="yes"/>
			<point x="604" y="527"/>
			<point x="537" y="500"/>
			<point x="504" y="438" type="curve"/>
			<point x="483" y="491"/>
			<point x="442" y="527"/>
			<point x="379" y="527" type="curve" smooth="yes"/>
			<point x="322" y="527"/>
			<point x="281" y="500"/>
			<point x="246" y="465" type="curve"/>
			<point x="237" y="493" type="line" smooth="yes"/>
			<point x="231" y="510"/>
			<point x="219" y="519"/>
			<point x="199" y="519" type="curve" smooth="yes"/>
			<point x="103" y="519" type="line"/>
		</contour>
		<component base="SerifBottomLeft" xOffset="103"/>
		<component base="SerifBottomRight" xOffset="258"/>
		<component base="SerifBottomRight" xOffset="557"/>
		<component base="SerifSpurLeft" xOffset="133" yOffset="519"/>
		<component base="SerifBottomRight" xOffset="854"/>
	</outline>
</glyph>
<glyph name="n" format="2">
	<advance width="670"/>
	<unicode hex="006E"/>
	<anchor x="323" y="519" name="top"/>
	<anchor x="323" y="0" name="bottom"/>
	<note>
		n
	</note>
	<outline>
		<contour>
			<point x="103" y="0" type="line"/>
			<point x="258" y="0" type="line"/>
			<point x="258" y="370" type="line"/>
			<point x="286" y="394"/>
			<point x="316" y="410"/>
			<point x="349" y="410" type="curve" smooth="yes"/>
			<point x="394" y="410"/>
			<point x="418" y="381"/>
			<point x="418" y="330" type="curve" smooth="yes"/>
			<point x="418" y="0" type="line"/>
			<point x="573" y="0" type="line"/>
			<point x="573" y="330" type="line" smooth="yes"/>
			<point x="573" y="443"/>
			<point x="510" y="527"/>
			<point x="397" y="527" type="curve" smooth="yes"/>
			<point x="333" y="527"/>
			<point x="287" y="501"/>
			<point x="246" y="463" type="curve"/>
			<point x="237" y="493" type="line" smooth="yes"/>
			<point x="232" y="510"/>
			<point x="219" y="519"/>
			<point x="199" y="519" type="curve" smooth="yes"/>
			<point x="103" y="519" type="line"/>
		</contour>
		<component base="SerifBottomLeft" xOffset="103"/>
		<component base="SerifBottomRight" xOffset="258"/>
		<component base="SerifBottomRight" xOffset="573"/>
		<component base="SerifSpurLeft" xOffset="133" yOffset="519"/>
	</outline>
</glyph>
<glyph name="o" format="2">
	<advance width="568"/>
	<unicode hex="006F"/>
	<anchor x="284" y="260" name="center"/>
	<anchor x="294" y="0" name="ogonek"/>
	<anchor x="284" y="519" name="top"/>
	<anchor x="548" y="519" name="topright"/>
	<anchor x="284" y="0" name="bottom"/>
	<note>
		o
	</note>
	<outline>
		<contour>
			<point x="285" y="527" type="curve"/>
			<point x="285" y="527" type="line"/>
			<point x="126" y="527"/>
			<point x="19" y="423"/>
			<point x="19" y="261" type="curve" smooth="yes"/>
			<point x="19" y="98"/>
			<point x="126" y="-8"/>
			<point x="285" y="-8" type="curve" smooth="yes"/>
			<point x="445" y="-8"/>
			<point x="549" y="98"/>
			<point x="549" y="261" type="curve" smooth="yes"/>
			<point x="549" y="423"/>
			<point x="444" y="527"/>
		</contour>
		<contour>
			<point x="285" y="107" type="curve"/>
			<point x="212" y="107"/>
			<point x="179" y="157"/>
			<point x="179" y="260" type="curve" smooth="yes"/>
			<point x="179" y="363"/>
			<point x="212" y="412"/>
			<point x="285" y="412" type="curve" smooth="yes"/>
			<point x="357" y="412"/>
			<point x="389" y="363"/>
			<point x="389" y="260" type="curve" smooth="yes"/>
			<point x="389" y="157"/>
			<point x="357" y="107"/>
		</contour>
	</outline>
</glyph>
<glyph name="p" format="2">
	<advance width="617"/>
	<unicode hex="0070"/>
	<anchor x="332" y="519" name="top"/>
	<anchor x="332" y="0" name="bottom"/>
	<note>
		p
	</note>
	<outline>
		<contour>
			<point x="103" y="-165" type="line"/>
			<point x="258" y="-165" type="line"/>
			<point x="258" y="35" type="line"/>
			<point x="289" y="8"/>
			<point x="323" y="-8"/>
			<point x="376" y="-8" type="curve" smooth="yes"/>
			<point x="511" y="-8"/>
			<point x="598" y="112"/>
			<point x="598" y="264" type="curve" smooth="yes"/>
			<point x="598" y="419"/>
			<point x="527" y="529"/>
			<point x="410" y="529" type="curve" smooth="yes"/>
			<point x="342" y="529"/>
			<point x="290" y="499"/>
			<point x="249" y="455" type="curve"/>
			<point x="237" y="493" type="line" smooth="yes"/>
			<point x="232" y="510"/>
			<point x="219" y="519"/>
			<point x="199" y="519" type="curve" smooth="yes"/>
			<point x="103" y="519" type="line"/>
		</contour>
		<contour>
			<point x="339" y="106" type="curve" smooth="yes"/>
			<point x="310" y="106"/>
			<point x="282" y="116"/>
			<point x="258" y="141" type="curve"/>
			<point x="258" y="361" type="line"/>
			<point x="286" y="394"/>
			<point x="310" y="410"/>
			<point x="356" y="410" type="curve" smooth="yes"/>
			<point x="413" y="410"/>
			<point x="438" y="360"/>
			<point x="438" y="264" type="curve" smooth="yes"/>
			<point x="438" y="161"/>
			<point x="404" y="106"/>
		</contour>
		<component base="SerifSpurLeft" xOffset="133" yOffset="519"/>
		<component base="SerifBottomLeft" xOffset="103" yOffset="-165"/>
		<component base="SerifBottomRight" xOffset="258" yOffset="-165"/>
	</outline>
</glyph>
<glyph name="q" format="2">
	<advance width="611"/>
	<unicode hex="0071"/>
	<note>
		q
	</note>
	<outline>
		<contour>
			<point x="359" y="-165" type="line"/>
			<point x="514" y="-165" type="line"/>
			<point x="514" y="502" type="line"/>
			<point x="448" y="526"/>
			<point x="355" y="530"/>
			<point x="295" y="530" type="curve" smooth="yes"/>
			<point x="94" y="530"/>
			<point x="19" y="410"/>
			<point x="19" y="257" type="curve" smooth="yes"/>
			<point x="19" y="103"/>
			<point x="90" y="-6"/>
			<point x="207" y="-6" type="curve" smooth="yes"/>
			<point x="272" y="-6"/>
			<point x="320" y="20"/>
			<point x="359" y="57" type="curve"/>
		</contour>
		<contour>
			<point x="261" y="111" type="curve" smooth="yes"/>
			<point x="204" y="111"/>
			<point x="179" y="161"/>
			<point x="179" y="257" type="curve" smooth="yes"/>
			<point x="179" y="360"/>
			<point x="213" y="416"/>
			<point x="278" y="416" type="curve" smooth="yes"/>
			<point x="307" y="416"/>
			<point x="322" y="416"/>
			<point x="359" y="406" type="curve"/>
			<point x="359" y="160" type="line"/>
			<point x="331" y="127"/>
			<point x="307" y="111"/>
		</contour>
		<component base="SerifBottomLeft" xOffset="359" yOffset="-165"/>
		<component base="SerifBottomRight" xOffset="514" yOffset="-165"/>
	</outline>
</glyph>
<glyph name="s" format="2">
	<advance width="444"/>
	<unicode hex="0073"/>
	<anchor x="239" y="519" name="top"/>
	<anchor x="208" y="0" name="bottom"/>
	<note>
		s
	</note>
	<outline>
		<contour>
			<point x="203" y="-8" type="curve"/>
			<point x="338" y="-8"/>
			<point x="421" y="59"/>
			<point x="421" y="169" type="curve" smooth="yes"/>
			<point x="421" y="249"/>
			<point x="368" y="282"/>
			<point x="302" y="306" type="curve" smooth="yes"/>
			<point x="249" y="325"/>
			<point x="181" y="337"/>
			<point x="181" y="375" type="curve" smooth="yes"/>
			<point x="181" y="402"/>
			<point x="203" y="418"/>
			<point x="242" y="418" type="curve" smooth="yes"/>
			<point x="280" y="418"/>
			<point x="305" y="404"/>
			<point x="327" y="396" type="curve"/>
			<point x="398" y="415" type="line"/>
			<point x="398" y="480" type="line"/>
			<point x="357" y="504"/>
			<point x="309" y="527"/>
			<point x="239" y="527" type="curve" smooth="yes"/>
			<point x="113" y="527"/>
			<point x="34" y="458"/>
			<point x="34" y="363" type="curve" smooth="yes"/>
			<point x="34" y="274"/>
			<point x="87" y="236"/>
			<point x="156" y="212" type="curve" smooth="yes"/>
			<point x="208" y="193"/>
			<point x="276" y="183"/>
			<point x="276" y="142" type="curve" smooth="yes"/>
			<point x="276" y="114"/>
			<point x="253" y="97"/>
			<point x="211" y="97" type="curve" smooth="yes"/>
			<point x="169" y="97"/>
			<point x="117" y="107"/>
			<point x="104" y="122" type="curve"/>
			<point x="32" y="111" type="line"/>
			<point x="32" y="19" type="line"/>
			<point x="76" y="4"/>
			<point x="135" y="-8"/>
		</contour>
		<component base="SerifUpRightLower" xScale="-1" yScale="-1" xOffset="398" yOffset="418"/>
		<component base="SerifUpRightLower" xOffset="32" yOffset="97"/>
	</outline>
</glyph>
<glyph name="t" format="2">
	<advance width="396"/>
	<unicode hex="0074"/>
	<anchor x="192" y="294" name="center"/>
	<anchor x="185" y="668" name="top"/>
	<anchor x="376" y="519" name="topright"/>
	<anchor x="237" y="0" name="bottom"/>
	<note>
		t
	</note>
	<outline>
		<contour>
			<point x="234" y="-8" type="curve"/>
			<point x="287" y="-8"/>
			<point x="339" y="8"/>
			<point x="379" y="37" type="curve"/>
			<point x="332" y="111" type="line" smooth="yes"/>
			<point x="326" y="120"/>
			<point x="321" y="124"/>
			<point x="312" y="124" type="curve" smooth="yes"/>
			<point x="298" y="124"/>
			<point x="293" y="113"/>
			<point x="271" y="113" type="curve" smooth="yes"/>
			<point x="250" y="113"/>
			<point x="237" y="130"/>
			<point x="237" y="154" type="curve" smooth="yes"/>
			<point x="237" y="412" type="line"/>
			<point x="363" y="412" type="line"/>
			<point x="363" y="518" type="line"/>
			<point x="237" y="518" type="line"/>
			<point x="237" y="669" type="line"/>
			<point x="156" y="669" type="line" smooth="yes"/>
			<point x="137" y="669"/>
			<point x="126" y="661"/>
			<point x="122" y="645" type="curve" smooth="yes"/>
			<point x="92" y="519" type="line"/>
			<point x="9" y="503" type="line"/>
			<point x="9" y="442" type="line" smooth="yes"/>
			<point x="9" y="422"/>
			<point x="22" y="412"/>
			<point x="38" y="412" type="curve" smooth="yes"/>
			<point x="82" y="412" type="line"/>
			<point x="82" y="144" type="line" smooth="yes"/>
			<point x="82" y="51"/>
			<point x="137" y="-8"/>
		</contour>
	</outline>
</glyph>
<glyph name="u" format="2">
	<advance width="647"/>
	<unicode hex="0075"/>
	<anchor x="533" y="3" name="ogonek"/>
	<anchor x="306" y="519" name="top"/>
	<anchor x="531" y="519" name="topright"/>
	<anchor x="288" y="0" name="bottom"/>
	<note>
		u
	</note>
	<outline>
		<contour>
			<point x="256" y="-8" type="curve" smooth="yes"/>
			<point x="320" y="-8"/>
			<point x="366" y="18"/>
			<point x="407" y="56" type="curve"/>
			<point x="416" y="26" type="line" smooth="yes"/>
			<point x="421" y="8"/>
			<point x="435" y="0"/>
			<point x="454" y="0" type="curve" smooth="yes"/>
			<point x="550" y="0" type="line"/>
			<point x="550" y="519" type="line"/>
			<point x="395" y="519" type="line"/>
			<point x="395" y="149" type="line"/>
			<point x="367" y="124"/>
			<point x="339" y="109"/>
			<point x="304" y="109" type="curve" smooth="yes"/>
			<point x="259" y="109"/>
			<point x="235" y="138"/>
			<point x="235" y="190" type="curve" smooth="yes"/>
			<point x="235" y="519" type="line"/>
			<point x="80" y="519" type="line"/>
			<point x="80" y="190" type="line" smooth="yes"/>
			<point x="80" y="76"/>
			<point x="144" y="-8"/>
		</contour>
		<component base="SerifBottomRight" xOffset="550"/>
		<component base="SerifSpurLeft" xOffset="110" yOffset="519"/>
		<component base="SerifSpurLeft" xOffset="425" yOffset="519"/>
	</outline>
</glyph>
<glyph name="v" format="2">
	<advance width="605"/>
	<unicode hex="0076"/>
	<anchor x="303" y="519" name="top"/>
	<anchor x="303" y="0" name="bottom"/>
	<note>
		v
	</note>
	<outline>
		<contour>
			<point x="232" y="0" type="line"/>
			<point x="373" y="0" type="line"/>
			<point x="574" y="519" type="line"/>
			<point x="451" y="519" type="line" smooth="yes"/>
			<point x="431" y="519"/>
			<point x="415" y="507"/>
			<point x="410" y="492" type="curve" smooth="yes"/>
			<point x="335" y="259" type="line" smooth="yes"/>
			<point x="323" y="222"/>
			<point x="312" y="186"/>
			<point x="305" y="150" type="curve"/>
			<point x="297" y="186"/>
			<point x="286" y="222"/>
			<point x="275" y="259" type="curve" smooth="yes"/>
			<point x="203" y="492" type="line" smooth="yes"/>
			<point x="198" y="507"/>
			<point x="183" y="519"/>
			<point x="160" y="519" type="curve" smooth="yes"/>
			<point x="31" y="519" type="line"/>
		</contour>
		<contour>
			<point x="141" y="481" type="line"/>
			<point x="215" y="481" type="line"/>
			<point x="215" y="519" type="line"/>
			<point x="141" y="519" type="line"/>
		</contour>
		<contour>
			<point x="398" y="481" type="line"/>
			<point x="472" y="481" type="line"/>
			<point x="472" y="519" type="line"/>
			<point x="398" y="519" type="line"/>
		</contour>
		<component base="SerifSpurLeft" xOffset="117" yOffset="519"/>
		<component base="SerifSpurRight" xOffset="191" yOffset="519"/>
		<component base="SerifSpurLeft" xOffset="444" yOffset="519"/>
		<component base="SerifSpurRight" xOffset="518" yOffset="519"/>
	</outline>
</glyph>
<glyph name="w" format="2">
	<advance width="886"/>
	<unicode hex="0077"/>
	<anchor x="443" y="519" name="top"/>
	<anchor x="443" y="0" name="bottom"/>
	<note>
		w
	</note>
	<outline>
		<contour>
			<point x="197" y="0" type="line"/>
			<point x="317" y="0" type="line" smooth="yes"/>
			<point x="334" y="0"/>
			<point x="345" y="9"/>
			<point x="350" y="26" type="curve" smooth="yes"/>
			<point x="425" y="284" type="line" smooth="yes"/>
			<point x="433" y="310"/>
			<point x="437" y="326"/>
			<point x="443" y="353" type="curve"/>
			<point x="447" y="330"/>
			<point x="453" y="308"/>
			<point x="460" y="285" type="curve" smooth="yes"/>
			<point x="534" y="26" type="line" smooth="yes"/>
			<point x="539" y="7"/>
			<point x="549" y="0"/>
			<point x="562" y="0" type="curve" smooth="yes"/>
			<point x="688" y="0" type="line"/>
			<point x="849" y="519" type="line"/>
			<point x="731" y="519" type="line" smooth="yes"/>
			<point x="711" y="519"/>
			<point x="694" y="508"/>
			<point x="690" y="492" type="curve" smooth="yes"/>
			<point x="635" y="259" type="line" smooth="yes"/>
			<point x="631" y="241"/>
			<point x="616" y="174"/>
			<point x="613" y="157" type="curve"/>
			<point x="609" y="174"/>
			<point x="590" y="242"/>
			<point x="585" y="259" type="curve" smooth="yes"/>
			<point x="523" y="492" type="line" smooth="yes"/>
			<point x="519" y="508"/>
			<point x="503" y="519"/>
			<point x="480" y="519" type="curve" smooth="yes"/>
			<point x="411" y="519" type="line" smooth="yes"/>
			<point x="391" y="519"/>
			<point x="374" y="508"/>
			<point x="370" y="492" type="curve" smooth="yes"/>
			<point x="305" y="259" type="line" smooth="yes"/>
			<point x="300" y="241"/>
			<point x="279" y="171"/>
			<point x="275" y="158" type="curve"/>
			<point x="270" y="191"/>
			<point x="263" y="224"/>
			<point x="255" y="259" type="curve" smooth="yes"/>
			<point x="203" y="492" type="line" smooth="yes"/>
			<point x="199" y="508"/>
			<point x="183" y="519"/>
			<point x="160" y="519" type="curve" smooth="yes"/>
			<point x="36" y="519" type="line"/>
		</contour>
		<contour>
			<point x="141" y="481" type="line"/>
			<point x="215" y="481" type="line"/>
			<point x="215" y="519" type="line"/>
			<point x="141" y="519" type="line"/>
		</contour>
		<contour>
			<point x="679" y="481" type="line"/>
			<point x="753" y="481" type="line"/>
			<point x="753" y="519" type="line"/>
			<point x="679" y="519" type="line"/>
		</contour>
		<component base="SerifSpurLeft" xOffset="117" yOffset="519"/>
		<component base="SerifSpurRight" xOffset="191" yOffset="519"/>
		<component base="SerifSpurLeft" xOffset="725" yOffset="519"/>
		<component base="SerifSpurRight" xOffset="799" yOffset="519"/>
	</outline>
</glyph>
<glyph name="x" format="2">
	<advance width="589"/>
	<unicode hex="0078"/>
	<anchor x="295" y="519" name="top"/>
	<anchor x="295" y="0" name="bottom"/>
	<note>
		x
	</note>
	<outline>
		<contour>
			<point x="18" y="0" type="line"/>
			<point x="18" y="0" type="line"/>
			<point x="156" y="0" type="line" smooth="yes"/>
			<point x="176" y="0"/>
			<point x="189" y="14"/>
			<point x="197" y="27" type="curve" smooth="yes"/>
			<point x="273" y="156" type="line" smooth="yes"/>
			<point x="278" y="165"/>
			<point x="283" y="175"/>
			<point x="287" y="186" type="curve"/>
			<point x="379" y="27" type="line" smooth="yes"/>
			<point x="388" y="12"/>
			<point x="401" y="0"/>
			<point x="422" y="0" type="curve" smooth="yes"/>
			<point x="571" y="0" type="line"/>
			<point x="397" y="275" type="line"/>
			<point x="564" y="519" type="line"/>
			<point x="422" y="519" type="line" smooth="yes"/>
			<point x="407" y="519"/>
			<point x="397" y="513"/>
			<point x="388" y="498" type="curve" smooth="yes"/>
			<point x="322" y="382" type="line" smooth="yes"/>
			<point x="315" y="370"/>
			<point x="309" y="359"/>
			<point x="305" y="347" type="curve"/>
			<point x="212" y="500" type="line" smooth="yes"/>
			<point x="204" y="513"/>
			<point x="197" y="519"/>
			<point x="174" y="519" type="curve" smooth="yes"/>
			<point x="25" y="519" type="line"/>
			<point x="192" y="268" type="line"/>
		</contour>
		<contour>
			<point x="156" y="481" type="line"/>
			<point x="230" y="481" type="line"/>
			<point x="230" y="519" type="line"/>
			<point x="156" y="519" type="line"/>
		</contour>
		<contour>
			<point x="367" y="481" type="line"/>
			<point x="441" y="481" type="line"/>
			<point x="441" y="519" type="line"/>
			<point x="367" y="519" type="line"/>
		</contour>
		<contour>
			<point x="440" y="38" type="line"/>
			<point x="366" y="38" type="line"/>
			<point x="366" y="0" type="line"/>
			<point x="440" y="0" type="line"/>
		</contour>
		<contour>
			<point x="215" y="38" type="line"/>
			<point x="141" y="38" type="line"/>
			<point x="141" y="0" type="line"/>
			<point x="215" y="0" type="line"/>
		</contour>
		<component base="SerifSpurLeft" xOffset="132" yOffset="519"/>
		<component base="SerifSpurRight" xOffset="206" yOffset="519"/>
		<component base="SerifSpurLeft" xOffset="417" yOffset="519"/>
		<component base="SerifSpurRight" xOffset="487" yOffset="519"/>
		<component base="SerifSpurLeft" xScale="-1" yScale="-1" xOffset="464"/>
		<component base="SerifSpurLeft" xScale="-1" yScale="-1" xOffset="169"/>
		<component base="SerifSpurRight" xScale="-1" yScale="-1" xOffset="95"/>
		<component base="SerifSpurRight" xScale="-1" yScale="-1" xOffset="390"/>
	</outline>
</glyph>
<glyph name="y" format="2">
	<advance width="589"/>
	<unicode hex="0079"/>
	<anchor x="297" y="519" name="top"/>
	<anchor x="396" y="-26" name="bottom"/>
	<note>
		y
	</note>
	<outline>
		<contour>
			<point x="127" y="-165" type="line"/>
			<point x="243" y="-165" type="line" smooth="yes"/>
			<point x="272" y="-165"/>
			<point x="283" y="-155"/>
			<point x="292" y="-135" type="curve" smooth="yes"/>
			<point x="569" y="519" type="line"/>
			<point x="444" y="519" type="line" smooth="yes"/>
			<point x="427" y="519"/>
			<point x="408" y="507"/>
			<point x="403" y="492" type="curve" smooth="yes"/>
			<point x="326" y="269" type="line" smooth="yes"/>
			<point x="323" y="259"/>
			<point x="307" y="215"/>
			<point x="304" y="206" type="curve"/>
			<point x="299" y="227"/>
			<point x="292" y="247"/>
			<point x="284" y="268" type="curve" smooth="yes"/>
			<point x="199" y="492" type="line" smooth="yes"/>
			<point x="193" y="507"/>
			<point x="181" y="519"/>
			<point x="157" y="519" type="curve" smooth="yes"/>
			<point x="20" y="519" type="line"/>
			<point x="227" y="46" type="line"/>
		</contour>
		<contour>
			<point x="141" y="481" type="line"/>
			<point x="215" y="481" type="line"/>
			<point x="215" y="519" type="line"/>
			<point x="141" y="519" type="line"/>
		</contour>
		<contour>
			<point x="392" y="481" type="line"/>
			<point x="466" y="481" type="line"/>
			<point x="466" y="519" type="line"/>
			<point x="392" y="519" type="line"/>
		</contour>
		<component base="SerifSpurLeft" xOffset="117" yOffset="519"/>
		<component base="SerifSpurRight" xOffset="191" yOffset="519"/>
		<component base="SerifSpurLeft" xOffset="428" yOffset="519"/>
		<component base="SerifSpurRight" xOffset="502" yOffset="519"/>
	</outline>
</glyph>
<glyph name="z" format="2">
	<advance width="490"/>
	<unicode hex="007A"/>
	<anchor x="245" y="513" name="top"/>
	<anchor x="245" y="0" name="bottom"/>
	<note>
		z
	</note>
	<outline>
		<contour>
			<point x="35" y="0" type="line"/>
			<point x="455" y="0" type="line"/>
			<point x="455" y="115" type="line"/>
			<point x="214" y="115" type="line"/>
			<point x="430" y="401" type="line" smooth="yes"/>
			<point x="441" y="416"/>
			<point x="450" y="436"/>
			<point x="450" y="457" type="curve" smooth="yes"/>
			<point x="450" y="519" type="line"/>
			<point x="49" y="519" type="line"/>
			<point x="49" y="404" type="line"/>
			<point x="274" y="404" type="line"/>
			<point x="55" y="114" type="line" smooth="yes"/>
			<point x="42" y="97"/>
			<point x="35" y="76"/>
			<point x="35" y="63" type="curve" smooth="yes"/>
		</contour>
		<component base="SerifUpLeftLower" xScale="-1" yScale="-1" xOffset="49" yOffset="404"/>
		<component base="SerifUpLeftLower" xOffset="455" yOffset="114"/>
	</outline>
</glyph>
<glyph name="braceleft" format="2">
	<advance width="352"/>
	<unicode hex="007B"/>
	<note>
		braceleft
	</note>
	<outline>
		<contour>
			<point x="272" y="-162" type="curve" smooth="yes"/>
			<point x="298" y="-162" type="line"/>
			<point x="298" y="-95" type="line" smooth="yes"/>
			<point x="298" y="-76"/>
			<point x="279" y="-66"/>
			<point x="266" y="-66" type="curve" smooth="yes"/>
			<point x="265" y="-66" type="line" smooth="yes"/>
			<point x="224" y="-66"/>
			<point x="205" y="-38"/>
			<point x="205" y="8" type="curve" smooth="yes"/>
			<point x="205" y="64"/>
			<point x="219" y="149"/>
			<point x="219" y="197" type="curve" smooth="yes"/>
			<point x="219" y="248"/>
			<point x="191" y="292"/>
			<point x="139" y="308" type="curve"/>
			<point x="191" y="324"/>
			<point x="219" y="370"/>
			<point x="219" y="420" type="curve" smooth="yes"/>
			<point x="219" y="468"/>
			<point x="205" y="553"/>
			<point x="205" y="609" type="curve" smooth="yes"/>
			<point x="205" y="654"/>
			<point x="224" y="681"/>
			<point x="265" y="682" type="curve" smooth="yes"/>
			<point x="266" y="682" type="line" smooth="yes"/>
			<point x="279" y="682"/>
			<point x="298" y="694"/>
			<point x="298" y="712" type="curve" smooth="yes"/>
			<point x="298" y="779" type="line"/>
			<point x="272" y="779" type="line" smooth="yes"/>
			<point x="139" y="779"/>
			<point x="70" y="713"/>
			<point x="70" y="599" type="curve" smooth="yes"/>
			<point x="70" y="546"/>
			<point x="88" y="470"/>
			<point x="88" y="418" type="curve" smooth="yes"/>
			<point x="88" y="379"/>
			<point x="75" y="352"/>
			<point x="35" y="352" type="curve"/>
			<point x="35" y="265" type="line"/>
			<point x="75" y="265"/>
			<point x="88" y="239"/>
			<point x="88" y="199" type="curve" smooth="yes"/>
			<point x="88" y="147"/>
			<point x="70" y="71"/>
			<point x="70" y="18" type="curve" smooth="yes"/>
			<point x="70" y="-98"/>
			<point x="139" y="-162"/>
		</contour>
	</outline>
</glyph>
<glyph name="asciitilde" format="2">
	<advance width="586"/>
	<unicode hex="007E"/>
	<note>
		asciitilde
	</note>
	<outline>
		<contour>
			<point x="370" y="339" type="curve"/>
			<point x="370" y="339" type="line"/>
			<point x="331" y="339"/>
			<point x="273" y="376"/>
			<point x="210" y="376" type="curve" smooth="yes"/>
			<point x="106" y="376"/>
			<point x="45" y="305"/>
			<point x="45" y="193" type="curve"/>
			<point x="170" y="193" type="line"/>
			<point x="170" y="233"/>
			<point x="188" y="254"/>
			<point x="220" y="254" type="curve" smooth="yes"/>
			<point x="256" y="254"/>
			<point x="334" y="216"/>
			<point x="380" y="216" type="curve" smooth="yes"/>
			<point x="486" y="216"/>
			<point x="545" y="288"/>
			<point x="545" y="400" type="curve"/>
			<point x="420" y="400" type="line"/>
			<point x="420" y="360"/>
			<point x="402" y="339"/>
		</contour>
	</outline>
</glyph>
<glyph name="exclamdown" format="2">
	<advance width="302"/>
	<unicode hex="00A1"/>
	<note>
		exclamdown
	</note>
	<outline>
		<contour>
			<point x="225" y="-165" type="line"/>
			<point x="225" y="99" type="line" smooth="yes"/>
			<point x="225" y="160"/>
			<point x="217" y="220"/>
			<point x="205" y="283" type="curve"/>
			<point x="100" y="283" type="line"/>
			<point x="88" y="220"/>
			<point x="80" y="160"/>
			<point x="80" y="99" type="curve" smooth="yes"/>
			<point x="80" y="-165" type="line"/>
			<point x="225" y="-165" type="line"/>
		</contour>
		<contour>
			<point x="63" y="441" type="curve"/>
			<point x="63" y="441" type="line"/>
			<point x="63" y="393"/>
			<point x="102" y="356"/>
			<point x="151" y="356" type="curve" smooth="yes"/>
			<point x="201" y="356"/>
			<point x="239" y="393"/>
			<point x="239" y="441" type="curve" smooth="yes"/>
			<point x="239" y="490"/>
			<point x="202" y="527"/>
			<point x="151" y="527" type="curve" smooth="yes"/>
			<point x="102" y="527"/>
			<point x="63" y="490"/>
		</contour>
	</outline>
</glyph>
<glyph name="cent" format="2">
	<advance width="485"/>
	<unicode hex="00A2"/>
	<note>
		cent
	</note>
	<outline>
		<contour>
			<point x="190" y="-106" type="line"/>
			<point x="247" y="-106" type="line" smooth="yes"/>
			<point x="271" y="-106"/>
			<point x="286" y="-88"/>
			<point x="288" y="-69" type="curve" smooth="yes"/>
			<point x="359" y="632" type="line"/>
			<point x="302" y="632" type="line" smooth="yes"/>
			<point x="279" y="632"/>
			<point x="263" y="614"/>
			<point x="261" y="595" type="curve" smooth="yes"/>
		</contour>
		<component base="c"/>
	</outline>
</glyph>
<glyph name="sterling" format="2">
	<advance width="636"/>
	<unicode hex="00A3"/>
	<note>
		sterling
	</note>
	<outline>
		<contour>
			<point x="58" y="0" type="line"/>
			<point x="601" y="0" type="line"/>
			<point x="601" y="128" type="line"/>
			<point x="350" y="128" type="line" smooth="yes"/>
			<point x="319" y="128"/>
			<point x="289" y="124"/>
			<point x="260" y="117" type="curve"/>
			<point x="285" y="145"/>
			<point x="301" y="177"/>
			<point x="301" y="217" type="curve" smooth="yes"/>
			<point x="301" y="295" type="line"/>
			<point x="448" y="295" type="line" smooth="yes"/>
			<point x="473" y="295"/>
			<point x="491" y="312"/>
			<point x="491" y="333" type="curve" smooth="yes"/>
			<point x="491" y="392" type="line"/>
			<point x="301" y="392" type="line"/>
			<point x="301" y="501" type="line" smooth="yes"/>
			<point x="301" y="572"/>
			<point x="328" y="610"/>
			<point x="381" y="610" type="curve" smooth="yes"/>
			<point x="410" y="610"/>
			<point x="428" y="597"/>
			<point x="453" y="572" type="curve" smooth="yes"/>
			<point x="466" y="559"/>
			<point x="480" y="553"/>
			<point x="495" y="553" type="curve" smooth="yes"/>
			<point x="506" y="553"/>
			<point x="518" y="556"/>
			<point x="530" y="563" type="curve" smooth="yes"/>
			<point x="551" y="576"/>
			<point x="571" y="589"/>
			<point x="592" y="602" type="curve"/>
			<point x="552" y="682"/>
			<point x="485" y="737"/>
			<point x="381" y="737" type="curve" smooth="yes"/>
			<point x="226" y="737"/>
			<point x="142" y="633"/>
			<point x="142" y="500" type="curve" smooth="yes"/>
			<point x="142" y="392" type="line"/>
			<point x="100" y="392" type="line" smooth="yes"/>
			<point x="67" y="392"/>
			<point x="49" y="370"/>
			<point x="49" y="343" type="curve" smooth="yes"/>
			<point x="49" y="295" type="line"/>
			<point x="142" y="295" type="line"/>
			<point x="142" y="176" type="line" smooth="yes"/>
			<point x="142" y="128"/>
			<point x="103" y="101"/>
			<point x="58" y="93" type="curve"/>
		</contour>
		<component base="SerifUpLeftCaps" xOffset="601" yOffset="128"/>
	</outline>
</glyph>
<glyph name="currency" format="2">
	<advance width="577"/>
	<unicode hex="00A4"/>
	<note>
		currency
	</note>
	<outline>
		<contour>
			<point x="98" y="337" type="curve"/>
			<point x="98" y="337" type="line"/>
			<point x="98" y="304"/>
			<point x="107" y="272"/>
			<point x="122" y="244" type="curve"/>
			<point x="46" y="169" type="line"/>
			<point x="123" y="94" type="line"/>
			<point x="200" y="169" type="line"/>
			<point x="227" y="156"/>
			<point x="256" y="148"/>
			<point x="288" y="148" type="curve" smooth="yes"/>
			<point x="321" y="148"/>
			<point x="352" y="156"/>
			<point x="380" y="171" type="curve"/>
			<point x="455" y="97" type="line"/>
			<point x="533" y="172" type="line"/>
			<point x="456" y="248" type="line"/>
			<point x="471" y="275"/>
			<point x="478" y="305"/>
			<point x="478" y="337" type="curve" smooth="yes"/>
			<point x="478" y="372"/>
			<point x="469" y="402"/>
			<point x="454" y="430" type="curve"/>
			<point x="530" y="505" type="line"/>
			<point x="453" y="580" type="line"/>
			<point x="377" y="504" type="line"/>
			<point x="350" y="519"/>
			<point x="320" y="526"/>
			<point x="288" y="526" type="curve" smooth="yes"/>
			<point x="255" y="526"/>
			<point x="224" y="518"/>
			<point x="196" y="503" type="curve"/>
			<point x="121" y="577" type="line"/>
			<point x="43" y="503" type="line"/>
			<point x="120" y="427" type="line"/>
			<point x="107" y="400"/>
			<point x="98" y="370"/>
		</contour>
		<contour>
			<point x="212" y="337" type="curve"/>
			<point x="212" y="337" type="line"/>
			<point x="212" y="380"/>
			<point x="246" y="418"/>
			<point x="288" y="418" type="curve" smooth="yes"/>
			<point x="331" y="418"/>
			<point x="365" y="381"/>
			<point x="365" y="337" type="curve" smooth="yes"/>
			<point x="365" y="293"/>
			<point x="331" y="258"/>
			<point x="288" y="258" type="curve" smooth="yes"/>
			<point x="246" y="258"/>
			<point x="212" y="294"/>
		</contour>
	</outline>
</glyph>
<glyph name="yen" format="2">
	<advance width="613"/>
	<unicode hex="00A5"/>
	<note>
		yen
	</note>
	<outline>
		<contour>
			<point x="79" y="237" type="line"/>
			<point x="229" y="237" type="line"/>
			<point x="229" y="193" type="line"/>
			<point x="79" y="193" type="line"/>
			<point x="79" y="111" type="line"/>
			<point x="229" y="111" type="line"/>
			<point x="229" y="0" type="line"/>
			<point x="384" y="0" type="line"/>
			<point x="384" y="111" type="line"/>
			<point x="534" y="111" type="line"/>
			<point x="534" y="193" type="line"/>
			<point x="384" y="193" type="line"/>
			<point x="384" y="237" type="line"/>
			<point x="534" y="237" type="line"/>
			<point x="534" y="320" type="line"/>
			<point x="410" y="320" type="line"/>
			<point x="605" y="729" type="line"/>
			<point x="475" y="729" type="line" smooth="yes"/>
			<point x="447" y="729"/>
			<point x="428" y="712"/>
			<point x="420" y="692" type="curve" smooth="yes"/>
			<point x="338" y="480" type="line" smooth="yes"/>
			<point x="325" y="444"/>
			<point x="315" y="417"/>
			<point x="308" y="386" type="curve"/>
			<point x="301" y="415"/>
			<point x="291" y="444"/>
			<point x="276" y="480" type="curve" smooth="yes"/>
			<point x="193" y="692" type="line" smooth="yes"/>
			<point x="184" y="715"/>
			<point x="166" y="729"/>
			<point x="137" y="729" type="curve" smooth="yes"/>
			<point x="8" y="729" type="line"/>
			<point x="203" y="320" type="line"/>
			<point x="79" y="320" type="line"/>
			<point x="79" y="237" type="line"/>
		</contour>
	</outline>
</glyph>
<glyph name="brokenbar" format="2">
	<advance width="276"/>
	<unicode hex="00A6"/>
	<note>
		brokenbar
	</note>
	<outline>
		<contour>
			<point x="78" y="369" type="line"/>
			<point x="198" y="369" type="line"/>
			<point x="198" y="779" type="line"/>
			<point x="78" y="779" type="line"/>
			<point x="78" y="369" type="line"/>
		</contour>
		<contour>
			<point x="78" y="-165" type="line"/>
			<point x="198" y="-165" type="line"/>
			<point x="198" y="245" type="line"/>
			<point x="78" y="245" type="line"/>
			<point x="78" y="-165" type="line"/>
		</contour>
	</outline>
</glyph>
<glyph name="section" format="2">
	<advance width="517"/>
	<unicode hex="00A7"/>
	<note>
		section
	</note>
	<outline>
		<contour>
			<point x="221" y="-59" type="curve" smooth="yes"/>
			<point x="355" y="-59"/>
			<point x="439" y="8"/>
			<point x="439" y="118" type="curve" smooth="yes"/>
			<point x="439" y="164"/>
			<point x="420" y="195"/>
			<point x="391" y="219" type="curve"/>
			<point x="446" y="247"/>
			<point x="469" y="295"/>
			<point x="469" y="347" type="curve" smooth="yes"/>
			<point x="469" y="423"/>
			<point x="404" y="466"/>
			<point x="335" y="496" type="curve" smooth="yes"/>
			<point x="273" y="522"/>
			<point x="199" y="544"/>
			<point x="199" y="579" type="curve" smooth="yes"/>
			<point x="199" y="607"/>
			<point x="222" y="627"/>
			<point x="270" y="627" type="curve" smooth="yes"/>
			<point x="319" y="627"/>
			<point x="351" y="597"/>
			<point x="381" y="597" type="curve" smooth="yes"/>
			<point x="396" y="597"/>
			<point x="403" y="602"/>
			<point x="411" y="614" type="curve" smooth="yes"/>
			<point x="446" y="669" type="line"/>
			<point x="408" y="707"/>
			<point x="343" y="736"/>
			<point x="267" y="736" type="curve" smooth="yes"/>
			<point x="141" y="736"/>
			<point x="62" y="667"/>
			<point x="62" y="572" type="curve" smooth="yes"/>
			<point x="62" y="525"/>
			<point x="78" y="489"/>
			<point x="111" y="459" type="curve"/>
			<point x="56" y="433"/>
			<point x="32" y="388"/>
			<point x="32" y="338" type="curve" smooth="yes"/>
			<point x="32" y="252"/>
			<point x="96" y="212"/>
			<point x="169" y="184" type="curve" smooth="yes"/>
			<point x="229" y="160"/>
			<point x="304" y="144"/>
			<point x="304" y="93" type="curve" smooth="yes"/>
			<point x="304" y="62"/>
			<point x="279" y="46"/>
			<point x="235" y="46" type="curve" smooth="yes"/>
			<point x="186" y="46"/>
			<point x="143" y="84"/>
			<point x="110" y="84" type="curve" smooth="yes"/>
			<point x="92" y="84"/>
			<point x="81" y="77"/>
			<point x="71" y="63" type="curve" smooth="yes"/>
			<point x="35" y="6" type="line"/>
			<point x="76" y="-32"/>
			<point x="155" y="-59"/>
		</contour>
		<contour>
			<point x="308" y="267" type="curve"/>
			<point x="282" y="278"/>
			<point x="253" y="288"/>
			<point x="228" y="300" type="curve" smooth="yes"/>
			<point x="195" y="316"/>
			<point x="169" y="335"/>
			<point x="169" y="362" type="curve" smooth="yes"/>
			<point x="169" y="383"/>
			<point x="178" y="395"/>
			<point x="196" y="408" type="curve"/>
			<point x="226" y="394"/>
			<point x="261" y="381"/>
			<point x="287" y="368" type="curve" smooth="yes"/>
			<point x="314" y="354"/>
			<point x="334" y="337"/>
			<point x="334" y="313" type="curve" smooth="yes"/>
			<point x="334" y="294"/>
			<point x="326" y="277"/>
		</contour>
	</outline>
</glyph>
<glyph name="dieresis" format="2">
	<advance width="396"/>
	<unicode hex="00A8"/>
	<note>
		dieresis
	</note>
	<outline>
		<contour>
			<point x="182" y="648" type="curve"/>
			<point x="182" y="648" type="line"/>
			<point x="182" y="692"/>
			<point x="145" y="727"/>
			<point x="100" y="727" type="curve" smooth="yes"/>
			<point x="58" y="727"/>
			<point x="21" y="691"/>
			<point x="21" y="648" type="curve" smooth="yes"/>
			<point x="21" y="606"/>
			<point x="58" y="571"/>
			<point x="100" y="571" type="curve" smooth="yes"/>
			<point x="145" y="571"/>
			<point x="182" y="605"/>
		</contour>
		<contour>
			<point x="375" y="648" type="curve"/>
			<point x="375" y="648" type="line"/>
			<point x="375" y="692"/>
			<point x="340" y="727"/>
			<point x="294" y="727" type="curve" smooth="yes"/>
			<point x="251" y="727"/>
			<point x="214" y="692"/>
			<point x="214" y="648" type="curve" smooth="yes"/>
			<point x="214" y="605"/>
			<point x="251" y="571"/>
			<point x="294" y="571" type="curve" smooth="yes"/>
			<point x="340" y="571"/>
			<point x="375" y="605"/>
		</contour>
	</outline>
</glyph>
<glyph name="copyright" format="2">
	<advance width="775"/>
	<unicode hex="00A9"/>
	<note>
		copyright
	</note>
	<outline>
		<contour>
			<point x="182" y="364" type="curve" smooth="yes"/>
			<point x="182" y="307"/>
			<point x="201" y="252"/>
			<point x="239" y="212" type="curve" smooth="yes"/>
			<point x="272" y="178"/>
			<point x="322" y="155"/>
			<point x="389" y="155" type="curve" smooth="yes"/>
			<point x="454" y="155"/>
			<point x="507" y="177"/>
			<point x="540" y="223" type="curve"/>
			<point x="490" y="275" type="line" smooth="yes"/>
			<point x="485" y="280"/>
			<point x="480" y="283"/>
			<point x="474" y="283" type="curve" smooth="yes"/>
			<point x="466" y="283"/>
			<point x="458" y="278"/>
			<point x="453" y="274" type="curve" smooth="yes"/>
			<point x="435" y="260"/>
			<point x="419" y="257"/>
			<point x="400" y="257" type="curve" smooth="yes"/>
			<point x="343" y="257"/>
			<point x="309" y="301"/>
			<point x="309" y="366" type="curve" smooth="yes"/>
			<point x="309" y="432"/>
			<point x="345" y="474"/>
			<point x="410" y="474" type="curve" smooth="yes"/>
			<point x="418" y="474"/>
			<point x="440" y="474"/>
			<point x="460" y="471" type="curve"/>
			<point x="466" y="452" type="line" smooth="yes"/>
			<point x="471" y="435"/>
			<point x="477" y="425"/>
			<point x="494" y="425" type="curve" smooth="yes"/>
			<point x="535" y="425" type="line"/>
			<point x="535" y="546" type="line"/>
			<point x="502" y="560"/>
			<point x="460" y="578"/>
			<point x="404" y="578" type="curve" smooth="yes"/>
			<point x="341" y="578"/>
			<point x="284" y="555"/>
			<point x="244" y="517" type="curve" smooth="yes"/>
			<point x="203" y="478"/>
			<point x="182" y="426"/>
		</contour>
		<component base="largecircle" xOffset="-5"/>
	</outline>
</glyph>
<glyph name="ordfeminine" format="2">
	<advance width="366"/>
	<unicode hex="00AA"/>
	<anchor x="290" y="1" name="ogonek"/>
	<anchor x="165" y="0" name="bottom"/>
	<anchor x="171" y="316" name="top"/>
	<note>
		ordfeminine
	</note>
	<outline>
		<contour>
			<point x="114" y="412" type="curve" smooth="yes"/>
			<point x="154" y="412"/>
			<point x="181" y="427"/>
			<point x="207" y="449" type="curve"/>
			<point x="213" y="439" type="line" smooth="yes"/>
			<point x="222" y="422"/>
			<point x="229" y="417"/>
			<point x="253" y="417" type="curve" smooth="yes"/>
			<point x="306" y="417" type="line"/>
			<point x="306" y="611" type="line" smooth="yes"/>
			<point x="306" y="685"/>
			<point x="254" y="739"/>
			<point x="175" y="739" type="curve" smooth="yes"/>
			<point x="122" y="739"/>
			<point x="69" y="723"/>
			<point x="29" y="689" type="curve"/>
			<point x="50" y="653" type="line" smooth="yes"/>
			<point x="56" y="642"/>
			<point x="66" y="634"/>
			<point x="84" y="631" type="curve" smooth="yes"/>
			<point x="116" y="626"/>
			<point x="121" y="651"/>
			<point x="160" y="651" type="curve" smooth="yes"/>
			<point x="181" y="651"/>
			<point x="194" y="642"/>
			<point x="194" y="611" type="curve" smooth="yes"/>
			<point x="194" y="605" type="line"/>
			<point x="123" y="603"/>
			<point x="77" y="588"/>
			<point x="50" y="568" type="curve" smooth="yes"/>
			<point x="24" y="548"/>
			<point x="15" y="522"/>
			<point x="15" y="501" type="curve" smooth="yes"/>
			<point x="15" y="445"/>
			<point x="52" y="412"/>
		</contour>
		<contour>
			<point x="151" y="489" type="curve"/>
			<point x="133" y="489"/>
			<point x="125" y="491"/>
			<point x="125" y="507" type="curve" smooth="yes"/>
			<point x="125" y="523"/>
			<point x="141" y="535"/>
			<point x="194" y="537" type="curve"/>
			<point x="194" y="507" type="line"/>
			<point x="179" y="492"/>
			<point x="167" y="489"/>
		</contour>
		<contour>
			<point x="292" y="417" type="line"/>
			<point x="352" y="417" type="line"/>
			<point x="352" y="470" type="line" smooth="yes"/>
			<point x="352" y="485"/>
			<point x="344" y="493"/>
			<point x="323" y="499" type="curve" smooth="yes"/>
			<point x="302" y="505" type="line"/>
		</contour>
	</outline>
</glyph>
<glyph name="guillemotleft" format="2">
	<advance width="506"/>
	<unicode hex="00AB"/>
	<note>
		guillemotleft
	</note>
	<outline>
		<contour>
			<point x="186" y="62" type="line"/>
			<point x="237" y="85" type="line" smooth="yes"/>
			<point x="253" y="91.667"/>
			<point x="261" y="102.667"/>
			<point x="261" y="116" type="curve" smooth="yes"/>
			<point x="261" y="124"/>
			<point x="258.333" y="132.333"/>
			<point x="253" y="141" type="curve" smooth="yes"/>
			<point x="193" y="249" type="line" smooth="yes"/>
			<point x="187" y="259"/>
			<point x="181" y="266.667"/>
			<point x="175" y="272" type="curve"/>
			<point x="181.667" y="278"/>
			<point x="187.667" y="286"/>
			<point x="193" y="296" type="curve" smooth="yes"/>
			<point x="253" y="403" type="line" smooth="yes"/>
			<point x="258.333" y="412.333"/>
			<point x="261" y="421"/>
			<point x="261" y="429" type="curve" smooth="yes"/>
			<point x="261" y="442.333"/>
			<point x="253" y="453.333"/>
			<point x="237" y="460" type="curve" smooth="yes"/>
			<point x="186" y="483" type="line"/>
			<point x="55" y="282" type="line"/>
			<point x="55" y="263" type="line"/>
			<point x="186" y="62" type="line"/>
		</contour>
		<contour>
			<point x="366" y="62" type="line"/>
			<point x="417" y="85" type="line" smooth="yes"/>
			<point x="433" y="91.667"/>
			<point x="441" y="102.667"/>
			<point x="441" y="116" type="curve" smooth="yes"/>
			<point x="441" y="124"/>
			<point x="438.333" y="132.333"/>
			<point x="433" y="141" type="curve" smooth="yes"/>
			<point x="373" y="249" type="line" smooth="yes"/>
			<point x="367" y="259"/>
			<point x="361" y="266.667"/>
			<point x="355" y="272" type="curve"/>
			<point x="361.667" y="278"/>
			<point x="367.667" y="286"/>
			<point x="373" y="296" type="curve" smooth="yes"/>
			<point x="433" y="403" type="line" smooth="yes"/>
			<point x="438.333" y="412.333"/>
			<point x="441" y="421"/>
			<point x="441" y="429" type="curve" smooth="yes"/>
			<point x="441" y="442.333"/>
			<point x="433" y="453.333"/>
			<point x="417" y="460" type="curve" smooth="yes"/>
			<point x="366" y="483" type="line"/>
			<point x="235" y="282" type="line"/>
			<point x="235" y="263" type="line"/>
			<point x="366" y="62" type="line"/>
		</contour>
	</outline>
</glyph>
<glyph name="registered" format="2">
	<advance width="775"/>
	<unicode hex="00AE"/>
	<anchor x="-150" y="410" name="top"/>
	<anchor x="369" y="0" name="bottom"/>
	<note>
		registered
	</note>
	<outline>
		<contour>
			<point x="199" y="166" type="line"/>
			<point x="397" y="166" type="line"/>
			<point x="397" y="213" type="line" smooth="yes"/>
			<point x="397" y="228"/>
			<point x="387" y="234"/>
			<point x="370" y="238" type="curve" smooth="yes"/>
			<point x="353" y="242" type="line"/>
			<point x="353" y="309" type="line"/>
			<point x="370" y="309" type="line" smooth="yes"/>
			<point x="387" y="309"/>
			<point x="392" y="304"/>
			<point x="397" y="293" type="curve" smooth="yes"/>
			<point x="449" y="186" type="line" smooth="yes"/>
			<point x="456" y="171"/>
			<point x="474" y="166"/>
			<point x="489" y="166" type="curve" smooth="yes"/>
			<point x="585" y="166" type="line"/>
			<point x="585" y="213" type="line" smooth="yes"/>
			<point x="585" y="226"/>
			<point x="576" y="234"/>
			<point x="558" y="238" type="curve" smooth="yes"/>
			<point x="546" y="241" type="line"/>
			<point x="517" y="300" type="line" smooth="yes"/>
			<point x="509" y="316"/>
			<point x="496" y="326"/>
			<point x="480" y="333" type="curve"/>
			<point x="530" y="358"/>
			<point x="554" y="401"/>
			<point x="554" y="451" type="curve" smooth="yes"/>
			<point x="554" y="539"/>
			<point x="481" y="576"/>
			<point x="383" y="576" type="curve" smooth="yes"/>
			<point x="199" y="576" type="line"/>
			<point x="199" y="528" type="line" smooth="yes"/>
			<point x="199" y="513"/>
			<point x="209" y="508"/>
			<point x="225" y="504" type="curve" smooth="yes"/>
			<point x="242" y="500" type="line"/>
			<point x="242" y="242" type="line"/>
			<point x="225" y="238" type="line" smooth="yes"/>
			<point x="209" y="234"/>
			<point x="199" y="228"/>
			<point x="199" y="213" type="curve" smooth="yes"/>
		</contour>
		<contour>
			<point x="353" y="386" type="line"/>
			<point x="353" y="492" type="line"/>
			<point x="383" y="492" type="line" smooth="yes"/>
			<point x="425" y="492"/>
			<point x="444" y="472"/>
			<point x="444" y="442" type="curve" smooth="yes"/>
			<point x="444" y="409"/>
			<point x="426" y="386"/>
			<point x="384" y="386" type="curve" smooth="yes"/>
		</contour>
		<component base="largecircle" xOffset="-5"/>
	</outline>
</glyph>
<glyph name="degree" format="2">
	<advance width="391"/>
	<unicode hex="00B0"/>
	<note>
		degree
	</note>
	<outline>
		<contour>
			<point x="13" y="560" type="curve"/>
			<point x="13" y="560" type="line"/>
			<point x="13" y="462"/>
			<point x="94" y="383"/>
			<point x="195" y="383" type="curve" smooth="yes"/>
			<point x="298" y="383"/>
			<point x="378" y="462"/>
			<point x="378" y="560" type="curve" smooth="yes"/>
			<point x="378" y="659"/>
			<point x="298" y="738"/>
			<point x="195" y="738" type="curve" smooth="yes"/>
			<point x="93" y="738"/>
			<point x="13" y="659"/>
		</contour>
		<contour>
			<point x="120" y="559" type="curve"/>
			<point x="120" y="559" type="line"/>
			<point x="120" y="604"/>
			<point x="151" y="639"/>
			<point x="195" y="639" type="curve" smooth="yes"/>
			<point x="239" y="639"/>
			<point x="270" y="604"/>
			<point x="270" y="559" type="curve" smooth="yes"/>
			<point x="270" y="515"/>
			<point x="239" y="480"/>
			<point x="195" y="480" type="curve" smooth="yes"/>
			<point x="152" y="480"/>
			<point x="120" y="514"/>
		</contour>
	</outline>
</glyph>
<glyph name="plusminus" format="2">
	<advance width="594"/>
	<unicode hex="00B1"/>
	<note>
		plusminus
	</note>
	<outline>
		<contour>
			<point x="233" y="636" type="line"/>
			<point x="233" y="468" type="line"/>
			<point x="49" y="468" type="line"/>
			<point x="49" y="357" type="line"/>
			<point x="233" y="357" type="line"/>
			<point x="233" y="197" type="line"/>
			<point x="359" y="197" type="line"/>
			<point x="359" y="357" type="line"/>
			<point x="544" y="357" type="line"/>
			<point x="544" y="468" type="line"/>
			<point x="359" y="468" type="line"/>
			<point x="359" y="636" type="line"/>
			<point x="233" y="636" type="line"/>
		</contour>
		<contour>
			<point x="49" y="40" type="line"/>
			<point x="544" y="40" type="line"/>
			<point x="544" y="151" type="line"/>
			<point x="49" y="151" type="line"/>
			<point x="49" y="40" type="line"/>
		</contour>
	</outline>
</glyph>
<glyph name="twosuperior" format="2">
	<advance width="341"/>
	<unicode hex="00B2"/>
	<note>
		twosuperior
	</note>
	<outline>
		<contour>
			<point x="29" y="450" type="line"/>
			<point x="308" y="450" type="line"/>
			<point x="308" y="553" type="line"/>
			<point x="254" y="553" type="line" smooth="yes"/>
			<point x="235" y="553"/>
			<point x="213" y="548"/>
			<point x="189" y="540" type="curve"/>
			<point x="236" y="589" type="line" smooth="yes"/>
			<point x="274" y="628"/>
			<point x="305" y="666"/>
			<point x="305" y="718" type="curve" smooth="yes"/>
			<point x="305" y="783"/>
			<point x="257" y="833"/>
			<point x="176" y="833" type="curve" smooth="yes"/>
			<point x="102" y="833"/>
			<point x="43" y="793"/>
			<point x="32" y="714" type="curve"/>
			<point x="87" y="704"/>
			<point x="100" y="702"/>
			<point x="109" y="702" type="curve" smooth="yes"/>
			<point x="128" y="702"/>
			<point x="136" y="709"/>
			<point x="149" y="731" type="curve" smooth="yes"/>
			<point x="152" y="737"/>
			<point x="163" y="740"/>
			<point x="169" y="740" type="curve" smooth="yes"/>
			<point x="188" y="740"/>
			<point x="188" y="730"/>
			<point x="188" y="714" type="curve" smooth="yes"/>
			<point x="188" y="685"/>
			<point x="176" y="659"/>
			<point x="145" y="628" type="curve" smooth="yes"/>
			<point x="48" y="531" type="line"/>
			<point x="35" y="519"/>
			<point x="29" y="503"/>
			<point x="29" y="487" type="curve" smooth="yes"/>
		</contour>
		<contour>
			<point x="230" y="532" type="line"/>
			<point x="308" y="553" type="line"/>
			<point x="308" y="589" type="line"/>
			<point x="267" y="589" type="line" smooth="yes"/>
			<point x="251" y="589"/>
			<point x="244" y="578"/>
			<point x="240" y="561" type="curve" smooth="yes"/>
			<point x="230" y="532" type="line"/>
		</contour>
	</outline>
</glyph>
<glyph name="threesuperior" format="2">
	<advance width="323"/>
	<unicode hex="00B3"/>
	<note>
		threesuperior
	</note>
	<outline>
		<contour>
			<point x="161" y="446" type="curve" smooth="yes"/>
			<point x="233" y="446"/>
			<point x="298" y="487"/>
			<point x="298" y="570" type="curve" smooth="yes"/>
			<point x="298" y="609"/>
			<point x="280" y="631"/>
			<point x="241" y="643" type="curve"/>
			<point x="278" y="660"/>
			<point x="292" y="690"/>
			<point x="292" y="731" type="curve" smooth="yes"/>
			<point x="292" y="784"/>
			<point x="242" y="829"/>
			<point x="166" y="829" type="curve" smooth="yes"/>
			<point x="92" y="829"/>
			<point x="38" y="791"/>
			<point x="25" y="712" type="curve"/>
			<point x="95" y="702" type="line" smooth="yes"/>
			<point x="112" y="699"/>
			<point x="121" y="706"/>
			<point x="130" y="722" type="curve" smooth="yes"/>
			<point x="139" y="738"/>
			<point x="147" y="742"/>
			<point x="160" y="742" type="curve" smooth="yes"/>
			<point x="181" y="742"/>
			<point x="186" y="728"/>
			<point x="186" y="711" type="curve" smooth="yes"/>
			<point x="186" y="683"/>
			<point x="172" y="674"/>
			<point x="124" y="674" type="curve"/>
			<point x="124" y="604" type="line"/>
			<point x="172" y="604"/>
			<point x="187" y="602"/>
			<point x="187" y="566" type="curve" smooth="yes"/>
			<point x="187" y="547"/>
			<point x="175" y="534"/>
			<point x="155" y="534" type="curve" smooth="yes"/>
			<point x="140" y="534"/>
			<point x="131" y="541"/>
			<point x="122" y="555" type="curve" smooth="yes"/>
			<point x="109" y="574"/>
			<point x="95" y="580"/>
			<point x="75" y="572" type="curve" smooth="yes"/>
			<point x="16" y="550" type="line"/>
			<point x="44" y="470"/>
			<point x="89" y="446"/>
		</contour>
	</outline>
</glyph>
<glyph name="acute" format="2">
	<advance width="333"/>
	<unicode hex="00B4"/>
	<note>
		acute
	</note>
	<outline>
		<contour>
			<point x="30" y="584" type="line"/>
			<point x="123" y="584" type="line" smooth="yes"/>
			<point x="147" y="584"/>
			<point x="158" y="590"/>
			<point x="173" y="605" type="curve" smooth="yes"/>
			<point x="303" y="737" type="line"/>
			<point x="153" y="737" type="line" smooth="yes"/>
			<point x="122" y="737"/>
			<point x="110" y="726"/>
			<point x="98" y="707" type="curve"/>
		</contour>
	</outline>
</glyph>
<glyph name="mu" format="2">
	<advance width="647"/>
	<unicode hex="00B5"/>
	<note>
		mu
	</note>
	<outline>
		<contour>
			<point x="118" y="-165" type="curve" smooth="yes"/>
			<point x="195" y="-165" type="line"/>
			<point x="195" y="-60" type="line" smooth="yes"/>
			<point x="195" y="-30.667"/>
			<point x="192.667" y="6.333"/>
			<point x="182" y="37" type="curve" smooth="yes"/>
			<point x="50" y="519" type="line"/>
			<point x="50" y="-103" type="line" smooth="yes"/>
			<point x="50" y="-143"/>
			<point x="75.333" y="-165"/>
		</contour>
		<component base="u"/>
	</outline>
</glyph>
<glyph name="paragraph" format="2">
	<advance width="817"/>
	<unicode hex="00B6"/>
	<note>
		paragraph
	</note>
	<outline>
		<contour>
			<point x="265" y="-108" type="line"/>
			<point x="400" y="-108" type="line"/>
			<point x="400" y="603" type="line"/>
			<point x="498" y="603" type="line"/>
			<point x="498" y="-108" type="line"/>
			<point x="633" y="-108" type="line"/>
			<point x="633" y="603" type="line"/>
			<point x="738" y="603" type="line"/>
			<point x="738" y="729" type="line"/>
			<point x="265" y="729" type="line"/>
			<point x="128" y="729"/>
			<point x="34" y="641"/>
			<point x="34" y="514" type="curve" smooth="yes"/>
			<point x="34" y="396"/>
			<point x="131" y="303"/>
			<point x="265" y="303" type="curve"/>
		</contour>
	</outline>
</glyph>
<glyph name="cedilla" format="2">
	<advance width="258"/>
	<unicode hex="00B8"/>
	<note>
		cedilla
	</note>
	<outline>
		<contour>
			<point x="99" y="-174" type="curve" smooth="yes"/>
			<point x="173" y="-174"/>
			<point x="233" y="-147"/>
			<point x="233" y="-97" type="curve" smooth="yes"/>
			<point x="233" y="-61"/>
			<point x="210" y="-37"/>
			<point x="156" y="-22" type="curve"/>
			<point x="164" y="9" type="line"/>
			<point x="68" y="9" type="line"/>
			<point x="45" y="-68" type="line"/>
			<point x="78" y="-72"/>
			<point x="112" y="-77"/>
			<point x="112" y="-94" type="curve" smooth="yes"/>
			<point x="112" y="-102"/>
			<point x="105" y="-109"/>
			<point x="88" y="-109" type="curve" smooth="yes"/>
			<point x="70" y="-109"/>
			<point x="67" y="-105"/>
			<point x="56" y="-105" type="curve" smooth="yes"/>
			<point x="47" y="-105"/>
			<point x="41" y="-110"/>
			<point x="39" y="-119" type="curve" smooth="yes"/>
			<point x="25" y="-166" type="line"/>
			<point x="50" y="-171"/>
			<point x="72" y="-174"/>
		</contour>
	</outline>
</glyph>
<glyph name="onesuperior" format="2">
	<advance width="335"/>
	<unicode hex="00B9"/>
	<note>
		onesuperior
	</note>
	<outline>
		<contour>
			<point x="75" y="450" type="line"/>
			<point x="303" y="450" type="line"/>
			<point x="303" y="496" type="line" smooth="yes"/>
			<point x="303" y="511"/>
			<point x="295" y="521"/>
			<point x="280" y="524" type="curve" smooth="yes"/>
			<point x="253" y="533" type="line"/>
			<point x="253" y="828" type="line"/>
			<point x="158" y="828" type="line"/>
			<point x="35" y="728" type="line"/>
			<point x="71" y="680" type="line" smooth="yes"/>
			<point x="80" y="667"/>
			<point x="102" y="662"/>
			<point x="122" y="675" type="curve" smooth="yes"/>
			<point x="140" y="687" type="line"/>
			<point x="139" y="674"/>
			<point x="139" y="663"/>
			<point x="139" y="652" type="curve" smooth="yes"/>
			<point x="139" y="533" type="line"/>
			<point x="98" y="523" type="line" smooth="yes"/>
			<point x="83" y="520"/>
			<point x="75" y="511"/>
			<point x="75" y="496" type="curve" smooth="yes"/>
		</contour>
	</outline>
</glyph>
<glyph name="ordmasculine" format="2">
	<advance width="370"/>
	<unicode hex="00BA"/>
	<note>
		ordmasculine
	</note>
	<outline>
		<contour>
			<point x="186" y="739" type="curve"/>
			<point x="186" y="739" type="line"/>
			<point x="86" y="739"/>
			<point x="13" y="678"/>
			<point x="13" y="578" type="curve" smooth="yes"/>
			<point x="13" y="478"/>
			<point x="86" y="415"/>
			<point x="186" y="415" type="curve" smooth="yes"/>
			<point x="288" y="415"/>
			<point x="357" y="478"/>
			<point x="357" y="578" type="curve" smooth="yes"/>
			<point x="357" y="678"/>
			<point x="287" y="739"/>
		</contour>
		<contour>
			<point x="186" y="502" type="curve"/>
			<point x="186" y="502" type="line"/>
			<point x="149" y="502"/>
			<point x="134" y="524"/>
			<point x="134" y="577" type="curve" smooth="yes"/>
			<point x="134" y="632"/>
			<point x="149" y="652"/>
			<point x="186" y="652" type="curve" smooth="yes"/>
			<point x="221" y="652"/>
			<point x="236" y="632"/>
			<point x="236" y="577" type="curve" smooth="yes"/>
			<point x="236" y="524"/>
			<point x="221" y="502"/>
		</contour>
	</outline>
</glyph>
<glyph name="onequarter" format="2">
	<advance width="785"/>
	<unicode hex="00BC"/>
	<note>
		onequarter
	</note>
	<outline>
		<contour>
			<point x="603" y="0" type="line"/>
			<point x="695" y="0" type="line"/>
			<point x="695" y="75" type="line"/>
			<point x="715" y="75" type="line" smooth="yes"/>
			<point x="727" y="75"/>
			<point x="735" y="85"/>
			<point x="735" y="94" type="curve" smooth="yes"/>
			<point x="735" y="148" type="line"/>
			<point x="695" y="148" type="line"/>
			<point x="695" y="375" type="line"/>
			<point x="588" y="375" type="line"/>
			<point x="424" y="143" type="line"/>
			<point x="433" y="97" type="line" smooth="yes"/>
			<point x="436" y="84"/>
			<point x="447" y="75"/>
			<point x="466" y="75" type="curve" smooth="yes"/>
			<point x="603" y="75" type="line"/>
		</contour>
		<contour>
			<point x="89" y="354" type="line"/>
			<point x="315" y="354" type="line"/>
			<point x="315" y="388" type="line" smooth="yes"/>
			<point x="315" y="403"/>
			<point x="308" y="411"/>
			<point x="293" y="415" type="curve" smooth="yes"/>
			<point x="264" y="422" type="line"/>
			<point x="264" y="729" type="line"/>
			<point x="171" y="729" type="line"/>
			<point x="50" y="630" type="line"/>
			<point x="84" y="585" type="line" smooth="yes"/>
			<point x="93" y="573"/>
			<point x="114" y="567"/>
			<point x="132" y="580" type="curve" smooth="yes"/>
			<point x="157" y="598" type="line"/>
			<point x="156" y="589"/>
			<point x="154" y="580"/>
			<point x="154" y="571" type="curve" smooth="yes"/>
			<point x="154" y="422" type="line"/>
			<point x="112" y="414" type="line" smooth="yes"/>
			<point x="97" y="411"/>
			<point x="89" y="402"/>
			<point x="89" y="387" type="curve" smooth="yes"/>
		</contour>
		<contour>
			<point x="524" y="148" type="line"/>
			<point x="607" y="263" type="line"/>
			<point x="604" y="240"/>
			<point x="603" y="219"/>
			<point x="603" y="202" type="curve" smooth="yes"/>
			<point x="603" y="148" type="line"/>
		</contour>
		<component base="fraction" xOffset="333"/>
	</outline>
</glyph>
<glyph name="onehalf" format="2">
	<advance width="775"/>
	<unicode hex="00BD"/>
	<note>
		onehalf
	</note>
	<outline>
		<contour>
			<point x="440" y="0" type="line"/>
			<point x="725" y="0" type="line"/>
			<point x="725" y="63" type="line" smooth="yes"/>
			<point x="725" y="84"/>
			<point x="712" y="97"/>
			<point x="688" y="97" type="curve" smooth="yes"/>
			<point x="654" y="97" type="line" smooth="yes"/>
			<point x="637" y="97"/>
			<point x="614" y="93"/>
			<point x="593" y="86" type="curve"/>
			<point x="643" y="138" type="line" smooth="yes"/>
			<point x="682" y="178"/>
			<point x="717" y="214"/>
			<point x="717" y="267" type="curve" smooth="yes"/>
			<point x="717" y="332"/>
			<point x="669" y="379"/>
			<point x="588" y="379" type="curve" smooth="yes"/>
			<point x="508" y="379"/>
			<point x="453" y="342"/>
			<point x="440" y="262" type="curve"/>
			<point x="517" y="251" type="line" smooth="yes"/>
			<point x="533" y="249"/>
			<point x="548" y="262"/>
			<point x="553" y="273" type="curve" smooth="yes"/>
			<point x="559" y="287"/>
			<point x="569" y="294"/>
			<point x="582" y="294" type="curve" smooth="yes"/>
			<point x="599" y="294"/>
			<point x="605" y="279"/>
			<point x="605" y="263" type="curve" smooth="yes"/>
			<point x="605" y="237"/>
			<point x="582" y="199"/>
			<point x="557" y="174" type="curve" smooth="yes"/>
			<point x="458" y="77" type="line" smooth="yes"/>
			<point x="445" y="64"/>
			<point x="440" y="48"/>
			<point x="440" y="35" type="curve" smooth="yes"/>
		</contour>
		<contour>
			<point x="89" y="354" type="line"/>
			<point x="315" y="354" type="line"/>
			<point x="315" y="388" type="line" smooth="yes"/>
			<point x="315" y="403"/>
			<point x="308" y="411"/>
			<point x="293" y="415" type="curve" smooth="yes"/>
			<point x="264" y="422" type="line"/>
			<point x="264" y="729" type="line"/>
			<point x="171" y="729" type="line"/>
			<point x="50" y="630" type="line"/>
			<point x="84" y="585" type="line" smooth="yes"/>
			<point x="93" y="573"/>
			<point x="114" y="567"/>
			<point x="132" y="580" type="curve" smooth="yes"/>
			<point x="157" y="598" type="line"/>
			<point x="156" y="589"/>
			<point x="154" y="580"/>
			<point x="154" y="571" type="curve" smooth="yes"/>
			<point x="154" y="422" type="line"/>
			<point x="112" y="414" type="line" smooth="yes"/>
			<point x="97" y="411"/>
			<point x="89" y="402"/>
			<point x="89" y="387" type="curve" smooth="yes"/>
		</contour>
		<contour>
			<point x="647" y="75" type="line"/>
			<point x="725" y="52" type="line"/>
			<point x="725" y="132" type="line"/>
			<point x="684" y="132" type="line" smooth="yes"/>
			<point x="668" y="132"/>
			<point x="663" y="121"/>
			<point x="657" y="104" type="curve" smooth="yes"/>
			<point x="647" y="75" type="line"/>
		</contour>
		<component base="fraction" xOffset="305"/>
	</outline>
</glyph>
<glyph name="threequarters" format="2">
	<advance width="789"/>
	<unicode hex="00BE"/>
	<note>
		threequarters
	</note>
	<outline>
		<contour>
			<point x="195" y="350" type="curve" smooth="yes"/>
			<point x="267" y="350"/>
			<point x="332" y="391"/>
			<point x="332" y="474" type="curve" smooth="yes"/>
			<point x="332" y="513"/>
			<point x="314" y="535"/>
			<point x="275" y="547" type="curve"/>
			<point x="312" y="564"/>
			<point x="326" y="594"/>
			<point x="326" y="635" type="curve" smooth="yes"/>
			<point x="326" y="688"/>
			<point x="276" y="733"/>
			<point x="200" y="733" type="curve" smooth="yes"/>
			<point x="126" y="733"/>
			<point x="72" y="695"/>
			<point x="59" y="616" type="curve"/>
			<point x="133" y="605" type="line" smooth="yes"/>
			<point x="149" y="603"/>
			<point x="157" y="612"/>
			<point x="165" y="628" type="curve" smooth="yes"/>
			<point x="172" y="640"/>
			<point x="178" y="646"/>
			<point x="194" y="646" type="curve" smooth="yes"/>
			<point x="215" y="646"/>
			<point x="220" y="632"/>
			<point x="220" y="615" type="curve" smooth="yes"/>
			<point x="220" y="587"/>
			<point x="206" y="578"/>
			<point x="158" y="578" type="curve"/>
			<point x="158" y="508" type="line"/>
			<point x="206" y="508"/>
			<point x="221" y="506"/>
			<point x="221" y="470" type="curve" smooth="yes"/>
			<point x="221" y="451"/>
			<point x="209" y="438"/>
			<point x="189" y="438" type="curve" smooth="yes"/>
			<point x="177" y="438"/>
			<point x="163" y="444"/>
			<point x="154" y="461" type="curve" smooth="yes"/>
			<point x="149" y="472"/>
			<point x="138" y="477"/>
			<point x="122" y="477" type="curve" smooth="yes"/>
			<point x="115" y="477"/>
			<point x="106" y="476"/>
			<point x="98" y="473" type="curve" smooth="yes"/>
			<point x="50" y="454" type="line"/>
			<point x="77" y="374"/>
			<point x="123" y="350"/>
		</contour>
		<contour>
			<point x="607" y="0" type="line"/>
			<point x="699" y="0" type="line"/>
			<point x="699" y="75" type="line"/>
			<point x="719" y="75" type="line" smooth="yes"/>
			<point x="731" y="75"/>
			<point x="739" y="85"/>
			<point x="739" y="94" type="curve" smooth="yes"/>
			<point x="739" y="148" type="line"/>
			<point x="699" y="148" type="line"/>
			<point x="699" y="375" type="line"/>
			<point x="592" y="375" type="line"/>
			<point x="428" y="143" type="line"/>
			<point x="437" y="97" type="line" smooth="yes"/>
			<point x="440" y="84"/>
			<point x="451" y="75"/>
			<point x="470" y="75" type="curve" smooth="yes"/>
			<point x="607" y="75" type="line"/>
		</contour>
		<contour>
			<point x="528" y="148" type="line"/>
			<point x="611" y="263" type="line"/>
			<point x="608" y="240"/>
			<point x="607" y="219"/>
			<point x="607" y="202" type="curve" smooth="yes"/>
			<point x="607" y="148" type="line"/>
		</contour>
		<component base="fraction" xOffset="333"/>
	</outline>
</glyph>
<glyph name="AE" format="2">
	<advance width="964"/>
	<unicode hex="00C6"/>
	<anchor x="465" y="729" name="top"/>
	<anchor x="465" y="0" name="bottom"/>
	<note>
		AE
	</note>
	<outline>
		<contour>
			<point x="13" y="0" type="line"/>
			<point x="193" y="0" type="line" smooth="yes"/>
			<point x="197" y="0"/>
			<point x="194" y="15"/>
			<point x="204" y="37" type="curve"/>
			<point x="408" y="503" type="line" smooth="yes"/>
			<point x="420" y="531"/>
			<point x="435" y="565"/>
			<point x="448" y="605" type="curve"/>
			<point x="521" y="0" type="line"/>
			<point x="931" y="0" type="line"/>
			<point x="931" y="130" type="line"/>
			<point x="665" y="130" type="line"/>
			<point x="644" y="304" type="line"/>
			<point x="856" y="304" type="line"/>
			<point x="856" y="429" type="line"/>
			<point x="629" y="429" type="line"/>
			<point x="609" y="599" type="line"/>
			<point x="931" y="599" type="line"/>
			<point x="931" y="729" type="line"/>
			<point x="371" y="729" type="line"/>
		</contour>
		<contour>
			<point x="207" y="190" type="line"/>
			<point x="553" y="190" type="line"/>
			<point x="543" y="305" type="line"/>
			<point x="217" y="305" type="line"/>
		</contour>
		<component base="SerifUpLeftCaps" xOffset="931" yOffset="130"/>
		<component base="SerifUpRightCaps" xScale="-1" yScale="-1" xOffset="931" yOffset="599"/>
		<component base="SerifSpurLeft" xOffset="381" yOffset="729"/>
		<component base="SerifBottomLeft" xOffset="502"/>
		<component base="SerifBottomRight" xOffset="210"/>
		<component base="SerifBottomLeft" xOffset="66"/>
	</outline>
</glyph>
<glyph name="multiply" format="2">
	<advance width="573"/>
	<unicode hex="00D7"/>
	<note>
		multiply
	</note>
	<outline>
		<contour>
			<point x="440" y="570" type="line"/>
			<point x="287" y="416" type="line"/>
			<point x="132" y="571" type="line"/>
			<point x="51" y="492" type="line"/>
			<point x="207" y="336" type="line"/>
			<point x="41" y="171" type="line"/>
			<point x="123" y="92" type="line"/>
			<point x="287" y="256" type="line"/>
			<point x="450" y="93" type="line"/>
			<point x="532" y="172" type="line"/>
			<point x="367" y="336" type="line"/>
			<point x="522" y="491" type="line"/>
			<point x="440" y="570" type="line"/>
		</contour>
	</outline>
</glyph>
<glyph name="Thorn" format="2">
	<advance width="667"/>
	<unicode hex="00DE"/>
	<anchor x="357" y="729" name="top"/>
	<anchor x="189" y="0" name="bottom"/>
	<note>
		Thorn
	</note>
	<outline>
		<contour>
			<point x="97" y="0" type="line"/>
			<point x="267" y="0" type="line"/>
			<point x="267" y="146" type="line"/>
			<point x="355" y="146" type="line" smooth="yes"/>
			<point x="529" y="146"/>
			<point x="648" y="206"/>
			<point x="648" y="373" type="curve" smooth="yes"/>
			<point x="648" y="532"/>
			<point x="533" y="591"/>
			<point x="355" y="591" type="curve" smooth="yes"/>
			<point x="267" y="591" type="line"/>
			<point x="267" y="729" type="line"/>
			<point x="97" y="729" type="line"/>
		</contour>
		<contour>
			<point x="267" y="274" type="line"/>
			<point x="267" y="465" type="line"/>
			<point x="355" y="465" type="line" smooth="yes"/>
			<point x="436" y="465"/>
			<point x="479" y="444"/>
			<point x="479" y="373" type="curve" smooth="yes"/>
			<point x="479" y="298"/>
			<point x="443" y="274"/>
			<point x="355" y="274" type="curve" smooth="yes"/>
		</contour>
		<component base="SerifBottomLeft" xOffset="97"/>
		<component base="SerifBottomRight" xOffset="267"/>
		<component base="SerifSpurLeft" xOffset="127" yOffset="729"/>
		<component base="SerifSpurRight" xOffset="267" yOffset="729"/>
	</outline>
</glyph>
<glyph name="germandbls" format="2">
	<advance width="674"/>
	<unicode hex="00DF"/>
	<note>
		germandbls
	</note>
	<outline>
		<contour>
			<point x="446" y="-8" type="curve" smooth="yes"/>
			<point x="558" y="-8"/>
			<point x="653" y="56"/>
			<point x="653" y="173" type="curve" smooth="yes"/>
			<point x="653" y="241"/>
			<point x="618" y="289"/>
			<point x="575" y="319" type="curve" smooth="yes"/>
			<point x="541" y="342"/>
			<point x="496" y="368"/>
			<point x="496" y="393" type="curve" smooth="yes"/>
			<point x="496" y="418"/>
			<point x="529" y="437"/>
			<point x="557" y="456" type="curve" smooth="yes"/>
			<point x="589" y="478"/>
			<point x="617" y="512"/>
			<point x="617" y="563" type="curve" smooth="yes"/>
			<point x="617" y="650"/>
			<point x="536" y="743"/>
			<point x="382" y="743" type="curve" smooth="yes"/>
			<point x="213" y="743"/>
			<point x="103" y="638"/>
			<point x="103" y="489" type="curve" smooth="yes"/>
			<point x="103" y="0" type="line"/>
			<point x="258" y="0" type="line"/>
			<point x="258" y="484" type="line" smooth="yes"/>
			<point x="258" y="578"/>
			<point x="291" y="634"/>
			<point x="375" y="634" type="curve" smooth="yes"/>
			<point x="439" y="634"/>
			<point x="466" y="607"/>
			<point x="466" y="562" type="curve" smooth="yes"/>
			<point x="466" y="526"/>
			<point x="432" y="503"/>
			<point x="400" y="480" type="curve" smooth="yes"/>
			<point x="364" y="453"/>
			<point x="333" y="419"/>
			<point x="333" y="363" type="curve" smooth="yes"/>
			<point x="333" y="298"/>
			<point x="373" y="258"/>
			<point x="421" y="233" type="curve" smooth="yes"/>
			<point x="462" y="211"/>
			<point x="508" y="188"/>
			<point x="508" y="149" type="curve" smooth="yes"/>
			<point x="508" y="117"/>
			<point x="487" y="97"/>
			<point x="460" y="97" type="curve" smooth="yes"/>
			<point x="413" y="97"/>
			<point x="393" y="135"/>
			<point x="356" y="135" type="curve" smooth="yes"/>
			<point x="337" y="135"/>
			<point x="326" y="127"/>
			<point x="317" y="113" type="curve" smooth="yes"/>
			<point x="281" y="56" type="line"/>
			<point x="322" y="20"/>
			<point x="388" y="-8"/>
		</contour>
		<component base="SerifBottomLeft" xOffset="103"/>
	</outline>
</glyph>
<glyph name="ae" format="2">
	<advance width="834"/>
	<unicode hex="00E6"/>
	<anchor x="403" y="519" name="top"/>
	<anchor x="403" y="0" name="bottom"/>
	<note>
		ae
	</note>
	<outline>
		<contour>
			<point x="188" y="-8" type="curve" smooth="yes"/>
			<point x="270" y="-8"/>
			<point x="351" y="20"/>
			<point x="394" y="84" type="curve"/>
			<point x="419" y="432" type="line"/>
			<point x="393" y="500"/>
			<point x="331" y="529"/>
			<point x="255" y="529" type="curve" smooth="yes"/>
			<point x="174" y="529"/>
			<point x="108" y="502"/>
			<point x="45" y="447" type="curve"/>
			<point x="73" y="398" type="line" smooth="yes"/>
			<point x="82" y="383"/>
			<point x="97" y="371"/>
			<point x="118" y="371" type="curve" smooth="yes"/>
			<point x="165" y="371"/>
			<point x="189" y="415"/>
			<point x="252" y="415" type="curve" smooth="yes"/>
			<point x="299" y="415"/>
			<point x="324" y="385"/>
			<point x="324" y="324" type="curve" smooth="yes"/>
			<point x="324" y="313" type="line"/>
			<point x="239" y="310"/>
			<point x="142" y="295"/>
			<point x="84" y="253" type="curve" smooth="yes"/>
			<point x="42" y="222"/>
			<point x="21" y="180"/>
			<point x="21" y="141" type="curve" smooth="yes"/>
			<point x="21" y="46"/>
			<point x="81" y="-8"/>
		</contour>
		<contour>
			<point x="226" y="95" type="curve" smooth="yes"/>
			<point x="189" y="95"/>
			<point x="169" y="112"/>
			<point x="169" y="148" type="curve" smooth="yes"/>
			<point x="169" y="194"/>
			<point x="222" y="215"/>
			<point x="324" y="222" type="curve"/>
			<point x="324" y="214" type="line" smooth="yes"/>
			<point x="324" y="132"/>
			<point x="288" y="95"/>
		</contour>
		<component base="e" xOffset="307"/>
	</outline>
</glyph>
<glyph name="eth" format="2">
	<advance width="566"/>
	<unicode hex="00F0"/>
	<note>
		eth
	</note>
	<outline>
		<contour>
			<point x="273" y="-8" type="curve" smooth="yes"/>
			<point x="358" y="-8"/>
			<point x="426" y="21"/>
			<point x="472" y="74" type="curve" smooth="yes"/>
			<point x="518" y="127"/>
			<point x="541" y="206"/>
			<point x="541" y="306" type="curve" smooth="yes"/>
			<point x="541" y="435"/>
			<point x="497" y="533"/>
			<point x="424" y="601" type="curve"/>
			<point x="457" y="618" type="line" smooth="yes"/>
			<point x="476" y="626"/>
			<point x="480" y="646"/>
			<point x="469" y="663" type="curve" smooth="yes"/>
			<point x="438" y="712" type="line"/>
			<point x="347" y="658" type="line"/>
			<point x="290" y="691"/>
			<point x="225" y="712"/>
			<point x="154" y="723" type="curve"/>
			<point x="136" y="672" type="line" smooth="yes"/>
			<point x="125" y="638"/>
			<point x="133" y="611"/>
			<point x="166" y="602" type="curve" smooth="yes"/>
			<point x="173" y="600"/>
			<point x="204" y="590"/>
			<point x="207" y="589" type="curve"/>
			<point x="184" y="578" type="line" smooth="yes"/>
			<point x="164" y="568"/>
			<point x="158" y="549"/>
			<point x="170" y="530" type="curve" smooth="yes"/>
			<point x="199" y="482" type="line"/>
			<point x="305" y="544" type="line"/>
			<point x="356" y="509"/>
			<point x="383" y="469"/>
			<point x="396" y="414" type="curve"/>
			<point x="359" y="449"/>
			<point x="312" y="468"/>
			<point x="252" y="468" type="curve" smooth="yes"/>
			<point x="117" y="468"/>
			<point x="19" y="365"/>
			<point x="19" y="240" type="curve" smooth="yes"/>
			<point x="19" y="88"/>
			<point x="127" y="-8"/>
		</contour>
		<contour>
			<point x="277" y="106" type="curve"/>
			<point x="214" y="106"/>
			<point x="173" y="158"/>
			<point x="173" y="239" type="curve" smooth="yes"/>
			<point x="173" y="304"/>
			<point x="215" y="354"/>
			<point x="284" y="354" type="curve" smooth="yes"/>
			<point x="341" y="354"/>
			<point x="375" y="322"/>
			<point x="395" y="281" type="curve"/>
			<point x="390" y="163"/>
			<point x="350" y="106"/>
		</contour>
	</outline>
</glyph>
<glyph name="divide" format="2">
	<advance width="576"/>
	<unicode hex="00F7"/>
	<note>
		divide
	</note>
	<outline>
		<contour>
			<point x="41" y="281" type="line"/>
			<point x="536" y="281" type="line"/>
			<point x="536" y="392" type="line"/>
			<point x="41" y="392" type="line"/>
			<point x="41" y="281" type="line"/>
		</contour>
		<contour>
			<point x="200" y="514" type="curve"/>
			<point x="200" y="514" type="line"/>
			<point x="200" y="466"/>
			<point x="239" y="429"/>
			<point x="288" y="429" type="curve" smooth="yes"/>
			<point x="338" y="429"/>
			<point x="376" y="466"/>
			<point x="376" y="514" type="curve" smooth="yes"/>
			<point x="376" y="561"/>
			<point x="338" y="600"/>
			<point x="288" y="600" type="curve" smooth="yes"/>
			<point x="239" y="600"/>
			<point x="200" y="561"/>
		</contour>
		<contour>
			<point x="200" y="158" type="curve"/>
			<point x="200" y="158" type="line"/>
			<point x="200" y="110"/>
			<point x="239" y="73"/>
			<point x="288" y="73" type="curve" smooth="yes"/>
			<point x="338" y="73"/>
			<point x="376" y="110"/>
			<point x="376" y="158" type="curve" smooth="yes"/>
			<point x="376" y="205"/>
			<point x="338" y="244"/>
			<point x="288" y="244" type="curve" smooth="yes"/>
			<point x="239" y="244"/>
			<point x="200" y="205"/>
		</contour>
	</outline>
</glyph>
<glyph name="oslash" format="2">
	<advance width="580"/>
	<unicode hex="00F8"/>
	<outline>
		<contour>
			<point x="12" y="-39" type="line"/>
			<point x="68" y="-39" type="line" smooth="yes"/>
			<point x="101.521" y="-39"/>
			<point x="139.665" y="-28.044"/>
			<point x="160" y="5" type="curve" smooth="yes"/>
			<point x="578" y="573" type="line"/>
			<point x="502" y="573" type="line" smooth="yes"/>
			<point x="468.162" y="573"/>
			<point x="453.671" y="562.423"/>
			<point x="433" y="534" type="curve"/>
		</contour>
		<component base="o" xOffset="6"/>
	</outline>
</glyph>
<glyph name="thorn" format="2">
	<advance width="540"/>
	<unicode hex="00FE"/>
	<note>
		thorn
	</note>
	<outline>
		<contour>
			<point x="181" y="-165" type="line"/>
			<point x="181" y="44" type="line"/>
			<point x="211" y="11"/>
			<point x="247" y="-8"/>
			<point x="299" y="-8" type="curve" smooth="yes"/>
			<point x="434" y="-8"/>
			<point x="521" y="112"/>
			<point x="521" y="264" type="curve" smooth="yes"/>
			<point x="521" y="419"/>
			<point x="450" y="527"/>
			<point x="333" y="527" type="curve" smooth="yes"/>
			<point x="268" y="527"/>
			<point x="220" y="501"/>
			<point x="181" y="464" type="curve"/>
			<point x="181" y="749" type="line"/>
			<point x="26" y="749" type="line"/>
			<point x="26" y="-165" type="line"/>
			<point x="181" y="-165" type="line"/>
		</contour>
		<contour>
			<point x="279" y="410" type="curve"/>
			<point x="279" y="410" type="line"/>
			<point x="336" y="410"/>
			<point x="361" y="360"/>
			<point x="361" y="264" type="curve" smooth="yes"/>
			<point x="361" y="161"/>
			<point x="327" y="106"/>
			<point x="262" y="106" type="curve" smooth="yes"/>
			<point x="233" y="106"/>
			<point x="205" y="116"/>
			<point x="181" y="141" type="curve"/>
			<point x="181" y="361" type="line"/>
			<point x="209" y="394"/>
			<point x="233" y="410"/>
		</contour>
	</outline>
</glyph>
<glyph name="Hbar" format="2">
	<advance width="830"/>
	<unicode hex="0126"/>
	<outline>
		<contour>
			<point x="20" y="576" type="line"/>
			<point x="20" y="470" type="line"/>
			<point x="809" y="470" type="line"/>
			<point x="809" y="576" type="line"/>
		</contour>
		<component base="H"/>
	</outline>
</glyph>
<glyph name="idotless" format="2">
	<advance width="355"/>
	<unicode hex="0131"/>
	<anchor x="182" y="0" name="ogonek"/>
	<anchor x="181" y="0" name="bottom"/>
	<anchor x="181" y="519" name="top"/>
	<note>
		dotlessi
	</note>
	<outline>
		<contour>
			<point x="103" y="0" type="line"/>
			<point x="258" y="0" type="line"/>
			<point x="258" y="519" type="line"/>
			<point x="103" y="519" type="line"/>
		</contour>
		<component base="SerifBottomLeft" xOffset="103"/>
		<component base="SerifBottomRight" xOffset="258"/>
		<component base="SerifSpurLeft" xOffset="133" yOffset="519"/>
	</outline>
</glyph>
<glyph name="Lslash" format="2">
	<advance width="603"/>
	<unicode hex="0141"/>
	<note>
		Lslash
	</note>
	<outline>
		<contour>
			<point x="46" y="210" type="line"/>
			<point x="449" y="403" type="line" smooth="yes"/>
			<point x="462" y="408"/>
			<point x="469" y="418"/>
			<point x="469" y="434" type="curve" smooth="yes"/>
			<point x="469" y="544" type="line"/>
			<point x="64" y="351" type="line"/>
			<point x="52" y="346"/>
			<point x="46" y="337"/>
			<point x="46" y="324" type="curve" smooth="yes"/>
		</contour>
		<component base="L" xOffset="46"/>
	</outline>
</glyph>
<glyph name="lslash" format="2">
	<advance width="325"/>
	<unicode hex="0142"/>
	<note>
		lslash
	</note>
	<outline>
		<contour>
			<point x="0" y="283" type="line"/>
			<point x="285" y="387" type="line" smooth="yes"/>
			<point x="298" y="392"/>
			<point x="305" y="403"/>
			<point x="305" y="418" type="curve" smooth="yes"/>
			<point x="305" y="505" type="line"/>
			<point x="18" y="400" type="line" smooth="yes"/>
			<point x="6" y="396"/>
			<point x="0" y="386"/>
			<point x="0" y="373" type="curve" smooth="yes"/>
		</contour>
		<component base="l" xOffset="10"/>
	</outline>
</glyph>
<glyph name="Eng" format="2">
	<advance width="839"/>
	<unicode hex="014A"/>
	<outline>
		<contour>
			<point x="565" y="-180" type="curve" smooth="yes"/>
			<point x="609" y="-180"/>
			<point x="733" y="-164"/>
			<point x="733" y="10" type="curve"/>
			<point x="733" y="90" type="line"/>
			<point x="578" y="90" type="line"/>
			<point x="578" y="-1" type="line" smooth="yes"/>
			<point x="578" y="-53"/>
			<point x="565" y="-68"/>
			<point x="523" y="-68" type="curve" smooth="yes"/>
			<point x="493" y="-68"/>
			<point x="488" y="-74"/>
			<point x="487" y="-90" type="curve" smooth="yes"/>
			<point x="482" y="-170" type="line"/>
			<point x="505" y="-175"/>
			<point x="538" y="-180"/>
		</contour>
		<component base="N"/>
	</outline>
</glyph>
<glyph name="OE" format="2">
	<advance width="1058"/>
	<unicode hex="0152"/>
	<note>
		OE
	</note>
	<outline>
		<contour>
			<point x="356" y="-8" type="curve" smooth="yes"/>
			<point x="445" y="-8"/>
			<point x="519" y="22"/>
			<point x="576" y="74" type="curve"/>
			<point x="576" y="0" type="line"/>
			<point x="1025" y="0" type="line"/>
			<point x="1025" y="130" type="line"/>
			<point x="726" y="130" type="line"/>
			<point x="726" y="304" type="line"/>
			<point x="950" y="304" type="line"/>
			<point x="950" y="429" type="line"/>
			<point x="726" y="429" type="line"/>
			<point x="726" y="599" type="line"/>
			<point x="1025" y="599" type="line"/>
			<point x="1025" y="729" type="line"/>
			<point x="576" y="729" type="line"/>
			<point x="576" y="654" type="line"/>
			<point x="519" y="706"/>
			<point x="445" y="737"/>
			<point x="356" y="737" type="curve" smooth="yes"/>
			<point x="253" y="737"/>
			<point x="169" y="697"/>
			<point x="109" y="630" type="curve" smooth="yes"/>
			<point x="49" y="563"/>
			<point x="15" y="470"/>
			<point x="15" y="365" type="curve" smooth="yes"/>
			<point x="15" y="260"/>
			<point x="49" y="167"/>
			<point x="109" y="100" type="curve" smooth="yes"/>
			<point x="169" y="32"/>
			<point x="253" y="-8"/>
		</contour>
		<contour>
			<point x="373" y="127" type="curve" smooth="yes"/>
			<point x="252" y="127"/>
			<point x="188" y="225"/>
			<point x="188" y="365" type="curve" smooth="yes"/>
			<point x="188" y="504"/>
			<point x="252" y="602"/>
			<point x="373" y="602" type="curve" smooth="yes"/>
			<point x="494" y="602"/>
			<point x="556" y="503"/>
			<point x="556" y="365" type="curve" smooth="yes"/>
			<point x="556" y="225"/>
			<point x="494" y="127"/>
		</contour>
		<component base="SerifUpLeftCaps" xOffset="1025" yOffset="130"/>
		<component base="SerifUpRightCaps" xScale="-1" yScale="-1" xOffset="1025" yOffset="599"/>
	</outline>
</glyph>
<glyph name="oe" format="2">
	<advance width="881"/>
	<unicode hex="0153"/>
	<anchor x="441" y="519" name="top"/>
	<anchor x="441" y="0" name="bottom"/>
	<note>
		oe
	</note>
	<outline>
		<contour>
			<point x="261" y="-8" type="curve" smooth="yes"/>
			<point x="344" y="-8"/>
			<point x="408" y="24"/>
			<point x="451" y="81" type="curve"/>
			<point x="455.952" y="432.169" type="line"/>
			<point x="409" y="496"/>
			<point x="346" y="527"/>
			<point x="267" y="527" type="curve" smooth="yes"/>
			<point x="122" y="527"/>
			<point x="19" y="420"/>
			<point x="19" y="261" type="curve" smooth="yes"/>
			<point x="19" y="101"/>
			<point x="119" y="-8"/>
		</contour>
		<contour>
			<point x="276" y="107" type="curve"/>
			<point x="209" y="107"/>
			<point x="179" y="157"/>
			<point x="179" y="260" type="curve" smooth="yes"/>
			<point x="179" y="363"/>
			<point x="209" y="412"/>
			<point x="276" y="412" type="curve" smooth="yes"/>
			<point x="343" y="412"/>
			<point x="372" y="363"/>
			<point x="372" y="260" type="curve" smooth="yes"/>
			<point x="372" y="157"/>
			<point x="343" y="107"/>
		</contour>
		<component base="e" xOffset="354"/>
	</outline>
</glyph>
<glyph name="Bhook" format="2">
	<advance width="834"/>
	<unicode hex="0181"/>
	<anchor x="492" y="749" name="top"/>
	<anchor x="492" y="0" name="bottom"/>
	<outline>
		<contour>
			<point x="246" y="0" type="line"/>
			<point x="537" y="0" type="line" smooth="yes"/>
			<point x="703" y="0"/>
			<point x="810" y="87"/>
			<point x="810" y="220" type="curve" smooth="yes"/>
			<point x="810" y="301"/>
			<point x="765" y="354"/>
			<point x="669" y="377" type="curve"/>
			<point x="752" y="407"/>
			<point x="793" y="462"/>
			<point x="793" y="532" type="curve" smooth="yes"/>
			<point x="793" y="678"/>
			<point x="682" y="729"/>
			<point x="514" y="729" type="curve" smooth="yes"/>
			<point x="246" y="729" type="line"/>
		</contour>
		<contour>
			<point x="415" y="128" type="line"/>
			<point x="415" y="309" type="line"/>
			<point x="533" y="309" type="line" smooth="yes"/>
			<point x="612" y="309"/>
			<point x="643" y="281"/>
			<point x="643" y="223" type="curve" smooth="yes"/>
			<point x="643" y="169"/>
			<point x="615" y="128"/>
			<point x="534" y="128" type="curve" smooth="yes"/>
		</contour>
		<contour>
			<point x="415" y="422" type="line"/>
			<point x="415" y="602" type="line"/>
			<point x="514" y="602" type="line" smooth="yes"/>
			<point x="589" y="602"/>
			<point x="624" y="581"/>
			<point x="624" y="512" type="curve" smooth="yes"/>
			<point x="624" y="441"/>
			<point x="580" y="422"/>
			<point x="503" y="422" type="curve" smooth="yes"/>
		</contour>
		<component base="SerifBottomLeft" xOffset="246"/>
		<component base="hookleft_caps_part"/>
	</outline>
</glyph>
<glyph name="Chook" format="2">
	<advance width="668"/>
	<unicode hex="0187"/>
	<outline>
		<contour>
			<point x="630" y="640" type="line"/>
			<point x="630" y="688" type="line" smooth="yes"/>
			<point x="630" y="743"/>
			<point x="645" y="770"/>
			<point x="685" y="770" type="curve" smooth="yes"/>
			<point x="697" y="770"/>
			<point x="709" y="767"/>
			<point x="716" y="766" type="curve" smooth="yes"/>
			<point x="739" y="763"/>
			<point x="758" y="766"/>
			<point x="765" y="793" type="curve" smooth="yes"/>
			<point x="787" y="878" type="line"/>
			<point x="751" y="891"/>
			<point x="715" y="899"/>
			<point x="668" y="899" type="curve" smooth="yes"/>
			<point x="540" y="899"/>
			<point x="491" y="822"/>
			<point x="491" y="726" type="curve" smooth="yes"/>
			<point x="491" y="725"/>
			<point x="491" y="725"/>
			<point x="491" y="724" type="curve" smooth="yes"/>
			<point x="491" y="723"/>
			<point x="491" y="722"/>
			<point x="491" y="721" type="curve"/>
		</contour>
		<component base="C"/>
	</outline>
</glyph>
<glyph name="Dhook" format="2">
	<advance width="922"/>
	<unicode hex="018A"/>
	<anchor x="333" y="364" name="center"/>
	<anchor x="502" y="0" name="bottom"/>
	<anchor x="516" y="729" name="top"/>
	<outline>
		<contour>
			<point x="246" y="0" type="line"/>
			<point x="529" y="0" type="line" smooth="yes"/>
			<point x="642" y="0"/>
			<point x="738" y="39"/>
			<point x="804" y="104" type="curve" smooth="yes"/>
			<point x="870" y="168"/>
			<point x="907" y="260"/>
			<point x="907" y="365" type="curve" smooth="yes"/>
			<point x="907" y="469"/>
			<point x="870" y="561"/>
			<point x="804" y="626" type="curve" smooth="yes"/>
			<point x="738" y="690"/>
			<point x="642" y="729"/>
			<point x="529" y="729" type="curve" smooth="yes"/>
			<point x="246" y="729" type="line"/>
		</contour>
		<contour>
			<point x="416" y="130" type="line"/>
			<point x="416" y="599" type="line"/>
			<point x="529" y="599" type="line" smooth="yes"/>
			<point x="660" y="599"/>
			<point x="734" y="506"/>
			<point x="734" y="365" type="curve" smooth="yes"/>
			<point x="734" y="223"/>
			<point x="660" y="130"/>
			<point x="529" y="130" type="curve" smooth="yes"/>
		</contour>
		<component base="SerifBottomLeft" xOffset="246"/>
		<component base="hookleft_caps_part"/>
	</outline>
</glyph>
<glyph name="Schwa" format="2">
	<advance width="750"/>
	<unicode hex="018F"/>
	<outline>
		<contour>
			<point x="354" y="-9" type="curve"/>
			<point x="464" y="-9"/>
			<point x="554" y="33"/>
			<point x="616" y="98" type="curve" smooth="yes"/>
			<point x="678" y="163"/>
			<point x="712" y="252"/>
			<point x="712" y="358" type="curve" smooth="yes"/>
			<point x="712" y="474"/>
			<point x="671" y="575"/>
			<point x="604" y="641" type="curve" smooth="yes"/>
			<point x="542" y="703"/>
			<point x="452" y="740"/>
			<point x="337" y="740" type="curve" smooth="yes"/>
			<point x="216" y="740"/>
			<point x="106" y="699"/>
			<point x="32" y="615" type="curve"/>
			<point x="84" y="554" type="line" smooth="yes"/>
			<point x="95" y="541"/>
			<point x="106" y="535"/>
			<point x="123" y="535" type="curve" smooth="yes"/>
			<point x="145" y="535"/>
			<point x="169" y="546"/>
			<point x="195" y="558" type="curve" smooth="yes"/>
			<point x="227" y="573"/>
			<point x="272" y="598"/>
			<point x="331" y="598" type="curve" smooth="yes"/>
			<point x="373" y="598"/>
			<point x="421" y="585"/>
			<point x="459" y="558" type="curve" smooth="yes"/>
			<point x="496" y="532"/>
			<point x="518" y="496"/>
			<point x="529" y="445" type="curve" smooth="yes"/>
			<point x="532" y="432"/>
			<point x="534" y="415"/>
			<point x="535" y="404" type="curve"/>
			<point x="76" y="404" type="line" smooth="yes"/>
			<point x="36" y="404"/>
			<point x="28" y="384"/>
			<point x="28" y="329" type="curve" smooth="yes"/>
			<point x="28" y="222"/>
			<point x="59" y="138"/>
			<point x="119" y="79" type="curve" smooth="yes"/>
			<point x="180" y="19"/>
			<point x="261" y="-9"/>
		</contour>
		<contour>
			<point x="355" y="127" type="curve"/>
			<point x="249" y="127"/>
			<point x="192" y="195"/>
			<point x="192" y="293" type="curve"/>
			<point x="534" y="293" type="line"/>
			<point x="518" y="191"/>
			<point x="458" y="127"/>
		</contour>
	</outline>
</glyph>
<glyph name="Eopen" format="2">
	<advance width="595"/>
	<unicode hex="0190"/>
	<anchor x="298" y="749" name="top"/>
	<anchor x="298" y="0" name="bottom"/>
	<outline>
		<contour>
			<point x="295" y="-7" type="curve" smooth="yes"/>
			<point x="405.7" y="-7"/>
			<point x="508.208" y="18.872"/>
			<point x="590" y="116" type="curve"/>
			<point x="528" y="186" type="line" smooth="yes"/>
			<point x="521" y="194"/>
			<point x="513" y="197"/>
			<point x="505" y="197" type="curve" smooth="yes"/>
			<point x="494.333" y="197"/>
			<point x="485" y="191.667"/>
			<point x="477" y="185" type="curve" smooth="yes"/>
			<point x="439.112" y="153.427"/>
			<point x="411.775" y="130"/>
			<point x="340" y="130" type="curve" smooth="yes"/>
			<point x="256.686" y="130"/>
			<point x="208" y="173.11"/>
			<point x="208" y="234" type="curve" smooth="yes"/>
			<point x="208" y="284.49"/>
			<point x="246.649" y="327"/>
			<point x="323" y="327" type="curve" smooth="yes"/>
			<point x="460" y="327" type="line"/>
			<point x="460" y="444" type="line"/>
			<point x="338" y="444" type="line" smooth="yes"/>
			<point x="259.333" y="444"/>
			<point x="226" y="474.667"/>
			<point x="226" y="528" type="curve" smooth="yes"/>
			<point x="226" y="572.39"/>
			<point x="258.58" y="604"/>
			<point x="325" y="604" type="curve" smooth="yes"/>
			<point x="352" y="604"/>
			<point x="385" y="595"/>
			<point x="415" y="585" type="curve" smooth="yes"/>
			<point x="449" y="574"/>
			<point x="479" y="562"/>
			<point x="492" y="562" type="curve" smooth="yes"/>
			<point x="504" y="562"/>
			<point x="520" y="565"/>
			<point x="534" y="589" type="curve" smooth="yes"/>
			<point x="572" y="653" type="line"/>
			<point x="514.667" y="705"/>
			<point x="438" y="738"/>
			<point x="330" y="738" type="curve" smooth="yes"/>
			<point x="165.077" y="738"/>
			<point x="46" y="650.144"/>
			<point x="46" y="536" type="curve" smooth="yes"/>
			<point x="46" y="476.841"/>
			<point x="78.332" y="419.012"/>
			<point x="152" y="392" type="curve"/>
			<point x="82.593" y="358.684"/>
			<point x="35" y="297.601"/>
			<point x="35" y="219" type="curve" smooth="yes"/>
			<point x="35" y="82"/>
			<point x="156" y="-7"/>
		</contour>
		<contour>
			<point x="572" y="589" type="line"/>
			<point x="572" y="653" type="line"/>
			<point x="524" y="598" type="line"/>
		</contour>
		<component base="SerifUpRightCaps" xScale="-1" yScale="-1" xOffset="572" yOffset="591"/>
	</outline>
</glyph>
<glyph name="Fhook" format="2">
	<advance width="597"/>
	<unicode hex="0191"/>
	<outline>
		<contour>
			<point x="97" y="0" type="line"/>
			<point x="267" y="39" type="line"/>
			<point x="267" y="284" type="line"/>
			<point x="516" y="284" type="line"/>
			<point x="516" y="414" type="line"/>
			<point x="267" y="414" type="line"/>
			<point x="267" y="599" type="line"/>
			<point x="566" y="599" type="line"/>
			<point x="566" y="729" type="line"/>
			<point x="97" y="729" type="line"/>
		</contour>
		<contour>
			<point x="84" y="-180" type="curve" smooth="yes"/>
			<point x="128" y="-180"/>
			<point x="267" y="-164"/>
			<point x="267" y="10" type="curve" smooth="yes"/>
			<point x="267" y="90" type="line"/>
			<point x="97" y="90" type="line"/>
			<point x="97" y="-1" type="line" smooth="yes"/>
			<point x="97" y="-53"/>
			<point x="84" y="-68"/>
			<point x="42" y="-68" type="curve" smooth="yes"/>
			<point x="12" y="-68"/>
			<point x="7" y="-74"/>
			<point x="6" y="-90" type="curve" smooth="yes"/>
			<point x="1" y="-170" type="line"/>
			<point x="24" y="-175"/>
			<point x="57" y="-180"/>
		</contour>
		<component base="SerifUpRightCaps" xScale="-1" yScale="-1" xOffset="566" yOffset="599"/>
		<component base="SerifSpurLeft" xOffset="127" yOffset="729"/>
	</outline>
</glyph>
<glyph name="florin" format="2">
	<advance width="422"/>
	<unicode hex="0192"/>
	<note>
		florin
	</note>
	<outline>
		<contour>
			<point x="-70" y="-170" type="line"/>
			<point x="103" y="-170"/>
			<point x="198" y="-113"/>
			<point x="214" y="36" type="curve" smooth="yes"/>
			<point x="254" y="364" type="line"/>
			<point x="397" y="364" type="line"/>
			<point x="397" y="470" type="line"/>
			<point x="263" y="470" type="line"/>
			<point x="271" y="532" type="line" smooth="yes"/>
			<point x="280" y="595"/>
			<point x="309" y="618"/>
			<point x="357" y="618" type="curve" smooth="yes"/>
			<point x="390" y="618"/>
			<point x="405" y="628"/>
			<point x="405" y="660" type="curve" smooth="yes"/>
			<point x="405" y="743" type="line"/>
			<point x="232" y="743"/>
			<point x="140" y="679"/>
			<point x="121" y="537" type="curve" smooth="yes"/>
			<point x="113" y="470" type="line"/>
			<point x="18" y="470" type="line"/>
			<point x="18" y="409" type="line" smooth="yes"/>
			<point x="18" y="388"/>
			<point x="31" y="376"/>
			<point x="52" y="371" type="curve" smooth="yes"/>
			<point x="100" y="361" type="line"/>
			<point x="60" y="41" type="line" smooth="yes"/>
			<point x="52" y="-19"/>
			<point x="29" y="-45"/>
			<point x="-22" y="-45" type="curve" smooth="yes"/>
			<point x="-55" y="-45"/>
			<point x="-70" y="-59"/>
			<point x="-70" y="-91" type="curve" smooth="yes"/>
		</contour>
	</outline>
</glyph>
<glyph name="Ghook" format="2">
	<advance width="732"/>
	<unicode hex="0193"/>
	<outline>
		<contour>
			<point x="662" y="640" type="line"/>
			<point x="662" y="688" type="line" smooth="yes"/>
			<point x="662" y="743"/>
			<point x="677" y="770"/>
			<point x="717" y="770" type="curve" smooth="yes"/>
			<point x="729" y="770"/>
			<point x="741" y="767"/>
			<point x="748" y="766" type="curve" smooth="yes"/>
			<point x="771" y="763"/>
			<point x="790" y="766"/>
			<point x="797" y="793" type="curve" smooth="yes"/>
			<point x="819" y="878" type="line"/>
			<point x="783" y="891"/>
			<point x="747" y="899"/>
			<point x="700" y="899" type="curve" smooth="yes"/>
			<point x="572" y="899"/>
			<point x="523" y="822"/>
			<point x="523" y="726" type="curve" smooth="yes"/>
			<point x="523" y="725"/>
			<point x="523" y="725"/>
			<point x="523" y="724" type="curve" smooth="yes"/>
			<point x="523" y="723"/>
			<point x="523" y="722"/>
			<point x="523" y="721" type="curve"/>
		</contour>
		<component base="G"/>
	</outline>
</glyph>
<glyph name="Gammaafrican" format="2">
	<advance width="784"/>
	<unicode hex="0194"/>
	<outline>
		<contour>
			<point x="53" y="0" type="line"/>
			<point x="732" y="0" type="line"/>
			<point x="494" y="322" type="line"/>
			<point x="776" y="729" type="line"/>
			<point x="614" y="729" type="line" smooth="yes"/>
			<point x="599" y="729"/>
			<point x="589" y="723"/>
			<point x="580" y="708" type="curve" smooth="yes"/>
			<point x="403" y="431" type="line"/>
			<point x="214" y="707" type="line" smooth="yes"/>
			<point x="203" y="724"/>
			<point x="194.333" y="729"/>
			<point x="173" y="729" type="curve" smooth="yes"/>
			<point x="8" y="729" type="line"/>
			<point x="296" y="330" type="line"/>
		</contour>
		<contour>
			<point x="314" y="123" type="line"/>
			<point x="322" y="127.667"/>
			<point x="328" y="132"/>
			<point x="332" y="138" type="curve" smooth="yes"/>
			<point x="355" y="175" type="line"/>
			<point x="371" y="193.667"/>
			<point x="381" y="214.667"/>
			<point x="389" y="236" type="curve"/>
			<point x="458" y="143" type="line" smooth="yes"/>
			<point x="464" y="135"/>
			<point x="471" y="128.333"/>
			<point x="479" y="123" type="curve"/>
		</contour>
		<contour>
			<point x="549" y="666" type="line"/>
			<point x="623" y="667" type="line"/>
			<point x="623" y="729" type="line"/>
			<point x="549" y="729" type="line"/>
		</contour>
		<contour>
			<point x="168" y="691" type="line"/>
			<point x="242" y="691" type="line"/>
			<point x="242" y="729" type="line"/>
			<point x="168" y="729" type="line"/>
		</contour>
		<component base="SerifSpurLeft" xOffset="582" yOffset="729"/>
		<component base="SerifSpurRight" xOffset="699" yOffset="729"/>
		<component base="SerifSpurLeft" xOffset="115" yOffset="729"/>
		<component base="SerifSpurRight" xOffset="232" yOffset="729"/>
	</outline>
</glyph>
<glyph name="Iotaafrican" format="2">
	<advance width="381"/>
	<unicode hex="0196"/>
	<outline>
		<contour>
			<point x="243" y="-6" type="curve" smooth="yes"/>
			<point x="303" y="-6"/>
			<point x="365" y="14"/>
			<point x="365" y="64" type="curve" smooth="yes"/>
			<point x="365" y="117" type="line"/>
			<point x="310" y="117" type="line" smooth="yes"/>
			<point x="273" y="117"/>
			<point x="262" y="135"/>
			<point x="262" y="176" type="curve" smooth="yes"/>
			<point x="262" y="729" type="line"/>
			<point x="92" y="729" type="line"/>
			<point x="92" y="167" type="line" smooth="yes"/>
			<point x="92" y="69"/>
			<point x="144" y="-6"/>
		</contour>
		<component base="SerifSpurLeft" xOffset="122" yOffset="729"/>
	</outline>
</glyph>
<glyph name="Khook" format="2">
	<advance width="759"/>
	<unicode hex="0198"/>
	<anchor x="379" y="729" name="top"/>
	<anchor x="379" y="0" name="bottom"/>
	<outline>
		<contour>
			<point x="97" y="0" type="line"/>
			<point x="266" y="0" type="line"/>
			<point x="266" y="310" type="line"/>
			<point x="307" y="310" type="line" smooth="yes"/>
			<point x="337.667" y="310"/>
			<point x="354" y="304"/>
			<point x="367" y="284" type="curve" smooth="yes"/>
			<point x="532" y="31" type="line" smooth="yes"/>
			<point x="546" y="9"/>
			<point x="561.965" y="0"/>
			<point x="598" y="0" type="curve" smooth="yes"/>
			<point x="749" y="0" type="line"/>
			<point x="529" y="338" type="line" smooth="yes"/>
			<point x="512" y="365"/>
			<point x="489.333" y="381.333"/>
			<point x="464" y="390" type="curve"/>
			<point x="488" y="402"/>
			<point x="508" y="418.667"/>
			<point x="524" y="444" type="curve" smooth="yes"/>
			<point x="592" y="570" type="line" smooth="yes"/>
			<point x="604" y="593"/>
			<point x="631.667" y="610"/>
			<point x="665" y="610" type="curve" smooth="yes"/>
			<point x="677" y="610"/>
			<point x="690" y="607"/>
			<point x="698" y="607" type="curve" smooth="yes"/>
			<point x="720" y="606"/>
			<point x="735.661" y="608.091"/>
			<point x="743" y="635" type="curve" smooth="yes"/>
			<point x="758" y="719" type="line"/>
			<point x="736.667" y="728.333"/>
			<point x="708" y="735"/>
			<point x="656" y="735" type="curve" smooth="yes"/>
			<point x="559.249" y="735"/>
			<point x="487" y="708"/>
			<point x="438" y="620" type="curve" smooth="yes"/>
			<point x="350" y="461" type="line" smooth="yes"/>
			<point x="336.667" y="441"/>
			<point x="318.333" y="434"/>
			<point x="293" y="434" type="curve" smooth="yes"/>
			<point x="266" y="434" type="line"/>
			<point x="266" y="729" type="line"/>
			<point x="97" y="729" type="line"/>
		</contour>
		<contour>
			<point x="654" y="0" type="line"/>
			<point x="673" y="117" type="line"/>
			<point x="598" y="131" type="line"/>
		</contour>
		<component base="SerifBottomLeft" xOffset="97"/>
		<component base="SerifBottomRight" xOffset="267"/>
		<component base="SerifSpurLeft" xOffset="127" yOffset="729"/>
		<component base="SerifSpurRight" xOffset="267" yOffset="729"/>
		<component base="SerifBottomRight" xOffset="674"/>
	</outline>
</glyph>
